<svg width="584" height="311" viewBox="0 0 584 311" fill="none" xmlns="http://www.w3.org/2000/svg">
<g clip-path="url(#clip0_1_2771)">
<path d="M169.94 39.6698C169.94 39.6698 174.287 53.8864 176.712 61.2588C176.827 61.6081 176.859 61.9795 176.805 62.3432C176.75 62.7069 176.612 63.0528 176.4 63.3533C176.188 63.6538 175.909 63.9004 175.585 64.0735C175.261 64.2466 174.9 64.3413 174.533 64.35L160.525 64.6969C159.919 64.7118 159.332 64.493 158.884 64.0859C158.435 63.6788 158.161 63.1146 158.117 62.5104L156.68 42.6065L169.94 39.6698Z" fill="#0F1011"/>
<path d="M149.259 72.0451C149.259 72.0451 153.281 69.7864 152.104 58.7096L160.48 56.9475C160.48 56.9475 159.772 66.9208 164.104 69.9783L149.259 72.0451Z" fill="#E98862"/>
<g opacity="0.15">
<path d="M162.333 67.9394L155.216 62.7539L160.704 62.5652C160.908 64.4425 161.46 66.2651 162.333 67.9394Z" fill="black"/>
</g>
<path d="M147.23 54.5205C147.893 57.8733 149.804 61.0188 152.799 62.0348C156.064 63.2431 159.575 63.633 163.026 63.1705C172.218 62.1946 169.897 41.2768 165.427 37.3098C160.957 33.3428 148.184 36.2274 146.785 43.0757C146.062 46.6161 146.599 51.3307 147.23 54.5205Z" fill="#E98862"/>
<path d="M160.326 51.6117C160.748 51.6117 161.089 51.2696 161.089 50.8477C161.089 50.4258 160.748 50.0837 160.326 50.0837C159.904 50.0837 159.563 50.4258 159.563 50.8477C159.563 51.2696 159.904 51.6117 160.326 51.6117Z" fill="#0F1011"/>
<path d="M166.335 50.9742C166.756 50.9742 167.098 50.6322 167.098 50.2103C167.098 49.7883 166.756 49.4463 166.335 49.4463C165.913 49.4463 165.571 49.7883 165.571 50.2103C165.571 50.6322 165.913 50.9742 166.335 50.9742Z" fill="#0F1011"/>
<path d="M165.587 48.5743C165.491 48.5748 165.4 48.5374 165.332 48.4704C165.265 48.4034 165.226 48.3123 165.226 48.2171C165.225 48.1218 165.263 48.0303 165.33 47.9626C165.397 47.895 165.488 47.8567 165.583 47.8562L167.605 47.8335H167.609C167.657 47.8332 167.703 47.8422 167.747 47.86C167.79 47.8778 167.83 47.904 167.864 47.9372C167.897 47.9703 167.924 48.0097 167.942 48.0532C167.96 48.0967 167.97 48.1433 167.97 48.1904C167.971 48.2376 167.962 48.2843 167.944 48.328C167.926 48.3717 167.9 48.4114 167.867 48.445C167.834 48.4785 167.794 48.5052 167.751 48.5235C167.707 48.5418 167.661 48.5513 167.614 48.5516L165.591 48.5743H165.587Z" fill="#0F1011"/>
<path d="M158.638 49.5038C158.551 49.5038 158.466 49.472 158.401 49.4145C158.336 49.357 158.293 49.2777 158.282 49.1913C158.271 49.1049 158.291 49.0174 158.34 48.945C158.388 48.8726 158.461 48.8203 158.545 48.7978L160.527 48.2706C160.619 48.2461 160.717 48.2592 160.799 48.307C160.882 48.3548 160.942 48.4334 160.966 48.5255C160.991 48.6176 160.978 48.7156 160.93 48.798C160.882 48.8805 160.804 48.9405 160.712 48.965L158.73 49.4922C158.7 49.5002 158.669 49.5041 158.638 49.5038Z" fill="#0F1011"/>
<path d="M160.822 56.8546C160.822 56.8546 163.646 57.0845 165.605 56.3474C165.605 56.3474 165.633 58.2038 163.409 58.4406C161.184 58.6773 160.822 56.8546 160.822 56.8546Z" fill="white"/>
<g opacity="0.15">
<path d="M163.815 55.0035C163.752 55.005 163.69 54.9839 163.642 54.9439C163.593 54.9039 163.56 54.8477 163.549 54.7855C163.538 54.7233 163.55 54.6593 163.582 54.6051C163.614 54.5508 163.665 54.51 163.725 54.4899L165.265 53.9759L164.121 51.5817C164.097 51.5196 164.097 51.4507 164.122 51.3886C164.146 51.3266 164.193 51.2762 164.253 51.2474C164.313 51.2187 164.382 51.2138 164.446 51.2338C164.509 51.2537 164.563 51.297 164.596 51.355L165.996 54.2875L163.889 54.9903C163.865 54.9982 163.84 55.0027 163.815 55.0035Z" fill="black"/>
</g>
<path d="M170.463 41.3743C170.463 41.3743 168.845 30.4905 151.433 33.6044C147.092 34.3805 141.002 37.9388 140.276 49.1227C139.945 54.2533 138.302 59.1234 137.032 62.2115C136.882 62.574 136.824 62.9685 136.865 63.3589C136.906 63.7494 137.043 64.1235 137.265 64.4473C137.486 64.7711 137.785 65.0344 138.135 65.2132C138.484 65.3921 138.872 65.4808 139.264 65.4714L151.551 65.1714C152.174 65.157 152.766 64.8954 153.197 64.444C153.628 63.9927 153.862 63.3886 153.848 62.7645C153.848 62.7297 153.848 62.6949 153.843 62.6591C153.703 60.568 153.546 57.026 153.531 51.607C154.093 48.5 152.338 46.3626 154.825 47.0121C164.063 49.4184 169.779 41.5678 170.463 41.3743Z" fill="#0F1011"/>
<path d="M156.551 54.2321C156.642 55.0864 156.39 55.9417 155.851 56.61C155.312 57.2783 154.529 57.7049 153.676 57.7957C152.822 57.8866 151.968 57.6345 151.3 57.0947C150.632 56.5549 150.206 55.7718 150.115 54.9175C150.064 54.5024 150.095 54.0813 150.206 53.6781C150.318 53.275 150.508 52.8979 150.765 52.5682C151.022 52.2385 151.342 51.9627 151.705 51.7566C152.069 51.5505 152.47 51.4182 152.884 51.3671C152.92 51.3623 152.956 51.3586 152.99 51.3555C155.296 51.221 156.362 52.4532 156.551 54.2321Z" fill="#E98862"/>
<path d="M584 311H0C6.39898 290.367 18.2166 272.864 34.8738 267.671C59.2429 260.085 85.0321 280.942 109.347 273.101C123.161 268.65 134.037 255.679 145.465 244.907C188.578 204.265 247.663 192.252 298.676 213.764C325.343 225.004 349.643 244.658 376.961 253.017C412.284 263.826 449.225 254.862 485.55 253.386C520.93 251.944 571.62 270.17 584 311Z" fill="#F3F5FD"/>
<path d="M523.118 215.448C519.845 225.373 508.548 234.191 511.923 241.489C513.207 244.264 514.496 247.166 515.089 250.129C515.474 251.896 515.538 253.718 515.278 255.507C514.061 263.236 506.835 268.369 500.116 272.367C499.701 272.613 499.282 272.863 498.863 273.114C492.496 276.932 485.827 281.328 483.782 288.377C482.647 292.292 483.15 296.479 482.676 300.527C482.23 304.248 480.967 307.824 478.979 310.999H436.07C432.26 306.797 432.577 299.734 435.476 294.779C438.58 289.477 443.822 285.874 448.552 281.953C452.639 278.565 456.622 274.486 458.182 269.51C458.43 268.723 458.613 267.917 458.729 267.1C459.107 264.408 458.903 250.655 463.567 242.189C470.777 229.117 482.473 232.337 486.047 224.961C487.417 222.136 488.599 187.422 511.381 193.833C513.603 194.427 515.68 195.469 517.487 196.893C519.293 198.317 520.791 200.095 521.889 202.117C522.987 204.139 523.663 206.364 523.874 208.656C524.085 210.948 523.828 213.259 523.118 215.448Z" fill="#DEE8F5"/>
<path d="M564.79 269.732C564.136 270.182 563.433 270.557 562.694 270.848C556.547 273.156 539.452 272.9 536.95 278.975C535.775 281.831 535.493 284.986 534.486 287.907C532.2 294.535 526.166 299.506 519.415 301.372C516.986 302.043 514.47 302.355 512.067 303.102C507.423 304.551 503.578 307.463 500.197 311H444.779C444.754 307.322 445.658 303.697 447.407 300.462C449.156 297.227 451.692 294.486 454.781 292.494C460.946 288.603 468.727 287.874 474.776 283.814C478.765 281.132 481.634 277.258 483.91 272.974C485.358 270.17 486.637 267.283 487.74 264.327C489.433 259.93 491.202 255.211 495.047 252.489C496.933 251.262 499.024 250.385 501.22 249.899C506.774 248.445 511.044 249.3 515.089 250.129C519.998 251.131 524.58 252.09 530.732 248.819C541.645 243.015 557.599 214.074 573.545 241.572C579.938 252.602 571.116 265.494 564.79 269.732Z" fill="#8DDBE0"/>
<path d="M52.6469 215.448C55.9198 225.373 67.2164 234.191 63.8413 241.489C62.5575 244.264 61.2689 247.166 60.6758 250.129C60.2908 251.896 60.2267 253.718 60.4866 255.507C61.7035 263.236 68.9296 268.369 75.6489 272.367C76.0634 272.613 76.4823 272.863 76.9021 273.114C83.2684 276.932 89.9371 281.328 91.9827 288.377C93.1179 292.292 92.6148 296.479 93.0889 300.527C93.5345 304.248 94.797 307.824 96.786 310.999H139.697C143.506 306.797 143.189 299.734 140.29 294.779C137.185 289.477 131.944 285.874 127.214 281.953C123.127 278.565 119.144 274.486 117.584 269.51C117.336 268.723 117.153 267.917 117.037 267.1C116.658 264.408 116.863 250.655 112.199 242.189C104.989 229.117 93.2933 232.337 89.719 224.961C88.3494 222.136 87.1667 187.422 64.3849 193.833C62.1632 194.427 60.0856 195.468 58.2789 196.892C56.4721 198.317 54.974 200.094 53.8758 202.116C52.7775 204.139 52.1022 206.364 51.8909 208.656C51.6797 210.948 51.9369 213.259 52.6469 215.448Z" fill="#DEE8F5"/>
<path d="M10.9742 269.732C11.6283 270.182 12.3318 270.557 13.0708 270.848C19.2175 273.156 36.3131 272.9 38.8138 278.975C39.9901 281.831 40.2714 284.986 41.2786 287.907C43.5649 294.535 49.5988 299.506 56.3492 301.373C58.7782 302.043 61.2942 302.355 63.698 303.102C68.3412 304.551 72.1868 307.463 75.5672 311H130.986C131.01 307.322 130.106 303.697 128.358 300.462C126.609 297.227 124.072 294.486 120.983 292.494C114.82 288.604 107.038 287.877 100.988 283.814C96.9994 281.132 94.1304 277.257 91.8547 272.973C90.407 270.17 89.1281 267.283 88.0249 264.326C86.3317 259.93 84.5628 255.211 80.7166 252.488C78.8309 251.262 76.7402 250.384 74.5442 249.898C68.9907 248.445 64.7205 249.299 60.6758 250.129C55.7666 251.131 51.1845 252.089 45.0299 248.819C34.1174 243.014 18.1634 214.073 2.21728 241.571C-4.17327 252.602 4.64844 265.494 10.9742 269.732Z" fill="#8DDBE0"/>
<path d="M89.1227 194.684C88.7956 194.628 87.8015 194.454 78.3392 191.619L81.5121 181.012C85.5236 182.214 90.348 183.622 91.1477 183.801C91.095 183.79 91.0545 183.782 91.0213 183.777L89.1227 194.684Z" fill="#E98862"/>
<path d="M71.3023 204.258C71.2403 204.549 71.239 204.85 71.2985 205.142C71.358 205.433 71.4769 205.71 71.6478 205.953C71.8188 206.197 72.0381 206.403 72.2921 206.558C72.546 206.713 72.8292 206.814 73.1239 206.854C73.5325 206.911 73.9486 206.849 74.3232 206.676C74.6978 206.504 75.0154 206.228 75.2385 205.881L82.1922 194.207C82.3261 193.981 82.4095 193.729 82.4368 193.467C82.4641 193.206 82.4346 192.941 82.3502 192.692C81.5268 190.699 81.364 188.495 81.8856 186.403C82.359 184.788 83.2762 183.338 84.5327 182.22C84.654 182.124 84.7456 181.996 84.7966 181.85C84.8477 181.704 84.8562 181.546 84.8211 181.395C84.786 181.245 84.7088 181.107 84.5985 180.999C84.4882 180.89 84.3494 180.816 84.1982 180.783L78.0463 179.442C77.8648 179.402 77.6773 179.399 77.4945 179.432C77.3117 179.465 77.1372 179.534 76.9811 179.635C76.825 179.736 76.6904 179.867 76.5849 180.02C76.4794 180.173 76.4051 180.345 76.3664 180.527L71.3023 204.258Z" fill="#C1D8ED"/>
<path d="M172.68 268.333L162.408 264.22C163.963 260.329 165.797 255.646 166.046 254.865C166.031 254.914 166.02 254.956 166.011 254.989L176.696 257.859C176.611 258.18 176.349 259.155 172.68 268.333Z" fill="#E98862"/>
<path d="M184.626 276.482C184.91 276.569 185.209 276.598 185.505 276.565C185.801 276.532 186.086 276.438 186.344 276.29C186.602 276.141 186.826 275.941 187.003 275.702C187.18 275.463 187.306 275.19 187.373 274.9C187.466 274.498 187.442 274.077 187.304 273.688C187.166 273.299 186.919 272.958 186.594 272.704L175.601 264.725C175.388 264.571 175.144 264.466 174.886 264.415C174.629 264.365 174.363 264.371 174.107 264.432C172.051 265.075 169.842 265.039 167.807 264.332C166.242 263.715 164.883 262.67 163.882 261.318C163.798 261.188 163.678 261.085 163.537 261.021C163.397 260.957 163.241 260.935 163.087 260.956C162.934 260.978 162.791 261.042 162.673 261.143C162.555 261.243 162.468 261.375 162.423 261.523L160.536 267.533C160.48 267.711 160.46 267.897 160.477 268.082C160.493 268.267 160.546 268.447 160.633 268.612C160.719 268.777 160.837 268.923 160.98 269.041C161.123 269.16 161.287 269.25 161.465 269.305L184.626 276.482Z" fill="#C1D8ED"/>
<path d="M194.154 197.065C193.285 185.08 180.701 130.788 179.365 124.933L139.583 127.822C139.583 127.822 127.776 179.579 127.278 181.025L88.9273 179.353L85.5242 198.559L133.076 205.26C135.614 205.809 138.264 205.45 140.564 204.243C142.864 203.037 144.668 201.06 145.66 198.658C145.66 198.658 159.507 153.966 159.789 153.142L173.292 193.89L161.026 257.417L179.788 262.704C179.788 262.704 194.505 201.912 194.154 197.065Z" fill="#262626"/>
<path d="M228.693 38.0553L233.401 42.152C233.401 42.152 240.805 38.9358 241.292 30.9703C241.453 28.3298 238.474 28.1 237.953 28.8529C236.233 31.3404 234.823 33.9455 232.527 35.1661C232.82 34.0183 233.128 32.4244 232.621 32.2852C231.289 31.9119 228.693 38.0553 228.693 38.0553Z" fill="#E98862"/>
<path d="M174.905 81.3086L172.715 70.0256L208.942 62.9827L228.185 35.2292L237.622 41.7834L217.048 71.4566C216.194 72.6878 214.894 73.5367 213.424 73.8223L174.905 81.3086Z" fill="#367CFF"/>
<path d="M110.461 28.6994L104.384 30.1119C104.384 30.1119 99.8277 22.7242 103.127 15.4577C104.22 13.0493 106.96 14.2451 107.067 15.1524C107.423 18.1577 106.968 22.1948 108.423 24.3481C108.702 23.1971 109.175 21.6465 109.688 21.7588C111.042 22.0546 110.461 28.6994 110.461 28.6994Z" fill="#E98862"/>
<path d="M182.952 128.738C181.045 133.931 137.874 138.608 136.768 129.724C136.067 124.072 140.766 118.826 140.113 107.769C139.46 96.713 128.455 83.1893 136.246 74.4107C138.506 71.8641 142.562 70.061 147.625 69.7552C148.173 72.6866 166.094 71.6427 166.057 68.7376C166.742 68.706 167.274 68.6849 167.606 68.6796C185.096 68.3949 178.606 88.7253 179.301 103.33C180.111 120.434 184.911 123.375 182.952 128.738Z" fill="#367CFF"/>
<path d="M166.057 68.7377C166.094 71.6428 164.762 75.9873 159.936 76.5936C153.488 77.4055 148.173 72.6867 147.625 69.7553H147.641C154.004 69.3809 162.338 68.9011 166.057 68.7377Z" fill="#E98862"/>
<path d="M136.219 85.3436L105.592 66.0028C104.821 65.5162 104.177 64.8529 103.713 64.0678C103.249 63.2828 102.979 62.3985 102.924 61.488L100.847 27.0881L112.313 26.3948L114.212 57.8527L142.349 75.6207L136.219 85.3436Z" fill="#367CFF"/>
<path d="M342.746 33.3634L340.581 39.2195C340.581 39.2195 332.544 39.9576 328.295 33.2036C326.887 30.965 329.39 29.3316 330.207 29.7418C332.91 31.0973 335.397 32.7049 337.994 32.6727C337.186 31.807 336.153 30.5585 336.53 30.1904C337.521 29.2224 342.746 33.3634 342.746 33.3634Z" fill="#E98862"/>
<path d="M391.926 74.4992L360.994 68.7702C359.677 68.5262 358.486 67.8288 357.628 66.7989L334.856 39.4614L343.681 32.0995L365.122 57.8426L394.015 63.1936L391.926 74.4992Z" fill="#367CFF"/>
<path d="M493.423 172.481L489.216 162.241C489.185 162.254 489.145 162.27 489.097 162.294C489.84 161.946 494.246 159.528 497.902 157.486L503.291 167.156C494.664 171.97 493.73 172.355 493.423 172.481Z" fill="#E98862"/>
<path d="M512.892 177.97C513.016 178.241 513.082 178.535 513.087 178.833C513.092 179.13 513.036 179.426 512.921 179.701C512.807 179.976 512.637 180.224 512.423 180.43C512.208 180.637 511.954 180.796 511.675 180.9C511.288 181.043 510.868 181.073 510.465 180.986C510.062 180.898 509.693 180.697 509.4 180.407L500.087 170.515C499.907 170.323 499.771 170.095 499.688 169.845C499.605 169.596 499.577 169.331 499.606 169.07C499.979 166.946 499.661 164.758 498.7 162.829C497.889 161.354 496.68 160.138 495.212 159.318C495.072 159.251 494.955 159.145 494.873 159.014C494.792 158.882 494.749 158.73 494.751 158.575C494.753 158.42 494.798 158.269 494.883 158.139C494.967 158.009 495.087 157.906 495.228 157.842L500.945 155.201C501.114 155.123 501.296 155.079 501.481 155.072C501.667 155.065 501.852 155.094 502.026 155.159C502.201 155.224 502.36 155.322 502.496 155.449C502.632 155.575 502.742 155.727 502.819 155.896L512.892 177.97Z" fill="#C1D8ED"/>
<path d="M427.758 262.473C422.192 254.307 421.727 253.412 421.573 253.117L431.383 248.003C431.368 247.973 431.348 247.934 431.322 247.89C431.735 248.598 434.535 252.774 436.897 256.236L427.758 262.473Z" fill="#E98862"/>
<path d="M417.857 273.014C417.599 273.161 417.313 273.254 417.017 273.285C416.721 273.317 416.422 273.288 416.138 273.199C415.854 273.11 415.592 272.963 415.367 272.768C415.143 272.573 414.961 272.333 414.832 272.065C414.655 271.692 414.588 271.276 414.639 270.867C414.689 270.457 414.856 270.071 415.119 269.753L424.127 259.583C424.302 259.387 424.518 259.231 424.758 259.126C424.999 259.02 425.26 258.968 425.523 258.973C427.67 259.155 429.818 258.643 431.652 257.511C433.047 256.571 434.149 255.257 434.833 253.719C434.887 253.575 434.982 253.449 435.106 253.356C435.229 253.263 435.377 253.207 435.531 253.195C435.685 253.183 435.839 253.215 435.976 253.287C436.112 253.359 436.226 253.469 436.302 253.603L439.443 259.065C439.536 259.226 439.595 259.404 439.619 259.589C439.643 259.773 439.63 259.961 439.581 260.14C439.532 260.319 439.448 260.487 439.334 260.634C439.22 260.781 439.078 260.904 438.916 260.996L417.857 273.014Z" fill="#C1D8ED"/>
<path d="M391.394 197.539C389.655 185.65 390.207 129.919 390.246 123.913L429.711 118.123C429.711 118.123 452.423 166.102 453.222 167.404L490.301 157.471L497.776 175.487L452.797 192.321C450.438 193.407 447.773 193.63 445.267 192.949C442.761 192.269 440.573 190.73 439.085 188.6C439.085 188.6 415.909 147.963 415.456 147.218L411.076 189.925L436.78 249.292L419.604 258.514C419.604 258.514 392.098 202.347 391.394 197.539Z" fill="#262626"/>
<path d="M447.216 15.7314L453.403 14.9268C453.403 14.9268 455.088 6.41185 449.458 0.758758C447.592 -1.11506 445.443 0.9628 445.659 1.85226C446.376 4.7911 448.215 8.41484 447.604 10.9414C446.941 9.96019 445.955 8.67424 445.513 8.95895C444.349 9.70974 447.216 15.7314 447.216 15.7314Z" fill="#E98862"/>
<path d="M434.101 119.859C433.685 128.801 390.283 127.499 387.981 122.469C385.61 117.275 390.167 113.964 389.645 96.8553C389.203 82.2402 381.159 62.4739 398.617 61.3983C398.948 61.3772 399.48 61.3561 400.165 61.3298C400.355 64.2296 418.298 63.8816 418.619 60.9185C423.687 60.8289 427.875 62.3052 430.324 64.6672C438.774 72.8184 428.855 87.1541 429.06 98.2262C429.265 109.298 434.36 114.17 434.101 119.859Z" fill="#367CFF"/>
<path d="M418.619 60.9186C418.298 63.8817 413.362 69.0012 406.877 68.6901C402.009 68.4581 400.355 64.2297 400.165 61.3298C403.884 61.2033 412.229 61.0398 418.603 60.9186H418.619Z" fill="#E98862"/>
<path d="M430.926 72.2006L423.41 63.5079L445.277 44.5668L445.198 12.6449L456.685 12.6169L456.771 47.174C456.772 48.0009 456.596 48.8186 456.253 49.5711C455.911 50.3237 455.41 50.9935 454.786 51.5348L430.926 72.2006Z" fill="#367CFF"/>
<path d="M281.273 101.406C269.76 92.6185 273.99 68.9996 275.11 66.9239C275.524 66.1557 275.182 65.8515 274.587 65.7724C273.832 65.5003 272.221 65.8937 271.693 66.036C271.283 65.6743 270.013 64.6072 269.217 64.516C268.649 64.323 268.207 64.4437 268.238 65.3158C268.323 67.6736 261.657 90.7231 247.445 93.4937C244.459 94.0737 245.053 95.7393 245.053 95.7393L282.426 104.48C282.426 104.48 283.693 103.252 281.273 101.406Z" fill="#0CBC8B"/>
<g opacity="0.09">
<path d="M282.424 104.481L280.026 103.92C280.026 103.92 281.296 102.691 278.876 100.845C267.362 92.0581 273.306 68.8415 274.426 66.7636C274.751 66.1599 274.608 65.8425 274.242 65.6954C274.359 65.7083 274.475 65.7342 274.587 65.7724C275.183 65.852 275.525 66.1568 275.114 66.9239C273.993 68.9997 269.763 92.619 281.277 101.406C283.693 103.252 282.424 104.481 282.424 104.481Z" fill="black"/>
</g>
<path d="M329.8 49.3498C324.692 54.3059 319.78 54.8727 314.387 55.1263C309.084 55.3757 304.506 55.5903 300.718 59.5335C299.799 60.4648 299.031 61.5335 298.44 62.7012V62.7049C298.3 62.9843 298.175 63.2708 298.066 63.5632C297.929 63.9473 297.701 64.2925 297.402 64.5692C297.147 64.8025 296.838 64.9671 296.502 65.0472C296.166 65.1274 295.816 65.1206 295.484 65.0274C295.101 64.9682 294.741 64.8108 294.438 64.5705C294.135 64.3302 293.899 64.0153 293.754 63.6566C293.557 63.1165 293.565 62.523 293.776 61.9884C293.819 61.8734 293.864 61.7587 293.912 61.6441C294.737 59.6774 295.929 57.8855 297.422 56.3638C302.47 51.1066 308.687 50.814 314.174 50.5546C319.204 50.3194 322.754 49.8165 326.619 46.0657C328.542 44.1976 331.222 39.5041 330.359 35.0742C329.689 31.6266 327.825 29.2619 324.824 28.0429C316.63 24.7166 310.698 32.0758 310.449 32.3901C310.074 32.8608 309.528 33.1641 308.93 33.2343C308.332 33.3045 307.73 33.1358 307.256 32.7649C306.781 32.394 306.472 31.8508 306.396 31.2532C306.319 30.6556 306.481 30.0519 306.846 29.573C308.377 27.7334 310.214 26.1727 312.276 24.9602C316.855 22.2712 321.789 21.8716 326.542 23.8002C330.941 25.5849 333.891 29.2772 334.848 34.198C335.937 39.8068 333.085 46.1606 329.8 49.3498Z" fill="#0CBC8B"/>
<path d="M227.002 25.3077C229.387 32.0142 233.881 34.7827 238.604 37.4026C243.246 39.9782 247.256 42.2005 248.905 47.4154C249.316 48.6575 249.532 49.9559 249.545 51.2643V51.268C249.546 51.5803 249.531 51.8925 249.5 52.2033C249.453 52.6084 249.504 53.0188 249.65 53.3996C249.774 53.7217 249.979 54.0066 250.245 54.2273C250.51 54.448 250.827 54.5972 251.167 54.6608C251.536 54.7775 251.929 54.7962 252.308 54.7151C252.686 54.6339 253.037 54.4557 253.326 54.1979C253.742 53.8008 253.997 53.2654 254.045 52.6926C254.057 52.5703 254.067 52.4473 254.075 52.3235C254.206 50.1944 253.932 48.0597 253.267 46.033C251.07 39.0813 245.628 36.0613 240.823 33.3961C236.419 30.9539 233.117 28.8476 231.313 23.7723C230.418 21.2447 230.435 15.9286 233.168 12.3391C235.296 9.54471 238.015 8.25296 241.243 8.49022C250.061 9.14242 252.121 18.3707 252.204 18.7625C252.33 19.3542 252.684 19.8723 253.19 20.2033C253.696 20.5343 254.312 20.6513 254.904 20.5288C255.496 20.4063 256.015 20.0542 256.348 19.5495C256.682 19.0448 256.802 18.4286 256.682 17.8356C256.124 15.5075 255.168 13.2937 253.856 11.292C250.943 6.8505 246.697 4.30392 241.582 3.92642C236.849 3.57527 232.57 5.57721 229.533 9.56369C226.067 14.109 225.468 20.9906 227.002 25.3077Z" fill="#0CBC8B"/>
<path d="M313.009 17.7992C313.101 17.0087 312.899 16.2121 312.442 15.5611C311.985 14.9101 311.304 14.4505 310.53 14.2698L285.318 8.37314L260.107 2.47805C259.333 2.29657 258.519 2.4067 257.821 2.78741C257.122 3.16813 256.589 3.79278 256.321 4.5422C253.835 11.5282 247.892 30.4298 251.58 42.4889C256.171 57.5079 266.72 64.9625 269.228 65.5494L271.826 66.1557L274.425 66.7636C276.935 67.3504 289.692 65.3469 300.458 53.9195C309.101 44.7449 312.145 25.1642 313.009 17.7992Z" fill="#0CBC8B"/>
<g opacity="0.09">
<path d="M313.009 17.7992C313.101 17.0087 312.899 16.212 312.442 15.5611C311.985 14.9101 311.304 14.4505 310.529 14.2698L302.396 12.367L300.429 11.9072C300.429 11.9072 295.986 38.6996 289.685 51.1683C283.384 63.6371 274.337 66.7425 274.427 66.7636C276.937 67.3504 289.694 65.3469 300.46 53.9194C309.101 44.7449 312.145 25.1642 313.009 17.7992Z" fill="black"/>
</g>
<path d="M245.067 95.7426L242.98 104.677L280.337 113.415L282.423 104.48L245.067 95.7426Z" fill="#0F1011"/>
<path d="M240.704 104.145L240.202 106.293L282.111 116.095L282.613 113.947L240.704 104.145Z" fill="#0F1011"/>
<path d="M238.049 105.79L237.547 107.939L283.764 118.748L284.265 116.599L238.049 105.79Z" fill="#0F1011"/>
<path d="M417.418 63.3333C417.418 63.3333 413.186 61.5032 413.209 50.3631L404.695 49.4768C404.695 49.4768 406.43 59.3236 402.437 62.816L417.418 63.3333Z" fill="#E98862"/>
<g opacity="0.15">
<path d="M403.991 60.6021L410.534 54.7086L405.056 55.0898C405.046 56.9775 404.685 58.847 403.991 60.6021Z" fill="black"/>
</g>
<path d="M417.627 45.6924C417.314 49.0962 415.737 52.4221 412.865 53.7433C409.455 55.3119 406.859 55.6071 402.809 55.9309C397.282 56.3727 397.005 50.5894 396.385 44.7881C395.763 38.9637 395.727 32.6658 397.749 30.4572C401.785 26.0489 414.788 27.5964 416.886 34.2623C417.972 37.7094 417.925 42.4525 417.627 45.6924Z" fill="#E98862"/>
<path d="M413.06 53.4096C413.279 53.9542 413.421 54.1878 413.899 53.8487C415.778 52.518 420.013 49.6108 420.762 39.9296C421.433 31.2533 415.87 28.1415 411.558 27.2178C407.841 26.4211 399.351 26.875 395.566 29.5903C392.304 31.9318 396.115 36.4656 396.115 36.4656C397.635 36.4129 398.044 37.6925 401.617 37.4067C404.379 37.1858 406.076 35.807 408.671 35.709C411.046 35.6194 411.648 37.0271 411.638 37.955C411.575 43.6092 412.284 51.483 413.06 53.4096Z" fill="#0F1011"/>
<path d="M404.222 44.159C404.643 44.159 404.985 43.817 404.985 43.3951C404.985 42.9731 404.643 42.6311 404.222 42.6311C403.8 42.6311 403.458 42.9731 403.458 43.3951C403.458 43.817 403.8 44.159 404.222 44.159Z" fill="#0F1011"/>
<path d="M398.179 44.1464C398.601 44.1464 398.943 43.8043 398.943 43.3824C398.943 42.9604 398.601 42.6184 398.179 42.6184C397.758 42.6184 397.416 42.9604 397.416 43.3824C397.416 43.8043 397.758 44.1464 398.179 44.1464Z" fill="#0F1011"/>
<path d="M396.703 41.8661C396.61 41.8676 396.519 41.8327 396.451 41.7689C396.384 41.705 396.343 41.6171 396.339 41.524C396.335 41.4308 396.367 41.3396 396.429 41.2698C396.491 41.2 396.577 41.1571 396.67 41.1501L398.683 40.9635C398.73 40.9591 398.778 40.964 398.823 40.9779C398.867 40.9919 398.909 41.0145 398.946 41.0446C398.982 41.0747 399.012 41.1116 399.034 41.1533C399.056 41.1949 399.069 41.2405 399.074 41.2874C399.078 41.3344 399.073 41.3817 399.059 41.4267C399.045 41.4717 399.023 41.5135 398.992 41.5498C398.962 41.586 398.925 41.616 398.884 41.638C398.842 41.6599 398.797 41.6735 398.75 41.6779L396.736 41.8645L396.703 41.8661Z" fill="#0F1011"/>
<path d="M405.726 41.8845C405.707 41.8847 405.688 41.8833 405.669 41.8803L403.644 41.5608C403.552 41.544 403.47 41.4918 403.416 41.4153C403.361 41.3389 403.339 41.2442 403.354 41.1517C403.368 41.0591 403.418 40.9759 403.494 40.9198C403.569 40.8637 403.663 40.8393 403.755 40.8516L405.781 41.1712C405.87 41.1857 405.95 41.2331 406.005 41.3038C406.061 41.3746 406.087 41.4636 406.081 41.5533C406.074 41.6429 406.033 41.7267 405.968 41.7881C405.902 41.8494 405.816 41.8838 405.726 41.8845Z" fill="#0F1011"/>
<path d="M408.329 44.9421C408.327 45.8011 408.666 46.6256 409.272 47.2342C409.877 47.8428 410.7 48.1858 411.558 48.1875C412.416 48.1892 413.24 47.8497 413.848 47.2435C414.456 46.6374 414.799 45.8142 414.801 44.9552C414.809 44.528 414.731 44.1034 414.572 43.7069C414.412 43.3104 414.175 42.95 413.874 42.6472C413.572 42.3444 413.213 42.1054 412.818 41.9444C412.422 41.7834 411.998 41.7037 411.571 41.7101C409.267 41.8187 408.332 43.1531 408.329 44.9421Z" fill="#E98862"/>
<g opacity="0.15">
<path d="M401.182 47.8893C401.245 47.8844 401.304 47.857 401.348 47.8121C401.393 47.7672 401.42 47.7077 401.424 47.6446C401.428 47.5815 401.41 47.5189 401.372 47.4683C401.334 47.4177 401.279 47.3824 401.217 47.3689L399.632 47.0173L400.522 44.5181C400.545 44.4523 400.542 44.3798 400.512 44.3166C400.482 44.2534 400.428 44.2047 400.362 44.1812C400.297 44.1577 400.224 44.1614 400.161 44.1913C400.098 44.2213 400.049 44.2751 400.026 44.341L399.035 47.1211C399.023 47.1563 399.018 47.1938 399.021 47.2311C399.024 47.2683 399.035 47.3045 399.053 47.3372C399.071 47.3699 399.096 47.3984 399.126 47.4208C399.156 47.4432 399.19 47.4589 399.227 47.467L401.103 47.8835C401.129 47.8896 401.155 47.8915 401.182 47.8893Z" fill="black"/>
</g>
<path d="M404.349 49.4209C404.349 49.4209 401.563 49.9418 399.54 49.4109C399.54 49.4109 399.703 51.261 401.941 51.2657C404.178 51.2705 404.349 49.4209 404.349 49.4209Z" fill="white"/>
</g>
<defs>
<clipPath id="clip0_1_2771">
<rect width="584" height="311" fill="white"/>
</clipPath>
</defs>
</svg>
