<svg width="606" height="301" viewBox="0 0 606 301" fill="none" xmlns="http://www.w3.org/2000/svg">
<path d="M517.468 289.828C517.37 289.828 517.274 289.803 517.191 289.757C517.107 289.71 517.041 289.643 516.997 289.564L503.219 264.162C503.189 264.107 503.171 264.047 503.167 263.985C503.163 263.924 503.172 263.862 503.194 263.804C503.217 263.745 503.252 263.692 503.297 263.645C503.343 263.599 503.398 263.562 503.46 263.535C503.521 263.508 503.588 263.492 503.657 263.488C503.725 263.484 503.794 263.493 503.859 263.513C503.924 263.533 503.983 263.564 504.035 263.605C504.086 263.646 504.128 263.696 504.158 263.751L517.937 289.153C517.976 289.224 517.994 289.304 517.99 289.383C517.985 289.463 517.958 289.54 517.911 289.607C517.864 289.675 517.799 289.731 517.721 289.769C517.644 289.808 517.557 289.828 517.468 289.828Z" fill="#292A2E"/>
<path d="M540.766 288.353C540.65 288.354 540.538 288.319 540.446 288.256C540.355 288.192 540.29 288.103 540.26 288.003L524.312 233.289C524.293 233.229 524.286 233.166 524.294 233.103C524.302 233.041 524.324 232.98 524.359 232.926C524.393 232.871 524.439 232.823 524.495 232.784C524.55 232.746 524.614 232.718 524.681 232.702C524.749 232.686 524.82 232.683 524.889 232.692C524.958 232.701 525.025 232.722 525.085 232.755C525.145 232.787 525.197 232.83 525.238 232.881C525.279 232.932 525.308 232.99 525.324 233.051L541.272 287.766C541.289 287.825 541.293 287.887 541.284 287.948C541.274 288.009 541.252 288.068 541.217 288.121C541.182 288.175 541.137 288.221 541.082 288.258C541.027 288.296 540.965 288.323 540.899 288.338C540.855 288.349 540.81 288.354 540.766 288.353Z" fill="#292A2E"/>
<path d="M571.189 290.776C571.102 290.776 571.017 290.757 570.941 290.72C570.865 290.684 570.8 290.631 570.752 290.566C570.705 290.502 570.675 290.428 570.667 290.35C570.659 290.273 570.672 290.195 570.705 290.124L587.192 255.234C587.249 255.124 587.352 255.038 587.478 254.994C587.605 254.95 587.745 254.953 587.87 255C587.994 255.048 588.094 255.137 588.147 255.249C588.2 255.361 588.202 255.487 588.154 255.601L571.667 290.491C571.627 290.575 571.56 290.647 571.475 290.698C571.39 290.748 571.291 290.775 571.189 290.776Z" fill="#292A2E"/>
<path d="M541.357 298.86C541.314 298.86 541.271 298.855 541.23 298.846C541.095 298.816 540.98 298.738 540.909 298.632C540.837 298.525 540.816 298.397 540.849 298.276L560.007 229.41C560.024 229.35 560.053 229.294 560.094 229.244C560.135 229.195 560.186 229.153 560.245 229.121C560.304 229.09 560.369 229.069 560.437 229.06C560.505 229.05 560.574 229.054 560.641 229.069C560.707 229.083 560.77 229.11 560.825 229.147C560.88 229.184 560.927 229.23 560.962 229.283C560.997 229.335 561.02 229.394 561.031 229.455C561.041 229.516 561.037 229.578 561.021 229.638L541.864 298.504C541.836 298.606 541.77 298.696 541.678 298.76C541.587 298.825 541.474 298.86 541.357 298.86Z" fill="#292A2E"/>
<path d="M548.151 243.521C542.953 233.703 546.345 222.493 555.727 218.482C565.109 214.472 576.927 219.181 582.125 228.999C587.323 238.818 583.931 250.028 574.549 254.038C565.167 258.048 553.349 253.34 548.151 243.521Z" fill="#0CBC8B"/>
<path opacity="0.4" d="M548.151 243.521C542.953 233.703 546.345 222.493 555.727 218.482C565.109 214.472 576.927 219.181 582.125 228.999C587.323 238.818 583.931 250.028 574.549 254.038C565.167 258.048 553.349 253.34 548.151 243.521Z" fill="white"/>
<path d="M580.394 266.19C577.683 260.141 580.058 253.582 585.699 251.541C591.34 249.499 598.11 252.748 600.822 258.797C603.533 264.846 601.158 271.404 595.517 273.446C589.876 275.487 583.105 272.238 580.394 266.19Z" fill="#0CBC8B"/>
<path d="M513.924 258.427C505.545 256.144 501.28 246.801 504.399 237.56C507.519 228.319 516.84 222.679 525.219 224.963C533.598 227.247 537.863 236.59 534.744 245.83C531.624 255.071 522.303 260.711 513.924 258.427Z" fill="#0CBC8B"/>
<path d="M499.512 278.094C494.834 277.39 491.936 272.023 493.039 266.107C494.142 260.191 498.827 255.966 503.505 256.67C508.182 257.374 511.08 262.74 509.978 268.656C508.875 274.572 504.189 278.798 499.512 278.094Z" fill="#0CBC8B"/>
<path d="M586.565 299.505H505.189V281.282H586.565V299.505Z" fill="#292A2E"/>
<path opacity="0.3" d="M586.565 299.505H505.189V281.282H586.565V299.505Z" fill="white"/>
<path d="M547.996 276.704C544.689 269.325 547.612 261.315 554.525 258.813C561.438 256.311 569.723 260.265 573.031 267.644C576.338 275.023 573.415 283.033 566.502 285.535C559.589 288.037 551.303 284.083 547.996 276.704Z" fill="#0CBC8B"/>
<path d="M529.934 283.706C523.049 283.706 517.467 278.69 517.467 272.503C517.467 266.316 523.049 261.3 529.934 261.3C536.82 261.3 542.401 266.316 542.401 272.503C542.401 278.69 536.82 283.706 529.934 283.706Z" fill="#0CBC8B"/>
<path opacity="0.68" d="M580.394 266.19C577.683 260.141 580.058 253.582 585.699 251.541C591.34 249.499 598.11 252.748 600.822 258.797C603.533 264.846 601.158 271.404 595.517 273.446C589.876 275.487 583.105 272.238 580.394 266.19Z" fill="white"/>
<path opacity="0.68" d="M513.924 258.427C505.545 256.144 501.28 246.801 504.399 237.56C507.519 228.319 516.84 222.679 525.219 224.963C533.598 227.247 537.863 236.59 534.744 245.83C531.624 255.071 522.303 260.711 513.924 258.427Z" fill="white"/>
<path opacity="0.68" d="M499.512 278.094C494.834 277.39 491.936 272.023 493.039 266.107C494.142 260.191 498.827 255.966 503.505 256.67C508.182 257.374 511.08 262.74 509.978 268.656C508.875 274.572 504.189 278.798 499.512 278.094Z" fill="white"/>
<path opacity="0.68" d="M547.996 276.704C544.689 269.325 547.612 261.315 554.525 258.813C561.438 256.311 569.723 260.265 573.031 267.644C576.338 275.023 573.415 283.033 566.502 285.535C559.589 288.037 551.303 284.083 547.996 276.704Z" fill="white"/>
<path opacity="0.4" d="M529.934 283.706C523.049 283.706 517.467 278.69 517.467 272.503C517.467 266.316 523.049 261.3 529.934 261.3C536.82 261.3 542.401 266.316 542.401 272.503C542.401 278.69 536.82 283.706 529.934 283.706Z" fill="white"/>
<path d="M569.979 263.072C560.516 265.448 555.536 258.499 555.536 258.499L555.542 258.489C560.589 257.137 566.186 259.038 569.979 263.072Z" fill="#292A2E"/>
<path d="M510.208 265.917C505.55 264.314 501.69 261.257 499.335 257.305C500.611 256.693 502.075 256.471 503.505 256.672C507.444 257.263 510.119 261.165 510.208 265.917Z" fill="#292A2E"/>
<path d="M532.159 261.48C528.53 264.417 523.996 266.298 519.154 266.875C520.444 264.885 522.384 263.3 524.71 262.335C527.037 261.37 529.637 261.072 532.159 261.48Z" fill="#292A2E"/>
<path d="M170.146 87.3077C160.004 87.3077 151.783 79.9197 151.783 70.8062C151.783 61.6926 160.004 54.3046 170.146 54.3046C180.288 54.3046 188.51 61.6926 188.51 70.8062C188.51 79.9197 180.288 87.3077 170.146 87.3077Z" fill="#367CFF"/>
<path d="M178.753 69.2428C179.225 69.243 179.687 69.1188 180.082 68.8856C180.477 68.6525 180.787 68.3205 180.974 67.9307C181.305 67.2407 188.992 50.7551 180.643 26.5712C171.598 0.375088 140.096 0.0702515 139.779 0.0702515C139.138 0.0702515 138.523 0.299107 138.07 0.706475C137.616 1.11384 137.362 1.66635 137.362 2.24246C137.362 2.81856 137.616 3.37108 138.07 3.77844C138.523 4.18581 139.138 4.41467 139.779 4.41467C140.93 4.41467 168.052 4.75571 176.028 27.8571C183.854 50.5205 176.612 66.054 176.538 66.2082C176.379 66.5386 176.314 66.8992 176.349 67.2577C176.384 67.6162 176.517 67.9614 176.737 68.2621C176.957 68.5629 177.257 68.8098 177.609 68.9807C177.962 69.1516 178.356 69.2412 178.756 69.2413L178.753 69.2428Z" fill="#367CFF"/>
<path d="M176.795 87.3077C166.653 87.3077 158.431 79.9197 158.431 70.8062C158.431 61.6926 166.653 54.3046 176.795 54.3046C186.937 54.3046 195.159 61.6926 195.159 70.8062C195.159 79.9197 186.937 87.3077 176.795 87.3077Z" fill="#367CFF"/>
<path opacity="0.3" d="M176.795 87.3077C166.653 87.3077 158.431 79.9197 158.431 70.8062C158.431 61.6926 166.653 54.3046 176.795 54.3046C186.937 54.3046 195.159 61.6926 195.159 70.8062C195.159 79.9197 186.937 87.3077 176.795 87.3077Z" fill="white"/>
<path d="M172.389 87.3077C162.247 87.3077 154.025 79.9197 154.025 70.8062C154.025 61.6926 162.247 54.3046 172.389 54.3046C182.531 54.3046 190.753 61.6926 190.753 70.8062C190.753 79.9197 182.531 87.3077 172.389 87.3077Z" fill="#367CFF"/>
<path d="M85.7666 41.115C85.7666 41.115 79.8675 66.519 72.821 74.205C52.5354 96.3311 43.6315 122.909 58.188 139.121C72.7444 155.333 174.15 168.427 187.113 136.764C198.025 110.107 186.319 105.387 186.177 82.2892C186.112 71.838 184.502 49.7951 184.502 49.7951" fill="#0A0A0A"/>
<path d="M170.518 123.324C170.333 123.302 168.275 153.973 128.623 151.3C101.172 149.452 91.3837 123.278 90.7512 123.278C93.7108 122.713 98.6946 121.891 100.01 121.261C104.332 119.173 109.679 117.002 111.074 109.458C111.88 105.114 110.515 82.8692 110.934 78.4683L153.074 86.924C152.486 96.2138 148.365 117.751 162.808 121.563C165.212 122.193 167.8 122.773 170.518 123.324Z" fill="#E98862"/>
<path opacity="0.5" d="M153.663 112.761C153.002 110.85 152.577 108.879 152.395 106.884C151.931 102.333 152.024 97.7495 152.67 93.2161C144.106 92.1767 136.038 89.0002 129.383 84.0472C128.6 86.6437 124.298 97.9899 125.488 100.457C127.742 105.123 138.325 112.761 153.663 112.761Z" fill="#0C0C0C"/>
<path d="M146.164 106.023C129.484 105.46 109.071 96.961 107.615 76.7239L106.3 58.4644C104.843 38.2281 115.492 21.1357 136.696 19.9033C157.9 18.6724 174.93 34.1552 176.386 54.3922L176.967 62.4757C177.527 70.2406 175.922 107.029 146.164 106.023Z" fill="#E98862"/>
<path opacity="0.1" d="M139.576 78.9408C136.823 78.9031 134.616 77.4015 134.647 75.587C134.678 73.7725 136.935 72.3322 139.688 72.3699C142.441 72.4077 144.647 73.9093 144.617 75.7238C144.586 77.5383 142.329 78.9786 139.576 78.9408Z" fill="#0C0C0C"/>
<path opacity="0.1" d="M169.274 75.2672C169.249 77.0774 171.455 78.5798 174.208 78.6211C174.684 78.6275 175.16 78.5894 175.627 78.5074C176.071 76.3967 176.386 74.3519 176.601 72.4498C175.874 72.1897 175.099 72.0539 174.316 72.0494C171.563 72.0089 169.308 73.4498 169.274 75.2672Z" fill="#0C0C0C"/>
<path d="M170.026 61.6365C168.585 61.6365 167.417 60.5872 167.417 59.2927C167.417 57.9983 168.585 56.9489 170.026 56.9489C171.466 56.9489 172.634 57.9983 172.634 59.2927C172.634 60.5872 171.466 61.6365 170.026 61.6365Z" fill="#0C0C0C"/>
<path d="M144.216 63.3693C142.776 63.3693 141.608 62.3199 141.608 61.0255C141.608 59.731 142.776 58.6816 144.216 58.6816C145.657 58.6816 146.825 59.731 146.825 61.0255C146.825 62.3199 145.657 63.3693 144.216 63.3693Z" fill="#0C0C0C"/>
<path opacity="0.5" d="M156.474 79.3284H156.516C157.375 79.2723 158.231 79.1742 159.078 79.0345C160.345 78.8173 162.021 78.4103 161.948 77.3988C161.868 76.2461 157.455 64.0093 156.953 62.6177C156.933 62.5552 156.899 62.497 156.854 62.4465C156.809 62.396 156.753 62.3542 156.689 62.3237C156.625 62.2931 156.555 62.2744 156.484 62.2687C156.412 62.263 156.339 62.2704 156.271 62.2904C156.202 62.3104 156.138 62.3427 156.084 62.3853C156.029 62.4279 155.985 62.4799 155.954 62.5382C155.922 62.5966 155.904 62.66 155.9 62.7248C155.897 62.7896 155.908 62.8543 155.932 62.9152C157.815 68.1285 160.823 76.6849 160.878 77.4611C160.693 77.797 158.579 78.2423 156.446 78.3662C156.308 78.3753 156.18 78.4316 156.088 78.5235C155.995 78.6153 155.945 78.7356 155.949 78.8594C155.953 78.9832 156.009 79.101 156.106 79.1885C156.204 79.276 156.335 79.3263 156.473 79.3292L156.474 79.3284Z" fill="#0C0C0C"/>
<path opacity="0.5" d="M152.236 87.527C155.67 87.5077 159.051 86.7636 162.106 85.3548C162.233 85.2986 162.331 85.1992 162.377 85.0784C162.423 84.9575 162.414 84.8251 162.351 84.7104C162.289 84.5957 162.178 84.5079 162.044 84.4665C161.909 84.4251 161.762 84.4334 161.634 84.4896C155.045 87.3858 148.903 87.2932 143.877 84.2217C143.776 84.1565 143.671 84.0963 143.562 84.0414C143.436 83.9897 143.293 83.984 143.162 84.0253C143.031 84.0665 142.923 84.1517 142.861 84.2628C142.798 84.374 142.786 84.5025 142.827 84.6216C142.867 84.7407 142.958 84.841 143.079 84.9016C143.119 84.9218 143.184 84.9624 143.275 85.0189C145.918 86.6376 149.038 87.5109 152.236 87.527Z" fill="#0C0C0C"/>
<path d="M89.1316 62.832L108.126 61.8262C122.895 58.2667 130.147 36.8538 130.147 36.8538C130.147 36.8538 141.962 53.7094 184.537 49.7777C184.537 49.7777 186.611 -3.78024 123.321 5.28872C102.968 8.20455 86.3235 24.2695 84.8175 48.3375C83.7627 65.2047 89.1316 62.832 89.1316 62.832Z" fill="#0A0A0A"/>
<path d="M109.375 82.8134C102.929 83.1878 97.2611 77.296 96.8445 71.5056C96.4279 65.7152 101.422 62.2187 107.866 61.8444L111.465 65.5313L114.915 82.4912L109.375 82.8134Z" fill="#E98862"/>
<path d="M162.777 53.9918C164.496 53.1846 166.423 52.8008 168.361 52.8796C169.335 52.9135 170.298 53.0793 171.217 53.3713C172.145 53.6617 173.029 54.0555 173.847 54.5435L173.873 54.558C173.965 54.6082 174.074 54.6244 174.178 54.603C174.283 54.5816 174.374 54.5244 174.432 54.4436C174.49 54.3627 174.511 54.2647 174.489 54.1704C174.468 54.0761 174.407 53.993 174.318 53.9389C173.456 53.3864 172.52 52.9334 171.532 52.5907C170.538 52.2417 169.491 52.0288 168.426 51.9593C166.27 51.8069 164.108 52.1769 162.166 53.0309C162.02 53.0965 161.909 53.2116 161.857 53.3507C161.805 53.4899 161.817 53.6419 161.89 53.7731C161.963 53.9044 162.091 54.0042 162.246 54.0506C162.401 54.0971 162.57 54.0863 162.716 54.0207L162.732 54.0135L162.777 53.9918Z" fill="#0C0C0C"/>
<path d="M145.556 54.0447C143.51 53.4147 141.315 53.2896 139.197 53.6826C138.15 53.8704 137.141 54.1985 136.202 54.6558C135.269 55.106 134.403 55.6602 133.624 56.3052C133.542 56.3685 133.491 56.4581 133.483 56.5546C133.474 56.6511 133.508 56.7468 133.577 56.821C133.647 56.8952 133.746 56.942 133.853 56.9511C133.96 56.9603 134.067 56.9312 134.151 56.87L134.175 56.8526C134.919 56.2767 135.741 55.787 136.621 55.3951C137.493 55.003 138.426 54.7311 139.388 54.5884C141.3 54.2932 143.265 54.4584 145.083 55.0671L145.128 55.083C145.28 55.1363 145.449 55.1331 145.599 55.0741C145.748 55.0151 145.866 54.9051 145.925 54.7684C145.984 54.6316 145.981 54.4793 145.915 54.345C145.85 54.2106 145.727 54.1052 145.575 54.0519L145.556 54.0447Z" fill="#0C0C0C"/>
<path opacity="0.52" d="M152.339 92.0967C152.96 92.1014 153.58 92.059 154.193 91.97C154.333 91.9499 154.459 91.8805 154.542 91.7771C154.626 91.6737 154.66 91.5447 154.638 91.4186C154.616 91.2924 154.538 91.1794 154.423 91.1044C154.308 91.0293 154.165 90.9985 154.024 91.0185C150.336 91.5457 148.478 90.1011 148.401 90.0396C148.295 89.9539 148.156 89.9094 148.014 89.9159C147.872 89.9223 147.739 89.9792 147.644 90.074C147.548 90.1687 147.499 90.2937 147.506 90.4212C147.513 90.5488 147.577 90.6686 147.682 90.7542C149.015 91.672 150.661 92.1464 152.339 92.0967Z" fill="#0C0C0C"/>
<path d="M107.919 61.575C120.984 58.9227 126.272 51.7016 128.405 46.1103C129.803 42.3786 130.317 38.4258 129.917 34.5049L129.514 34.5535C129.908 38.4231 129.398 42.324 128.016 46.0061C125.913 51.5046 120.704 58.6049 107.827 61.2224L107.919 61.575Z" fill="#0C0C0C"/>
<path d="M296.571 112.033L303.079 87.9311C303.222 87.4016 303.486 86.9047 303.854 86.4719C304.223 86.0392 304.688 85.6802 305.219 85.4177C305.751 85.1553 306.337 84.9952 306.941 84.9476C307.545 84.9 308.154 84.966 308.728 85.1413C309.777 85.4944 310.642 86.1848 311.157 87.0787C311.671 87.9726 311.798 89.0064 311.513 89.9795L310.117 95.1472L322.807 80.7057C324.186 79.0787 327.038 77.8738 328.968 79.3849C329.753 79.9228 330.312 80.6838 330.553 81.5438C330.795 82.4038 330.705 83.3121 330.299 84.1204C330.319 84.1282 330.338 84.1379 330.356 84.1493C330.368 84.1599 330.379 84.1715 330.389 84.1841L332.517 81.6737C332.911 81.2091 333.416 80.8293 333.994 80.5621C334.573 80.2949 335.21 80.1471 335.86 80.1293C336.51 80.1115 337.157 80.2243 337.752 80.4594C338.347 80.6946 338.877 81.0461 339.302 81.4884C339.955 82.197 340.319 83.0858 340.33 84.0062C340.342 84.9266 340.002 85.8227 339.366 86.5445L338.46 87.6133C338.483 87.651 338.498 87.6919 338.504 87.7342C339.302 87.1401 340.309 86.8205 341.345 86.8324C342.381 86.8444 343.379 87.1871 344.16 87.7994C344.992 88.4918 345.503 89.4407 345.591 90.4569C345.679 91.473 345.337 92.4815 344.634 93.2813L342.385 95.935C342.447 95.9174 342.512 95.9132 342.575 95.9228C342.638 95.9324 342.698 95.9554 342.75 95.99C342.808 96.0342 342.851 96.0925 342.874 96.158C343.747 95.8068 344.725 95.7229 345.656 95.9191C346.588 96.1153 347.422 96.5808 348.031 97.2441C348.654 97.954 348.993 98.8321 348.991 99.7363C348.99 100.641 348.649 101.518 348.024 102.226L329.051 124.61C326.396 127.742 322.761 130.089 318.612 131.352C314.464 132.615 309.989 132.736 305.763 131.7C302.12 130.806 299.008 128.67 297.088 125.747C295.168 122.824 294.593 119.344 295.483 116.045L296.571 112.033Z" fill="#E98862"/>
<g opacity="0.2">
<path d="M317.817 98.4714C317.901 98.5281 318.007 98.553 318.111 98.5407C318.216 98.5284 318.311 98.4799 318.376 98.4055L330.424 84.6583C330.49 84.5829 330.52 84.4869 330.507 84.3915C330.495 84.2961 330.44 84.2091 330.356 84.1497C330.272 84.0902 330.166 84.0632 330.059 84.0746C329.953 84.0859 329.856 84.1346 329.79 84.2101L317.742 97.958C317.677 98.0334 317.647 98.129 317.66 98.224C317.672 98.319 317.726 98.4056 317.81 98.4649L317.817 98.4714Z" fill="#0C0C0C"/>
</g>
<g opacity="0.2">
<path d="M324.418 103.413C324.502 103.47 324.608 103.495 324.712 103.483C324.816 103.471 324.911 103.422 324.977 103.348L338.422 88.0035C338.487 87.9282 338.517 87.8327 338.505 87.7377C338.492 87.6427 338.438 87.5561 338.355 87.4967C338.27 87.4409 338.164 87.4163 338.06 87.4275C337.955 87.4388 337.859 87.4852 337.791 87.5575L324.346 102.9C324.28 102.975 324.25 103.071 324.263 103.166C324.275 103.261 324.329 103.347 324.412 103.407L324.418 103.413Z" fill="#0C0C0C"/>
</g>
<g opacity="0.2">
<path d="M331.532 108.803C331.617 108.86 331.722 108.885 331.827 108.872C331.931 108.86 332.026 108.812 332.091 108.737L342.817 96.5004C342.85 96.4632 342.875 96.4202 342.891 96.3741C342.906 96.328 342.91 96.2797 342.904 96.2319C342.899 96.1842 342.882 96.138 342.856 96.096C342.83 96.054 342.795 96.0171 342.753 95.9874C342.711 95.9577 342.663 95.9358 342.611 95.923C342.56 95.9102 342.506 95.9067 342.453 95.9128C342.4 95.919 342.349 95.9345 342.302 95.9586C342.256 95.9826 342.216 96.0147 342.183 96.053L331.457 108.29C331.392 108.365 331.362 108.461 331.375 108.556C331.388 108.651 331.442 108.737 331.525 108.797L331.532 108.803Z" fill="#0C0C0C"/>
</g>
<path d="M213.709 132.723L266.273 188.187L288.411 110.76L344.937 124.254L308.153 244.701C306.954 248.575 304.762 252.142 301.752 255.117C299.249 257.576 296.231 259.567 292.871 260.977C289.511 262.387 285.875 263.188 282.17 263.336C278.465 263.483 274.765 262.973 271.279 261.836C267.794 260.698 264.592 258.954 261.856 256.704L261.381 256.313L167.417 175.154L213.709 132.723Z" fill="#367CFF"/>
<path d="M296.571 112.032L303.079 87.9311C303.222 87.4016 303.486 86.9046 303.854 86.4719C304.223 86.0392 304.688 85.6802 305.219 85.4177C305.751 85.1553 306.337 84.9951 306.941 84.9476C307.545 84.9 308.154 84.9659 308.728 85.1413C309.777 85.4943 310.642 86.1848 311.157 87.0787C311.671 87.9726 311.798 89.0063 311.513 89.9795L310.117 95.1472L308.271 104.324" fill="#E98862"/>
<path d="M127.882 143.632C100.412 142.469 99.2562 121.517 99.2562 121.517C99.2562 121.517 85.6441 122.307 76.596 123.408C61.7825 125.208 52.01 129.722 44.2334 136.71C36.9983 143.212 32.5947 150.245 37.2553 195.151C40.63 227.661 38.2545 299.184 38.2545 299.184H204.044C204.044 299.184 213.987 205.443 215.372 190.806C218.017 162.865 228.848 147.116 213.709 132.723C202.731 122.285 174.386 121.517 162.978 121.519C162.793 121.519 165.293 145.217 127.882 143.632Z" fill="#367CFF"/>
<path d="M214.407 186.134C214.411 186.086 214.424 186.04 214.448 185.997C214.471 185.954 214.503 185.916 214.543 185.884C214.583 185.853 214.629 185.829 214.679 185.813C214.73 185.798 214.783 185.792 214.836 185.795C214.888 185.798 214.94 185.81 214.988 185.831C215.035 185.852 215.078 185.881 215.113 185.917C215.148 185.952 215.175 185.994 215.192 186.039C215.209 186.084 215.216 186.132 215.213 186.179L213.528 214.464C213.522 214.551 213.481 214.633 213.413 214.695C213.345 214.757 213.254 214.795 213.157 214.802C213.139 214.803 213.12 214.803 213.101 214.802C212.994 214.796 212.895 214.752 212.824 214.68C212.753 214.608 212.717 214.514 212.724 214.418" fill="#0C0C0C"/>
<path d="M177.88 256.769L204.698 250.913C205.288 250.785 205.9 250.768 206.497 250.864C207.094 250.96 207.662 251.166 208.165 251.47C208.669 251.774 209.096 252.169 209.42 252.629C209.744 253.09 209.958 253.606 210.048 254.145C210.18 255.144 209.894 256.152 209.246 256.973C208.598 257.794 207.634 258.369 206.54 258.587L200.79 259.843L220.891 263.354C223.133 263.709 225.632 265.434 225.023 267.668C224.851 268.542 224.354 269.338 223.613 269.926C222.873 270.514 221.932 270.858 220.945 270.903C220.948 270.923 220.948 270.943 220.945 270.963C220.94 270.977 220.933 270.991 220.926 271.005L224.384 271.552C225.024 271.654 225.631 271.883 226.161 272.222C226.69 272.562 227.129 273.003 227.445 273.514C227.76 274.025 227.945 274.593 227.986 275.176C228.026 275.759 227.921 276.343 227.678 276.886C227.278 277.733 226.565 278.43 225.66 278.862C224.755 279.293 223.713 279.432 222.708 279.256L221.236 279.023C221.209 279.058 221.175 279.088 221.136 279.113C222.09 279.478 222.868 280.135 223.331 280.968C223.794 281.801 223.913 282.754 223.666 283.659C223.363 284.641 222.659 285.486 221.694 286.022C220.73 286.559 219.575 286.749 218.461 286.555L214.806 285.976C214.851 286.017 214.885 286.067 214.905 286.122C214.924 286.177 214.929 286.235 214.919 286.292C214.902 286.359 214.864 286.42 214.809 286.468C215.558 287.005 216.089 287.748 216.322 288.583C216.555 289.417 216.477 290.298 216.099 291.088C215.682 291.912 214.969 292.585 214.074 292.998C213.18 293.412 212.155 293.543 211.168 293.368L180.331 288.482C176.017 287.798 172.028 285.972 168.876 283.238C165.725 280.505 163.553 276.987 162.641 273.137C161.854 269.817 162.538 266.353 164.549 263.479C166.559 260.606 169.737 258.55 173.407 257.749L177.88 256.769Z" fill="#E98862"/>
<g opacity="0.2">
<path d="M201.034 267.515C201.017 267.609 201.041 267.705 201.101 267.783C201.161 267.861 201.253 267.914 201.357 267.932L220.477 271.248C220.582 271.266 220.691 271.246 220.779 271.193C220.868 271.139 220.929 271.056 220.949 270.961C220.97 270.867 220.947 270.769 220.888 270.69C220.828 270.61 220.735 270.555 220.63 270.537L201.51 267.22C201.458 267.211 201.404 267.211 201.352 267.221C201.3 267.231 201.251 267.25 201.207 267.277C201.163 267.304 201.125 267.338 201.096 267.378C201.067 267.418 201.047 267.463 201.038 267.51L201.034 267.515Z" fill="#0C0C0C"/>
</g>
<g opacity="0.2">
<path d="M199.174 275.053C199.156 275.147 199.18 275.242 199.241 275.32C199.301 275.398 199.393 275.451 199.496 275.469L220.835 279.17C220.887 279.179 220.941 279.179 220.993 279.169C221.045 279.159 221.094 279.141 221.138 279.114C221.182 279.087 221.22 279.052 221.249 279.012C221.278 278.972 221.297 278.927 221.307 278.881C221.324 278.786 221.299 278.69 221.239 278.611C221.18 278.533 221.088 278.477 220.985 278.457L199.647 274.756C199.595 274.747 199.541 274.747 199.489 274.757C199.437 274.766 199.388 274.785 199.344 274.812C199.3 274.839 199.262 274.873 199.233 274.913C199.204 274.953 199.184 274.998 199.175 275.045L199.174 275.053Z" fill="#0C0C0C"/>
</g>
<g opacity="0.2">
<path d="M197.106 283.206C197.089 283.299 197.113 283.395 197.173 283.473C197.233 283.551 197.325 283.604 197.429 283.622L214.45 286.574C214.555 286.593 214.664 286.573 214.752 286.519C214.84 286.465 214.902 286.382 214.922 286.287C214.942 286.193 214.92 286.095 214.86 286.016C214.8 285.936 214.707 285.882 214.602 285.863L197.581 282.911C197.529 282.902 197.475 282.902 197.423 282.912C197.371 282.921 197.322 282.94 197.278 282.967C197.234 282.994 197.196 283.029 197.167 283.069C197.138 283.109 197.118 283.153 197.109 283.2L197.106 283.206Z" fill="#0C0C0C"/>
</g>
<path d="M180.551 297.958L36.4471 298.664C31.8058 299.117 27.1107 298.599 22.7299 297.148C18.3492 295.698 14.4021 293.355 11.1983 290.303C7.99454 287.251 5.62125 283.574 4.26466 279.56C2.90808 275.546 2.6051 271.304 3.3795 267.167L35.4827 151.605C36.1407 148.089 37.5631 144.723 39.6687 141.7C41.7742 138.678 44.5217 136.058 47.7542 133.989C50.9867 131.921 54.6409 130.445 58.5083 129.645C62.3756 128.846 66.3802 128.739 70.2936 129.33C74.207 129.921 77.9524 131.2 81.316 133.092C84.6797 134.984 87.5957 137.453 89.8975 140.357C92.1994 143.262 93.842 146.546 94.7316 150.021C95.6212 153.496 95.7403 157.095 95.0822 160.611L70.4616 247.67L179.85 250.895L180.551 297.958Z" fill="#367CFF"/>
<path d="M51.6224 247.299C51.5212 247.298 51.4239 247.263 51.3499 247.201C51.276 247.139 51.2307 247.054 51.2232 246.964C51.2157 246.873 51.2464 246.783 51.3094 246.712C51.3723 246.64 51.4628 246.593 51.5628 246.579L70.2255 247.188C70.2779 247.18 70.3315 247.182 70.3831 247.193C70.4348 247.205 70.4833 247.225 70.5261 247.253C70.5688 247.282 70.6048 247.317 70.6319 247.358C70.659 247.399 70.6767 247.445 70.684 247.492C70.6997 247.587 70.6727 247.684 70.6091 247.761C70.5455 247.838 70.4505 247.889 70.3448 247.903L51.6821 247.294C51.6624 247.297 51.6424 247.299 51.6224 247.299Z" fill="#0C0C0C"/>
<path d="M40.6381 299.184C40.5312 299.19 40.426 299.158 40.3456 299.095C40.2652 299.031 40.2162 298.941 40.2094 298.845C40.2025 298.749 40.2384 298.655 40.3091 298.583C40.3799 298.51 40.4796 298.466 40.5865 298.46L179.708 297.68L179.098 251.34L70.3561 247.906C70.2937 247.913 70.2303 247.907 70.1709 247.888C70.1115 247.869 70.0577 247.839 70.0136 247.798C69.9697 247.758 69.937 247.708 69.9182 247.654C69.8995 247.6 69.8951 247.542 69.9056 247.486L81.7635 195.158C81.7717 195.111 81.7903 195.066 81.8182 195.025C81.8461 194.984 81.8828 194.949 81.926 194.922C81.9693 194.894 82.0182 194.874 82.07 194.864C82.1218 194.854 82.1754 194.852 82.2276 194.861C82.2799 194.869 82.3299 194.886 82.3748 194.911C82.4198 194.936 82.4587 194.969 82.4895 195.008C82.5202 195.047 82.5422 195.09 82.5541 195.137C82.566 195.183 82.5676 195.231 82.5588 195.278L70.7904 247.121L179.401 250.571C179.454 250.565 179.508 250.568 179.56 250.581C179.612 250.593 179.661 250.615 179.703 250.645C179.745 250.675 179.78 250.712 179.807 250.755C179.833 250.797 179.849 250.844 179.855 250.892L180.552 297.956C180.563 298.05 180.533 298.144 180.468 298.219C180.403 298.293 180.308 298.341 180.203 298.354L40.692 299.181C40.6741 299.183 40.6561 299.184 40.6381 299.184Z" fill="#0C0C0C"/>
<path d="M98.4198 68.3299C99.0609 68.3299 99.6758 68.101 100.129 67.6937C100.582 67.2863 100.837 66.7338 100.837 66.1577L100.837 41.4133C100.837 28.8218 104.715 18.8448 112.053 12.5613C119.008 6.60515 128.989 3.866 141.71 4.41412C142.348 4.43865 142.971 4.2351 143.443 3.84797C143.915 3.46084 144.197 2.92161 144.227 2.34815C144.258 1.7747 144.035 1.21366 143.607 0.787664C143.178 0.361665 142.58 0.105355 141.942 0.0747642C127.847 -0.537074 116.668 2.60901 108.718 9.41527C100.399 16.5394 96.0025 27.6039 96.0025 41.4126L96.0025 66.157C96.0024 66.4423 96.0648 66.7248 96.1863 66.9884C96.3077 67.2521 96.4857 67.4916 96.7102 67.6934C96.9347 67.8952 97.2012 68.0553 97.4945 68.1645C97.7879 68.2737 98.1023 68.3299 98.4198 68.3299Z" fill="#367CFF"/>
<path d="M102.032 87.3077C91.8901 87.3077 83.6684 79.9197 83.6684 70.8062C83.6684 61.6926 91.8901 54.3046 102.032 54.3046C112.174 54.3046 120.396 61.6926 120.396 70.8062C120.396 79.9197 112.174 87.3077 102.032 87.3077Z" fill="#367CFF"/>
<path d="M101.323 83.1675C101.452 83.0832 101.598 83.0227 101.753 82.9894C101.907 82.956 102.068 82.9504 102.225 82.973C102.383 82.9957 102.533 83.046 102.669 83.1211C102.804 83.1962 102.922 83.2946 103.015 83.4107L104.42 85.155C106.143 87.2873 108.401 89.0235 111.013 90.2218C113.624 91.4202 116.513 92.0467 119.445 92.0503H141.798V91.6239C141.798 91.0478 142.053 90.4952 142.506 90.0879C142.96 89.6805 143.574 89.4517 144.216 89.4517H151.783C152.424 89.4517 153.039 89.6805 153.492 90.0879C153.945 90.4952 154.2 91.0478 154.2 91.6239V94.8033C154.2 95.3794 153.945 95.9319 153.492 96.3393C153.039 96.7466 152.424 96.9755 151.783 96.9755H144.216C143.574 96.9755 142.96 96.7466 142.506 96.3393C142.053 95.9319 141.798 95.3794 141.798 94.8033V94.2204H119.441C116.127 94.2162 112.861 93.508 109.909 92.1535C106.958 90.799 104.404 88.8366 102.458 86.4265L101.052 84.6822C100.865 84.449 100.788 84.1585 100.839 83.8745C100.89 83.5906 101.064 83.3363 101.323 83.1675Z" fill="#367CFF"/>
<path d="M97.6261 87.3077C87.4841 87.3077 79.2623 79.9197 79.2623 70.8062C79.2623 61.6926 87.4841 54.3046 97.6261 54.3046C107.768 54.3046 115.99 61.6926 115.99 70.8062C115.99 79.9197 107.768 87.3077 97.6261 87.3077Z" fill="#367CFF"/>
<path opacity="0.3" d="M97.6261 87.3077C87.4841 87.3077 79.2623 79.9197 79.2623 70.8062C79.2623 61.6926 87.4841 54.3046 97.6261 54.3046C107.768 54.3046 115.99 61.6926 115.99 70.8062C115.99 79.9197 107.768 87.3077 97.6261 87.3077Z" fill="white"/>
<path d="M309.667 262.538H494.295C497.641 262.538 500.849 261.344 503.214 259.219C505.579 257.093 506.908 254.21 506.908 251.204L524.088 129.259C524.088 127.77 523.762 126.297 523.129 124.922C522.495 123.547 521.566 122.297 520.395 121.245C519.223 120.192 517.833 119.358 516.303 118.788C514.773 118.219 513.133 117.926 511.476 117.926L326.848 117.926C325.192 117.926 323.552 118.219 322.022 118.788C320.491 119.358 319.101 120.192 317.93 121.245C316.759 122.297 315.829 123.547 315.196 124.922C314.562 126.297 314.235 127.77 314.235 129.259L297.055 251.204C297.055 252.693 297.381 254.167 298.015 255.542C298.649 256.917 299.578 258.166 300.749 259.219C301.92 260.271 303.311 261.106 304.841 261.675C306.371 262.245 308.011 262.538 309.667 262.538Z" fill="#292A2E"/>
<path d="M408.531 299.184H451.632C452.637 299.184 453.629 298.97 454.525 298.56C455.422 298.15 456.197 297.556 456.789 296.825C457.381 296.094 457.772 295.248 457.93 294.355C458.088 293.463 458.01 292.549 457.7 291.689L431.852 219.888C431.437 218.736 430.627 217.731 429.536 217.018C428.446 216.305 427.133 215.921 425.785 215.921H386.936C386.234 215.921 385.54 216.064 384.908 216.34C384.275 216.615 383.721 217.016 383.287 217.513C382.852 218.009 382.549 218.587 382.399 219.204C382.25 219.821 382.258 220.461 382.424 221.074L402.327 294.804C402.664 296.054 403.46 297.165 404.585 297.96C405.71 298.754 407.1 299.185 408.531 299.184Z" fill="#292A2E"/>
<path d="M371.054 292.685H447.895C449.893 292.685 451.512 294.14 451.512 295.934C451.512 297.729 449.893 299.184 447.895 299.184H371.054C369.057 299.184 367.438 297.729 367.438 295.934C367.438 294.14 369.057 292.685 371.054 292.685Z" fill="#292A2E"/>
<path opacity="0.2" d="M371.054 292.685H401.755L382.416 221.074C382.25 220.461 382.242 219.821 382.392 219.204C382.541 218.587 382.844 218.009 383.279 217.513C383.714 217.017 384.268 216.616 384.9 216.34C385.532 216.064 386.226 215.921 386.928 215.921H425.785C427.133 215.921 428.446 216.305 429.536 217.018C430.627 217.731 431.437 218.736 431.852 219.888L457.7 291.689C458.01 292.549 458.088 293.463 457.93 294.355C457.772 295.248 457.381 296.094 456.789 296.825C456.198 297.555 455.422 298.15 454.526 298.56C453.63 298.97 452.638 299.184 451.632 299.184H371.054C370.095 299.184 369.175 298.842 368.497 298.232C367.819 297.623 367.438 296.796 367.438 295.935C367.438 295.073 367.819 294.246 368.497 293.637C369.175 293.027 370.095 292.685 371.054 292.685Z" fill="white"/>
<path d="M411.317 244.612C405.163 244.612 400.174 240.13 400.174 234.6C400.174 229.07 405.163 224.588 411.317 224.588C417.471 224.588 422.459 229.07 422.459 234.6C422.459 240.13 417.471 244.612 411.317 244.612Z" fill="#292A2E"/>
<path d="M323.471 292.685H319.17C319.057 292.166 318.746 291.698 318.292 291.361C317.837 291.025 317.267 290.841 316.678 290.841H313.257C312.668 290.841 312.098 291.025 311.643 291.361C311.188 291.698 310.878 292.166 310.765 292.685H308.088C307.975 292.166 307.665 291.698 307.21 291.361C306.755 291.025 306.185 290.841 305.596 290.841H302.175C301.586 290.841 301.016 291.025 300.561 291.361C300.107 291.698 299.796 292.166 299.683 292.685H297.006C296.893 292.166 296.583 291.698 296.128 291.361C295.674 291.025 295.104 290.841 294.515 290.841H291.093C290.505 290.841 289.934 291.025 289.48 291.362C289.025 291.698 288.714 292.166 288.601 292.685H285.925C285.812 292.166 285.502 291.698 285.047 291.361C284.592 291.025 284.022 290.841 283.433 290.841H280.009C279.42 290.841 278.85 291.025 278.395 291.361C277.94 291.698 277.63 292.166 277.517 292.685H274.84C274.727 292.166 274.416 291.698 273.962 291.361C273.507 291.025 272.937 290.841 272.348 290.841H268.927C268.338 290.841 267.768 291.025 267.313 291.361C266.859 291.698 266.548 292.166 266.435 292.685H264.501C264.388 292.166 264.077 291.698 263.623 291.361C263.168 291.025 262.598 290.841 262.009 290.841H231.637C231.048 290.841 230.478 291.025 230.023 291.361C229.568 291.698 229.258 292.166 229.145 292.685H226.666C226.553 292.166 226.243 291.698 225.788 291.361C225.333 291.025 224.763 290.841 224.174 290.841H220.754C220.165 290.841 219.594 291.025 219.139 291.361C218.685 291.698 218.374 292.166 218.261 292.685H215.584C215.471 292.166 215.161 291.698 214.706 291.361C214.252 291.025 213.681 290.841 213.092 290.841H209.672C209.083 290.841 208.512 291.025 208.058 291.361C207.603 291.698 207.293 292.166 207.179 292.685H204.507C204.394 292.166 204.084 291.698 203.63 291.361C203.175 291.025 202.605 290.841 202.016 290.841H198.595C198.006 290.841 197.435 291.025 196.981 291.362C196.526 291.698 196.216 292.166 196.102 292.685H193.426C193.313 292.166 193.003 291.698 192.548 291.361C192.093 291.025 191.523 290.841 190.934 290.841H187.513C186.925 290.841 186.354 291.025 185.899 291.361C185.445 291.698 185.134 292.166 185.021 292.685H173.764C172.804 292.685 171.885 293.027 171.206 293.637C170.528 294.246 170.147 295.073 170.147 295.935C170.147 296.796 170.528 297.623 171.206 298.232C171.885 298.842 172.804 299.184 173.764 299.184H323.471C324.43 299.184 325.35 298.842 326.028 298.232C326.707 297.623 327.088 296.796 327.088 295.935C327.088 295.073 326.707 294.246 326.028 293.637C325.35 293.027 324.43 292.685 323.471 292.685Z" fill="#292A2E"/>
<path opacity="0.2" d="M323.471 292.685H319.17C319.057 292.166 318.746 291.698 318.292 291.361C317.837 291.025 317.267 290.841 316.678 290.841H313.257C312.668 290.841 312.098 291.025 311.643 291.361C311.188 291.698 310.878 292.166 310.765 292.685H308.088C307.975 292.166 307.665 291.698 307.21 291.361C306.755 291.025 306.185 290.841 305.596 290.841H302.175C301.586 290.841 301.016 291.025 300.561 291.361C300.107 291.698 299.796 292.166 299.683 292.685H297.006C296.893 292.166 296.583 291.698 296.128 291.361C295.674 291.025 295.104 290.841 294.515 290.841H291.093C290.505 290.841 289.934 291.025 289.48 291.362C289.025 291.698 288.714 292.166 288.601 292.685H285.925C285.812 292.166 285.502 291.698 285.047 291.361C284.592 291.025 284.022 290.841 283.433 290.841H280.009C279.42 290.841 278.85 291.025 278.395 291.361C277.94 291.698 277.63 292.166 277.517 292.685H274.84C274.727 292.166 274.416 291.698 273.962 291.361C273.507 291.025 272.937 290.841 272.348 290.841H268.927C268.338 290.841 267.768 291.025 267.313 291.361C266.859 291.698 266.548 292.166 266.435 292.685H264.501C264.388 292.166 264.077 291.698 263.623 291.361C263.168 291.025 262.598 290.841 262.009 290.841H231.637C231.048 290.841 230.478 291.025 230.023 291.361C229.568 291.698 229.258 292.166 229.145 292.685H226.666C226.553 292.166 226.243 291.698 225.788 291.361C225.333 291.025 224.763 290.841 224.174 290.841H220.754C220.165 290.841 219.594 291.025 219.139 291.361C218.685 291.698 218.374 292.166 218.261 292.685H215.584C215.471 292.166 215.161 291.698 214.706 291.361C214.252 291.025 213.681 290.841 213.092 290.841H209.672C209.083 290.841 208.512 291.025 208.058 291.361C207.603 291.698 207.293 292.166 207.179 292.685H204.507C204.394 292.166 204.084 291.698 203.63 291.361C203.175 291.025 202.605 290.841 202.016 290.841H198.595C198.006 290.841 197.435 291.025 196.981 291.362C196.526 291.698 196.216 292.166 196.102 292.685H193.426C193.313 292.166 193.003 291.698 192.548 291.361C192.093 291.025 191.523 290.841 190.934 290.841H187.513C186.925 290.841 186.354 291.025 185.899 291.361C185.445 291.698 185.134 292.166 185.021 292.685H173.764C172.804 292.685 171.885 293.027 171.206 293.637C170.528 294.246 170.147 295.073 170.147 295.935C170.147 296.796 170.528 297.623 171.206 298.232C171.885 298.842 172.804 299.184 173.764 299.184H323.471C324.43 299.184 325.35 298.842 326.028 298.232C326.707 297.623 327.088 296.796 327.088 295.935C327.088 295.073 326.707 294.246 326.028 293.637C325.35 293.027 324.43 292.685 323.471 292.685Z" fill="white"/>
<path d="M600.75 300.294L0.805816 300.294C0.592071 300.294 0.387176 300.218 0.236114 300.082C0.0849905 299.946 2.95639e-05 299.762 2.95639e-05 299.57C2.95639e-05 299.378 0.0849905 299.194 0.236114 299.058C0.387176 298.922 0.592071 298.846 0.805816 298.846L600.75 298.846C600.964 298.846 601.169 298.922 601.32 299.058C601.471 299.194 601.556 299.378 601.556 299.57C601.556 299.762 601.471 299.946 601.32 300.082C601.169 300.218 600.964 300.294 600.75 300.294Z" fill="#292A2E"/>
</svg>
