<svg width="178" height="162" viewBox="0 0 178 162" fill="none" xmlns="http://www.w3.org/2000/svg">
<g clip-path="url(#clip0_1_1382)">
<path d="M88.8901 54.6861C103.995 54.6861 116.241 42.4442 116.241 27.343C116.241 12.2419 103.995 0 88.8901 0C73.7847 0 61.5394 12.2419 61.5394 27.343C61.5394 42.4442 73.7847 54.6861 88.8901 54.6861Z" fill="#0CBC8B"/>
<g opacity="0.1">
<path d="M88.8901 49.0193C100.865 49.0193 110.572 39.3145 110.572 27.343C110.572 15.3716 100.865 5.66678 88.8901 5.66678C76.9153 5.66678 67.2078 15.3716 67.2078 27.343C67.2078 39.3145 76.9153 49.0193 88.8901 49.0193Z" fill="#292A2E"/>
</g>
<path d="M87.4409 37.7443L87.3267 34.0149C89.3439 34.1165 90.8538 33.8369 92.082 32.9908C93.5536 31.9767 93.7802 30.9204 92.9658 29.7392C91.1249 27.0682 84.3042 31.8389 81.0723 27.1543C78.9961 24.1426 79.7606 20.7867 83.0511 18.5198C83.9765 17.8621 85.0341 17.4137 86.1504 17.2058C87.2666 16.998 88.4147 17.0356 89.515 17.3161L89.1125 20.8198C87.5771 20.6117 86.4653 20.7113 85.3807 21.4583C84.131 22.3199 83.8009 23.2896 84.605 24.4558C86.3115 26.9316 93.0175 21.9929 96.4382 26.9544C98.4932 29.9356 98.0063 33.4518 94.2051 36.0702C92.207 37.3824 89.8206 37.973 87.4409 37.7443ZM79.8567 16.9689L82.3901 15.2233L84.9674 18.9622L82.434 20.7074L79.8567 16.9689ZM92.3306 35.0626L94.8636 33.3174L97.6917 37.4199L95.1583 39.1651L92.3306 35.0626Z" fill="white"/>
<path d="M148.053 117.781C147.605 117.781 147.158 117.741 146.717 117.662C145.507 117.445 144.362 116.955 143.369 116.23C142.376 115.505 141.561 114.564 140.986 113.478C140.431 112.38 140.14 111.167 140.137 109.937C140.134 108.706 140.419 107.492 140.968 106.392C141.564 105.049 142.445 103.852 143.549 102.883C140.842 102.267 138.064 102.027 135.293 102.169C134.718 102.212 134.149 102.025 133.712 101.648C133.275 101.272 133.006 100.738 132.963 100.163C132.92 99.5881 133.107 99.0198 133.484 98.5829C133.86 98.1461 134.394 97.8766 134.969 97.8337C135.363 97.8039 143.65 97.2305 149.53 100.591C154.05 100.319 158.36 102.443 158.579 102.555C159.095 102.814 159.486 103.266 159.668 103.813C159.849 104.36 159.806 104.957 159.548 105.473C159.42 105.728 159.243 105.955 159.027 106.142C158.811 106.329 158.56 106.471 158.289 106.561C157.742 106.743 157.145 106.7 156.63 106.441C155.881 106.086 155.106 105.791 154.311 105.558C154.927 106.88 155.279 108.309 155.345 109.765C155.446 110.915 155.28 112.073 154.861 113.149C154.442 114.225 153.78 115.19 152.927 115.969C151.576 117.144 149.844 117.788 148.053 117.781ZM148.499 105.121C148.316 105.166 148.137 105.219 147.961 105.281C147.277 105.529 146.652 105.918 146.128 106.423C145.604 106.927 145.192 107.536 144.918 108.21C144.366 109.409 144.341 110.505 144.843 111.468C145.115 111.962 145.493 112.389 145.95 112.72C146.407 113.051 146.931 113.277 147.486 113.383C147.936 113.47 148.399 113.455 148.842 113.34C149.286 113.224 149.697 113.011 150.047 112.715C150.405 112.368 150.677 111.943 150.843 111.473C151.009 111.003 151.064 110.501 151.003 110.006C150.981 109.125 150.774 108.258 150.396 107.462C150.019 106.665 149.479 105.957 148.811 105.381C148.709 105.293 148.605 105.206 148.499 105.121Z" fill="#367CFF"/>
<g opacity="0.6">
<path d="M148.053 117.781C147.605 117.781 147.158 117.741 146.717 117.662C145.507 117.445 144.362 116.955 143.369 116.23C142.376 115.505 141.561 114.564 140.986 113.478C140.431 112.38 140.14 111.167 140.137 109.937C140.134 108.706 140.419 107.492 140.968 106.392C141.564 105.049 142.445 103.852 143.549 102.883C140.842 102.267 138.064 102.027 135.293 102.169C134.718 102.212 134.149 102.025 133.712 101.648C133.275 101.272 133.006 100.738 132.963 100.163C132.92 99.5881 133.107 99.0198 133.484 98.5829C133.86 98.1461 134.394 97.8766 134.969 97.8337C135.363 97.8039 143.65 97.2305 149.53 100.591C154.05 100.319 158.36 102.443 158.579 102.555C159.095 102.814 159.486 103.266 159.668 103.813C159.849 104.36 159.806 104.957 159.548 105.473C159.42 105.728 159.243 105.955 159.027 106.142C158.811 106.329 158.56 106.471 158.289 106.561C157.742 106.743 157.145 106.7 156.63 106.441C155.881 106.086 155.106 105.791 154.311 105.558C154.927 106.88 155.279 108.309 155.345 109.765C155.446 110.915 155.28 112.073 154.861 113.149C154.442 114.225 153.78 115.19 152.927 115.969C151.576 117.144 149.844 117.788 148.053 117.781ZM148.499 105.121C148.316 105.166 148.137 105.219 147.961 105.281C147.277 105.529 146.652 105.918 146.128 106.423C145.604 106.927 145.192 107.536 144.918 108.21C144.366 109.409 144.341 110.505 144.843 111.468C145.115 111.962 145.493 112.389 145.95 112.72C146.407 113.051 146.931 113.277 147.486 113.383C147.936 113.47 148.399 113.455 148.842 113.34C149.286 113.224 149.697 113.011 150.047 112.715C150.405 112.368 150.677 111.943 150.843 111.473C151.009 111.003 151.064 110.501 151.003 110.006C150.981 109.125 150.774 108.258 150.396 107.462C150.019 106.665 149.479 105.957 148.811 105.381C148.709 105.293 148.605 105.206 148.499 105.121Z" fill="white"/>
</g>
<g opacity="0.5">
<path d="M142.943 109.476C142.578 109.475 142.219 109.383 141.9 109.208C141.58 109.033 141.309 108.78 141.113 108.473C140.916 108.166 140.8 107.814 140.775 107.451C140.75 107.087 140.817 106.723 140.969 106.392C141.483 105.183 142.243 104.095 143.202 103.197C144.16 102.298 145.295 101.61 146.534 101.175C151.939 99.279 158.312 102.424 158.581 102.557C159.096 102.816 159.488 103.268 159.67 103.816C159.851 104.363 159.808 104.96 159.55 105.475C159.291 105.99 158.838 106.382 158.291 106.563C157.744 106.745 157.147 106.702 156.631 106.443C155.252 105.759 150.993 104.211 147.961 105.28C147.277 105.528 146.652 105.917 146.128 106.422C145.604 106.926 145.192 107.535 144.918 108.21C144.745 108.587 144.466 108.907 144.116 109.132C143.766 109.356 143.359 109.476 142.943 109.476Z" fill="white"/>
</g>
<path d="M55.108 77.6855C55.108 77.6855 41.6856 67.7365 36.9102 71.6491C32.5876 75.1903 37.5936 89.3236 37.5936 89.3236C37.5936 89.3236 49.132 90.3649 55.108 77.6855Z" fill="#367CFF"/>
<g opacity="0.2">
<path d="M55.108 77.6855C55.108 77.6855 41.6856 67.7365 36.9102 71.6491C32.5876 75.1903 37.5936 89.3236 37.5936 89.3236C37.5936 89.3236 49.132 90.3649 55.108 77.6855Z" fill="white"/>
</g>
<path d="M142.341 110.08C142.341 85.0096 121.713 64.686 89.2694 64.686C60.1309 64.686 35.8988 80.7924 31.2745 102.295H24.5056V131.361H37.1903C40.9302 136.839 46.1707 141.523 52.3531 145.388V158.652C52.3528 159.082 52.4372 159.508 52.6015 159.905C52.7658 160.302 53.0068 160.663 53.3107 160.967C53.6146 161.271 53.9755 161.512 54.3727 161.677C54.7699 161.842 55.1956 161.926 55.6256 161.926H60.021C60.1218 161.926 60.2209 161.919 60.32 161.911C60.4187 161.919 60.5178 161.926 60.6191 161.926H65.0145C65.4445 161.926 65.8702 161.842 66.2674 161.677C66.6646 161.512 67.0255 161.271 67.3294 160.967C67.6333 160.663 67.8743 160.302 68.0386 159.905C68.2029 159.508 68.2873 159.082 68.2869 158.652V152.49C75.1014 154.485 82.1675 155.49 89.2681 155.475C93.7327 155.488 98.1883 155.075 102.575 154.244V158.653C102.574 159.083 102.659 159.509 102.823 159.906C102.987 160.303 103.228 160.664 103.532 160.968C103.836 161.272 104.197 161.513 104.594 161.678C104.992 161.843 105.417 161.927 105.847 161.927H110.243C110.344 161.927 110.443 161.92 110.542 161.912C110.641 161.92 110.74 161.927 110.841 161.927H115.236C115.666 161.927 116.092 161.842 116.489 161.678C116.887 161.513 117.247 161.272 117.551 160.968C117.855 160.664 118.096 160.303 118.26 159.906C118.425 159.509 118.509 159.083 118.509 158.653V148.725C133.584 140.729 142.341 126.412 142.341 110.08Z" fill="#367CFF"/>
<path opacity="0.5" d="M142.341 110.08C142.341 85.0096 121.713 64.686 89.2694 64.686C60.1309 64.686 35.8988 80.7924 31.2745 102.295H24.5056V131.361H37.1903C40.9302 136.839 46.1707 141.523 52.3531 145.388V158.652C52.3528 159.082 52.4372 159.508 52.6015 159.905C52.7658 160.302 53.0068 160.663 53.3107 160.967C53.6146 161.271 53.9755 161.512 54.3727 161.677C54.7699 161.842 55.1956 161.926 55.6256 161.926H60.021C60.1218 161.926 60.2209 161.919 60.32 161.911C60.4187 161.919 60.5178 161.926 60.6191 161.926H65.0145C65.4445 161.926 65.8702 161.842 66.2674 161.677C66.6646 161.512 67.0255 161.271 67.3294 160.967C67.6333 160.663 67.8743 160.302 68.0386 159.905C68.2029 159.508 68.2873 159.082 68.2869 158.652V152.49C75.1014 154.485 82.1675 155.49 89.2681 155.475C93.7327 155.488 98.1883 155.075 102.575 154.244V158.653C102.574 159.083 102.659 159.509 102.823 159.906C102.987 160.303 103.228 160.664 103.532 160.968C103.836 161.272 104.197 161.513 104.594 161.678C104.992 161.843 105.417 161.927 105.847 161.927H110.243C110.344 161.927 110.443 161.92 110.542 161.912C110.641 161.92 110.74 161.927 110.841 161.927H115.236C115.666 161.927 116.092 161.842 116.489 161.678C116.887 161.513 117.247 161.272 117.551 160.968C117.855 160.664 118.096 160.303 118.26 159.906C118.425 159.509 118.509 159.083 118.509 158.653V148.725C133.584 140.729 142.341 126.412 142.341 110.08Z" fill="white"/>
<path d="M41.3297 95.2868C42.3893 95.2868 43.2482 94.4281 43.2482 93.3689C43.2482 92.3096 42.3893 91.4509 41.3297 91.4509C40.2702 91.4509 39.4113 92.3096 39.4113 93.3689C39.4113 94.4281 40.2702 95.2868 41.3297 95.2868Z" fill="#262626"/>
<path d="M50.9596 82.4144C50.4813 81.9537 50.1809 81.339 50.1115 80.6785C50.042 80.0181 50.2079 79.3544 50.5799 78.8043C53.134 75.0524 58.9829 67.3514 63.0116 68.9269C66.6986 70.3683 67.5829 79.6009 67.7949 83.762C67.8426 84.3536 67.6881 84.9439 67.3564 85.4361C67.0248 85.9284 66.5358 86.2936 65.9695 86.4717C63.0116 87.2752 57.0028 87.8843 50.9596 82.4144Z" fill="#367CFF"/>
<g opacity="0.2">
<path d="M50.9596 82.4144C50.4813 81.9537 50.1809 81.339 50.1115 80.6785C50.042 80.0181 50.2079 79.3544 50.5799 78.8043C53.134 75.0524 58.9829 67.3514 63.0116 68.9269C66.6986 70.3683 67.5829 79.6009 67.7949 83.762C67.8426 84.3536 67.6881 84.9439 67.3564 85.4361C67.0248 85.9284 66.5358 86.2936 65.9695 86.4717C63.0116 87.2752 57.0028 87.8843 50.9596 82.4144Z" fill="white"/>
</g>
<path d="M103.434 68.5189H74.5457C73.3893 68.5189 72.4518 69.4561 72.4518 70.6121V70.6126C72.4518 71.7687 73.3893 72.7059 74.5457 72.7059H103.434C104.59 72.7059 105.528 71.7687 105.528 70.6126V70.6121C105.528 69.4561 104.59 68.5189 103.434 68.5189Z" fill="#262626"/>
<path opacity="0.2" d="M105.348 71.4604C105.184 71.8311 104.916 72.1461 104.576 72.3671C104.236 72.5881 103.839 72.7056 103.433 72.7054H74.5448C74.1392 72.7056 73.7423 72.5878 73.4026 72.3664C73.0628 72.1449 72.7949 71.8294 72.6315 71.4582C72.7345 71.2206 72.8821 71.0049 73.0663 70.8228C73.2596 70.6273 73.4898 70.4723 73.7437 70.3668C73.9976 70.2613 74.2699 70.2075 74.5448 70.2085H103.433C103.839 70.2083 104.237 70.3267 104.577 70.549C104.918 70.7714 105.186 71.0881 105.348 71.4604Z" fill="white"/>
<path d="M24.5056 131.361C28.0986 131.361 31.0113 124.855 31.0113 116.828C31.0113 108.802 28.0986 102.295 24.5056 102.295C20.9127 102.295 18 108.802 18 116.828C18 124.855 20.9127 131.361 24.5056 131.361Z" fill="#367CFF"/>
<g opacity="0.7">
<path d="M24.5056 131.361C28.0986 131.361 31.0113 124.855 31.0113 116.828C31.0113 108.802 28.0986 102.295 24.5056 102.295C20.9127 102.295 18 108.802 18 116.828C18 124.855 20.9127 131.361 24.5056 131.361Z" fill="white"/>
</g>
</g>
<defs>
<clipPath id="clip0_1_1382">
<rect width="177.78" height="161.927" fill="white"/>
</clipPath>
</defs>
</svg>
