<svg width="369" height="313" viewBox="0 0 369 313" fill="none" xmlns="http://www.w3.org/2000/svg">
<path d="M112.315 217.708L302.113 217.708C306.165 217.708 309.45 214.756 309.45 211.116V10.3098C309.45 6.66887 306.165 3.7173 302.113 3.7173L112.315 3.7173C108.264 3.7173 104.979 6.66887 104.979 10.3098L104.979 211.116C104.979 214.756 108.264 217.708 112.315 217.708Z" fill="white"/>
<path d="M104.528 211.116V10.3098C104.53 8.45456 105.351 6.67588 106.811 5.36403C108.271 4.05218 110.251 3.31429 112.316 3.31226H302.113C304.178 3.31429 306.157 4.05218 307.617 5.36403C309.077 6.67588 309.899 8.45456 309.901 10.3098V211.116C309.899 212.972 309.077 214.75 307.617 216.062C306.157 217.374 304.178 218.112 302.113 218.114H112.316C110.251 218.112 108.271 217.374 106.811 216.062C105.351 214.75 104.53 212.972 104.528 211.116ZM112.316 4.12355C110.49 4.12538 108.74 4.77776 107.449 5.93759C106.158 7.09741 105.432 8.66996 105.43 10.3103V211.116C105.432 212.757 106.158 214.329 107.449 215.489C108.74 216.649 110.49 217.302 112.316 217.303H302.113C303.939 217.302 305.689 216.649 306.98 215.489C308.27 214.329 308.996 212.757 308.999 211.116V10.3098C308.996 8.66956 308.27 7.09701 306.98 5.93718C305.689 4.77736 303.939 4.12497 302.113 4.12315L112.316 4.12355Z" fill="#292A2E"/>
<path d="M151.152 312.089C151.087 312.089 151.024 312.077 150.965 312.053C150.906 312.029 150.853 311.993 150.811 311.949C150.769 311.905 150.737 311.854 150.719 311.798C150.701 311.742 150.696 311.684 150.706 311.626L165.795 218.056C165.802 218.002 165.821 217.951 165.851 217.904C165.881 217.857 165.921 217.817 165.969 217.784C166.017 217.751 166.071 217.728 166.129 217.714C166.187 217.701 166.248 217.698 166.307 217.706C166.366 217.713 166.423 217.732 166.475 217.759C166.526 217.787 166.571 217.824 166.606 217.867C166.641 217.91 166.667 217.96 166.681 218.012C166.695 218.064 166.697 218.119 166.687 218.172L151.596 311.742C151.581 311.838 151.527 311.926 151.446 311.99C151.364 312.054 151.26 312.089 151.152 312.089Z" fill="#292A2E"/>
<path d="M263.278 312.089C263.17 312.089 263.065 312.054 262.983 311.99C262.901 311.927 262.848 311.839 262.832 311.742L247.743 218.171C247.728 218.066 247.759 217.959 247.831 217.874C247.903 217.79 248.008 217.734 248.125 217.719C248.242 217.703 248.362 217.73 248.457 217.793C248.552 217.856 248.617 217.95 248.636 218.055L263.727 311.626C263.736 311.684 263.731 311.743 263.713 311.798C263.695 311.854 263.664 311.906 263.621 311.95C263.579 311.994 263.527 312.029 263.468 312.053C263.409 312.077 263.345 312.09 263.28 312.09L263.278 312.089Z" fill="#292A2E"/>
<g opacity="0.1">
<path d="M125.623 106.861L288.806 106.861C291.675 106.861 294.001 104.771 294.001 102.194V23.8488C294.001 21.271 291.675 19.1813 288.806 19.1813L125.623 19.1813C122.754 19.1813 120.429 21.271 120.429 23.8488V102.194C120.429 104.771 122.754 106.861 125.623 106.861Z" fill="#367CFF"/>
</g>
<g opacity="0.1">
<path d="M120.245 197.457V121.987C120.247 120.692 120.82 119.45 121.839 118.535C122.858 117.619 124.24 117.104 125.681 117.103H288.297C289.738 117.104 291.119 117.619 292.138 118.535C293.157 119.451 293.73 120.692 293.732 121.987V197.457C293.73 198.752 293.157 199.994 292.138 200.909C291.119 201.825 289.737 202.34 288.296 202.342H125.681C124.24 202.34 122.858 201.825 121.839 200.909C120.82 199.994 120.246 198.752 120.245 197.457Z" fill="#367CFF"/>
</g>
<path d="M272.94 191.202H276.167C276.653 191.202 277.047 190.849 277.047 190.412V135.012C277.047 134.575 276.653 134.221 276.167 134.221H272.94C272.454 134.221 272.06 134.575 272.06 135.012V190.412C272.06 190.849 272.454 191.202 272.94 191.202Z" fill="white"/>
<path opacity="0.3" d="M277.927 191.202H281.154C281.64 191.202 282.033 190.849 282.033 190.412V152.908C282.033 152.472 281.64 152.118 281.154 152.118H277.927C277.441 152.118 277.047 152.472 277.047 152.908V190.412C277.047 190.849 277.441 191.202 277.927 191.202Z" fill="#367CFF"/>
<path d="M233.036 191.202H236.263C236.749 191.202 237.143 190.849 237.143 190.412V184.783C237.143 184.346 236.749 183.992 236.263 183.992H233.036C232.55 183.992 232.156 184.346 232.156 184.783V190.412C232.156 190.849 232.55 191.202 233.036 191.202Z" fill="white"/>
<path opacity="0.3" d="M238.022 191.202H241.249C241.735 191.202 242.129 190.849 242.129 190.412V149.69C242.129 149.254 241.735 148.9 241.249 148.9H238.022C237.536 148.9 237.143 149.254 237.143 149.69V190.412C237.143 190.849 237.536 191.202 238.022 191.202Z" fill="#367CFF"/>
<path d="M252.988 191.202H256.215C256.701 191.202 257.095 190.849 257.095 190.412V157.886C257.095 157.449 256.701 157.095 256.215 157.095H252.988C252.502 157.095 252.108 157.449 252.108 157.886V190.412C252.108 190.849 252.502 191.202 252.988 191.202Z" fill="white"/>
<path opacity="0.3" d="M257.975 191.202H261.202C261.688 191.202 262.081 190.849 262.081 190.412V169.67C262.081 169.234 261.688 168.88 261.202 168.88H257.975C257.489 168.88 257.095 169.234 257.095 169.67V190.412C257.095 190.849 257.489 191.202 257.975 191.202Z" fill="#367CFF"/>
<path d="M173.179 191.202H176.406C176.892 191.202 177.286 190.849 177.286 190.412V146.032C177.286 145.595 176.892 145.241 176.406 145.241H173.179C172.693 145.241 172.299 145.595 172.299 146.032V190.412C172.299 190.849 172.693 191.202 173.179 191.202Z" fill="white"/>
<path opacity="0.3" d="M178.166 191.203H181.393C181.879 191.203 182.272 190.849 182.272 190.413V162.953C182.272 162.517 181.879 162.163 181.393 162.163H178.166C177.68 162.163 177.286 162.517 177.286 162.953V190.413C177.286 190.849 177.68 191.203 178.166 191.203Z" fill="#367CFF"/>
<path d="M213.084 191.202H216.311C216.797 191.202 217.19 190.849 217.19 190.412V153.201C217.19 152.765 216.797 152.411 216.311 152.411H213.084C212.598 152.411 212.204 152.765 212.204 153.201V190.412C212.204 190.849 212.598 191.202 213.084 191.202Z" fill="white"/>
<path opacity="0.3" d="M218.07 191.202H221.297C221.783 191.202 222.177 190.849 222.177 190.412V157.593C222.177 157.157 221.783 156.803 221.297 156.803H218.07C217.584 156.803 217.19 157.157 217.19 157.593V190.412C217.19 190.849 217.584 191.202 218.07 191.202Z" fill="#367CFF"/>
<path d="M193.132 191.202H196.359C196.845 191.202 197.238 190.849 197.238 190.412V135.012C197.238 134.575 196.845 134.221 196.359 134.221H193.132C192.646 134.221 192.252 134.575 192.252 135.012V190.412C192.252 190.849 192.646 191.202 193.132 191.202Z" fill="white"/>
<path opacity="0.3" d="M198.118 191.202H201.345C201.831 191.202 202.225 190.849 202.225 190.412V137.757C202.225 137.32 201.831 136.966 201.345 136.966H198.118C197.632 136.966 197.238 137.32 197.238 137.757V190.412C197.238 190.849 197.632 191.202 198.118 191.202Z" fill="#367CFF"/>
<path d="M153.227 191.202H156.455C156.941 191.202 157.334 190.849 157.334 190.412V135.012C157.334 134.575 156.941 134.221 156.455 134.221H153.227C152.742 134.221 152.348 134.575 152.348 135.012V190.412C152.348 190.849 152.742 191.202 153.227 191.202Z" fill="white"/>
<path opacity="0.3" d="M158.214 191.202H161.441C161.927 191.202 162.32 190.849 162.32 190.412V152.908C162.32 152.472 161.927 152.118 161.441 152.118H158.214C157.728 152.118 157.334 152.472 157.334 152.908V190.412C157.334 190.849 157.728 191.202 158.214 191.202Z" fill="#367CFF"/>
<path d="M133.275 191.202H136.503C136.988 191.202 137.382 190.849 137.382 190.412V157.886C137.382 157.449 136.988 157.095 136.503 157.095H133.275C132.789 157.095 132.396 157.449 132.396 157.886V190.412C132.396 190.849 132.789 191.202 133.275 191.202Z" fill="white"/>
<path opacity="0.3" d="M138.261 191.202H141.489C141.975 191.202 142.368 190.849 142.368 190.412V169.67C142.368 169.234 141.975 168.88 141.489 168.88H138.261C137.776 168.88 137.382 169.234 137.382 169.67V190.412C137.382 190.849 137.776 191.202 138.261 191.202Z" fill="#367CFF"/>
<path opacity="0.2" d="M282.078 47.3197V95.8224C282.078 96.0287 281.987 96.2265 281.825 96.3724C281.662 96.5183 281.442 96.6004 281.213 96.6005H133.216C132.987 96.6004 132.766 96.5183 132.604 96.3724C132.442 96.2265 132.351 96.0287 132.351 95.8224V70.0733C132.351 69.9368 132.391 69.8026 132.467 69.6843C132.542 69.566 132.652 69.4678 132.783 69.3995L158.986 55.8049C159.12 55.7356 159.272 55.6997 159.426 55.7007C159.58 55.7018 159.731 55.7399 159.864 55.811L171.659 62.1457C171.807 62.225 171.977 62.2631 172.149 62.255C172.321 62.2469 172.486 62.193 172.623 62.1002L185.009 53.7456C185.135 53.6603 185.285 53.6076 185.442 53.5933C185.599 53.579 185.758 53.6036 185.901 53.6645L201.185 60.1971C201.349 60.267 201.532 60.2891 201.71 60.2605C201.888 60.2318 202.052 60.1538 202.178 60.0373L219.148 44.3802C219.295 44.2447 219.491 44.1618 219.701 44.1468C219.91 44.1319 220.119 44.1861 220.287 44.2991L231.306 51.7135C231.466 51.8211 231.662 51.8758 231.861 51.8684C232.06 51.861 232.251 51.792 232.4 51.673L239.61 45.9157C239.755 45.7994 239.94 45.7306 240.134 45.7203C240.329 45.7101 240.521 45.7591 240.68 45.8593L250.913 52.2775C251.06 52.3696 251.235 52.4185 251.415 52.4173C251.594 52.4161 251.768 52.365 251.914 52.271L269.607 40.8289C269.743 40.7408 269.904 40.6901 270.072 40.6829C270.239 40.6757 270.406 40.7123 270.55 40.7884L281.65 46.6467C281.781 46.7154 281.889 46.8137 281.964 46.9318C282.039 47.0499 282.079 47.1837 282.078 47.3197Z" fill="#367CFF"/>
<path opacity="0.61" d="M132.848 69.4048C132.924 69.4049 132.999 69.3869 133.064 69.3525L159.348 55.7157L171.862 62.436C171.936 62.4755 172.021 62.4945 172.107 62.4904C172.193 62.4864 172.275 62.4595 172.344 62.4133L185.404 53.6037L201.485 60.4764C201.567 60.5111 201.659 60.522 201.748 60.5074C201.837 60.4929 201.918 60.4537 201.981 60.3954L219.648 44.094L231.536 52.0934C231.616 52.1472 231.714 52.1746 231.814 52.1709C231.914 52.1672 232.009 52.1327 232.083 52.0732L240.077 45.6882L251.093 52.6002C251.167 52.6463 251.254 52.6707 251.344 52.6701C251.434 52.6695 251.521 52.644 251.594 52.597L270.014 40.6866L281.362 46.6751C281.411 46.701 281.465 46.7179 281.521 46.725C281.577 46.7321 281.635 46.7291 281.69 46.7163C281.745 46.7035 281.797 46.6811 281.842 46.6503C281.887 46.6195 281.925 46.581 281.954 46.537C281.983 46.493 282.002 46.4443 282.01 46.3937C282.018 46.3431 282.014 46.2916 282 46.2421C281.986 46.1927 281.961 46.1462 281.927 46.1055C281.893 46.0647 281.85 46.0304 281.801 46.0044L270.209 39.8871C270.137 39.8489 270.054 39.8305 269.97 39.834C269.886 39.8376 269.805 39.8629 269.737 39.9069L251.337 51.8044L240.292 44.8765C240.212 44.8263 240.116 44.8018 240.019 44.8068C239.922 44.8119 239.829 44.8463 239.757 44.9045L231.771 51.2821L219.859 43.2681C219.775 43.2115 219.67 43.1843 219.566 43.1918C219.461 43.1993 219.363 43.2408 219.289 43.3086L201.574 59.6554L185.536 52.8009C185.465 52.7705 185.386 52.7581 185.307 52.7653C185.229 52.7724 185.154 52.7988 185.091 52.8415L172.054 61.6356L159.572 54.932C159.505 54.8965 159.43 54.8775 159.353 54.877C159.276 54.8765 159.2 54.8945 159.133 54.9291L132.629 68.6798C132.546 68.7227 132.482 68.7889 132.445 68.8681C132.409 68.9472 132.402 69.035 132.427 69.1177C132.452 69.2005 132.506 69.2735 132.582 69.3257C132.658 69.3778 132.75 69.406 132.846 69.406L132.848 69.4048Z" fill="#367CFF"/>
<path d="M36.6198 294.06C36.6198 294.06 38.657 303.547 48.5442 304.077C58.4313 304.608 56.2872 311.684 56.2872 311.684H18.5041V294.721L36.6198 294.06Z" fill="white"/>
<path d="M15.9417 120.962C15.9417 120.962 18.7671 118.11 18.7423 124.58C18.6489 148.716 16.8364 300.115 16.8364 300.115L41.6642 299.928L56.7041 119.982L15.9417 120.962Z" fill="#262626"/>
<path d="M79.0151 294.06C79.0151 294.06 81.0523 303.547 90.9395 304.077C100.827 304.608 98.6825 311.684 98.6825 311.684H60.8994V294.721L79.0151 294.06Z" fill="white"/>
<path d="M83.8172 122.836C83.8172 122.836 86.9188 205.327 86.5966 209.359L83.6801 299.489L59.2629 299.895L55.3252 206.098C55.3252 206.098 52.7444 180.224 45.7873 156.198C42.2279 143.867 40.0858 131.241 39.3947 118.517L83.8172 122.836Z" fill="#262626"/>
<path d="M51.6051 181.322L53.6409 153.343C53.6409 153.343 55.7322 164.974 55.7322 175C55.7322 179.901 54.6092 199.304 54.6092 199.304L51.6051 181.322Z" fill="#0A0A0A"/>
<path d="M15.6719 120.96L15.5907 120.964C15.5907 120.964 15.6493 119.557 15.6719 120.96Z" fill="#333333"/>
<path d="M15.7739 120.96L15.6927 120.964C15.6927 120.964 15.7513 119.557 15.7739 120.96Z" fill="#333333"/>
<path d="M151.823 54.006C151.673 53.7399 151.435 53.522 151.142 53.3826C150.849 53.2431 150.515 53.1889 150.186 53.2276C150.189 53.2097 150.187 53.1916 150.18 53.1746C150.173 53.1576 150.162 53.1423 150.148 53.1301C150.133 53.1179 150.115 53.1091 150.096 53.1044C150.076 53.0998 150.056 53.0995 150.036 53.1035L151.146 52.3887C151.479 52.1844 151.718 51.8788 151.819 51.5285C151.92 51.1781 151.876 50.8068 151.696 50.4831C151.507 50.1684 151.194 49.9282 150.819 49.809C150.444 49.6898 150.033 49.7001 149.666 49.838C149.668 49.8242 149.657 49.8105 149.655 49.7975L150.111 49.5035C150.423 49.3098 150.651 49.0253 150.757 48.6979C150.862 48.3705 150.839 48.0205 150.69 47.707C150.592 47.5122 150.447 47.3392 150.266 47.2007C150.085 47.0622 149.872 46.9616 149.642 46.906C149.412 46.8505 149.172 46.8414 148.938 46.8795C148.704 46.9177 148.482 47.002 148.289 47.1264L147.236 47.8047C147.233 47.799 147.236 47.7926 147.232 47.7873C147.228 47.782 147.216 47.78 147.21 47.7743C147.452 47.53 147.594 47.2191 147.613 46.8927C147.632 46.5662 147.528 46.2436 147.316 45.9778C146.819 45.2593 145.672 45.4061 144.991 45.8444L138.795 49.6905L139.902 48.0147C140.126 47.6924 140.204 47.306 140.123 46.9335C140.041 46.5611 139.804 46.2305 139.462 46.0086C139.28 45.8995 139.076 45.8248 138.862 45.789C138.647 45.7531 138.427 45.757 138.214 45.8002C138.001 45.8435 137.8 45.9252 137.624 46.0405C137.447 46.1558 137.299 46.3022 137.188 46.4708L131.141 55.6189C130.432 56.692 130.216 57.9715 130.54 59.1853C130.864 60.3991 131.701 61.4517 132.875 62.1194C134.236 62.8939 135.824 63.2855 137.434 63.244C139.044 63.2024 140.604 62.7297 141.913 61.8863L151.27 55.8597C151.582 55.6519 151.805 55.3557 151.906 55.0192C152.006 54.6828 151.977 54.3257 151.823 54.006Z" fill="#E98862"/>
<g opacity="0.25">
<path d="M141.105 51.6046C141.128 51.6326 141.162 51.6516 141.2 51.6573C141.238 51.6631 141.277 51.6552 141.309 51.6354L147.196 47.9714C147.212 47.9614 147.226 47.9487 147.236 47.934C147.247 47.9193 147.254 47.9029 147.258 47.8857C147.261 47.8685 147.261 47.8509 147.257 47.8338C147.252 47.8167 147.245 47.8005 147.234 47.7861C147.222 47.7717 147.208 47.7595 147.192 47.75C147.176 47.7405 147.157 47.734 147.138 47.7309C147.119 47.7278 147.099 47.7281 147.08 47.7318C147.061 47.7355 147.043 47.7425 147.027 47.7525L141.14 51.4165C141.108 51.4366 141.086 51.4674 141.079 51.5022C141.072 51.5369 141.08 51.5727 141.103 51.6018L141.105 51.6046Z" fill="#0C0C0C"/>
</g>
<g opacity="0.25">
<path d="M142.832 53.9821C142.854 54.0103 142.888 54.0294 142.927 54.0352C142.965 54.0411 143.004 54.0332 143.036 54.0133L149.606 49.924C149.638 49.9038 149.66 49.873 149.667 49.8382C149.674 49.8035 149.665 49.7677 149.643 49.7387C149.62 49.7107 149.586 49.6916 149.547 49.6853C149.509 49.6791 149.47 49.6861 149.437 49.7051L142.867 53.7944C142.835 53.8145 142.813 53.8454 142.806 53.8801C142.799 53.9148 142.807 53.9506 142.829 53.9797L142.832 53.9821Z" fill="#0C0C0C"/>
</g>
<g opacity="0.25">
<path d="M144.685 56.5673C144.708 56.5953 144.742 56.6143 144.78 56.62C144.819 56.6258 144.858 56.6179 144.89 56.5981L150.13 53.3363C150.163 53.3162 150.185 53.2853 150.192 53.2506C150.199 53.2158 150.19 53.18 150.168 53.151C150.145 53.1219 150.111 53.1021 150.072 53.0958C150.034 53.0895 149.994 53.0972 149.962 53.1173L144.72 56.3791C144.688 56.3993 144.666 56.4301 144.659 56.4648C144.652 56.4996 144.661 56.5354 144.683 56.5644L144.685 56.5673Z" fill="#0C0C0C"/>
</g>
<path d="M127.574 53.5341L109.815 80.7119L88.1461 55.1721L70.1508 69.7507L100.883 105.515L101.084 105.77C102.314 107.284 103.953 108.491 105.846 109.279C107.739 110.066 109.824 110.408 111.904 110.271C113.985 110.134 115.992 109.523 117.738 108.497C119.483 107.47 120.909 106.061 121.881 104.403L147.133 63.3086L127.574 53.5341Z" fill="white"/>
<path d="M108.074 83.9802C108.039 83.9801 108.003 83.9724 107.971 83.9579C107.945 83.9458 107.922 83.9291 107.902 83.9089C107.883 83.8886 107.868 83.8651 107.859 83.8398C107.85 83.8144 107.847 83.7877 107.849 83.7612C107.851 83.7346 107.86 83.7087 107.873 83.685L109.614 80.6199C109.628 80.5961 109.646 80.575 109.669 80.5578C109.691 80.5405 109.718 80.5274 109.746 80.5191C109.774 80.5109 109.804 80.5078 109.833 80.5099C109.863 80.512 109.892 80.5194 109.918 80.5315C109.944 80.5436 109.968 80.5602 109.987 80.5805C110.006 80.6008 110.021 80.6243 110.03 80.6496C110.039 80.6749 110.043 80.7016 110.04 80.7282C110.038 80.7547 110.03 80.7806 110.016 80.8043L108.275 83.8695C108.256 83.9028 108.227 83.9307 108.192 83.9503C108.157 83.9698 108.116 83.9802 108.074 83.9802Z" fill="#0C0C0C"/>
<path d="M86.8959 80.5572L86.3538 89.1412L86.8043 89.1642L87.3464 80.5801L86.8959 80.5572Z" fill="#0C0C0C"/>
<path d="M29.6736 18.433C29.6736 18.433 28.8416 27.9877 26.4029 31.432C19.3822 41.348 17.2403 52.5626 24.067 58.5044C30.8937 64.4462 74.9174 64.9855 78.4241 51.519C81.3781 40.1815 75.3686 38.8966 74.0231 29.5033C73.4144 25.2538 71.7044 16.338 71.7044 16.338" fill="#0A0A0A"/>
<path d="M67.2172 49.366C67.1414 49.3571 66.2981 61.9316 50.0417 60.8352C38.7879 60.0775 34.7753 49.3481 34.5173 49.3481C35.7305 49.1166 37.774 48.7805 38.3128 48.521C40.0846 47.6655 42.2775 46.7752 42.8487 43.6828C43.1781 41.8989 42.6195 32.782 42.7914 30.979L60.0661 34.4435C59.8247 38.2523 58.1354 47.0817 64.0565 48.6443C65.0419 48.9026 66.1031 49.1406 67.2172 49.366Z" fill="#E98862"/>
<path opacity="0.52" d="M60.3084 45.0359C60.0378 44.2523 59.8635 43.4444 59.7886 42.6267C59.5986 40.7607 59.6364 38.8817 59.9014 37.0231C56.3903 36.5973 53.0825 35.295 50.354 33.2642C50.0332 34.3289 48.269 38.981 48.7576 39.9921C49.6808 41.9042 54.0195 45.0359 60.3084 45.0359Z" fill="#0C0C0C"/>
<path d="M58.0185 41.0783C51.2009 41.5997 42.4205 39.06 40.7005 30.8915L39.1479 23.5209C37.4275 15.3524 40.8075 7.91853 49.3667 6.46298C57.9256 5.00743 65.7178 10.5414 67.4383 18.7099L68.1254 21.9729C68.7855 25.1074 70.1834 40.1483 58.0185 41.0783Z" fill="#E98862"/>
<path d="M65.6858 22.3288C66.2784 22.3288 66.7587 21.8972 66.7587 21.3647C66.7587 20.8322 66.2784 20.4005 65.6858 20.4005C65.0932 20.4005 64.6128 20.8322 64.6128 21.3647C64.6128 21.8972 65.0932 22.3288 65.6858 22.3288Z" fill="#0C0C0C"/>
<path d="M54.6941 23.6482C55.2866 23.6482 55.767 23.2165 55.767 22.684C55.767 22.1515 55.2866 21.7198 54.6941 21.7198C54.1015 21.7198 53.6211 22.1515 53.6211 22.684C53.6211 23.2165 54.1015 23.6482 54.6941 23.6482Z" fill="#0C0C0C"/>
<path d="M60.7262 29.7522H60.7429C61.0896 29.6909 61.4323 29.6124 61.7694 29.517C62.2724 29.3715 62.9321 29.131 62.8459 28.7223C62.748 28.2569 60.2718 23.4767 59.9894 22.933C59.9647 22.8855 59.9201 22.8488 59.8653 22.8309C59.8105 22.813 59.75 22.8153 59.6972 22.8375C59.6444 22.8596 59.6035 22.8998 59.5836 22.949C59.5637 22.9982 59.5663 23.0525 59.591 23.1C60.6472 25.1358 62.3483 28.4827 62.4137 28.7961C62.3573 28.9413 61.5216 29.2174 60.6612 29.3638C60.6047 29.3726 60.5543 29.401 60.5208 29.4428C60.4873 29.4846 60.4732 29.5365 60.4817 29.5875C60.4902 29.6384 60.5205 29.6844 60.5662 29.7155C60.6119 29.7467 60.6693 29.7606 60.7262 29.7542V29.7522Z" fill="#0C0C0C"/>
<path d="M59.4587 33.279C60.8548 33.1161 62.1887 32.6607 63.3531 31.9496C63.4019 31.921 63.4362 31.8762 63.4483 31.825C63.4604 31.7737 63.4493 31.7202 63.4176 31.6763C63.3858 31.6324 63.3359 31.6016 63.2789 31.5907C63.2219 31.5799 63.1624 31.5898 63.1135 31.6183C60.5935 33.0938 58.0898 33.3322 55.873 32.3076C55.8282 32.2858 55.7821 32.2662 55.735 32.2488C55.6803 32.2315 55.6202 32.2343 55.5678 32.2566C55.5154 32.2789 55.475 32.3189 55.4553 32.3679C55.4356 32.4169 55.4382 32.4709 55.4626 32.5182C55.4871 32.5654 55.5313 32.6021 55.5856 32.6202C55.6032 32.6267 55.6308 32.6405 55.6723 32.6607C56.8378 33.2009 58.1562 33.4162 59.4587 33.279Z" fill="#0C0C0C"/>
<path d="M32.3009 26.0897L39.9714 24.8256C45.7819 22.7128 47.5394 13.6734 47.5394 13.6734C47.5394 13.6734 54.5998 19.8552 71.7043 16.34C71.7043 16.34 68.2752 -5.09473 43.0052 1.13576C34.857 3.14555 29.009 10.5239 29.7399 20.3847C30.248 27.2964 32.3009 26.0897 32.3009 26.0897Z" fill="#0A0A0A"/>
<path d="M41.7559 33.2897C39.1552 33.732 36.5197 31.59 36.0256 29.2526C35.5316 26.9152 37.3707 25.2679 39.9718 24.8256L41.6413 26.1635L43.992 32.9093L41.7559 33.2897Z" fill="#E98862"/>
<path d="M61.5569 19.0245C62.3156 18.5845 63.192 18.3358 64.0944 18.3044C64.5387 18.2868 64.9834 18.3291 65.4137 18.4297C65.8398 18.5281 66.2505 18.6743 66.636 18.8648C66.6904 18.8888 66.732 18.9312 66.7517 18.9826C66.7715 19.0341 66.7678 19.0905 66.7415 19.1395C66.7152 19.1885 66.6684 19.2263 66.6113 19.2444C66.5542 19.2626 66.4914 19.2598 66.4366 19.2365L66.4203 19.2297C66.0641 19.0724 65.6872 18.9559 65.2987 18.883C64.9144 18.8091 64.52 18.7879 64.1287 18.8202C63.3527 18.8785 62.6076 19.1203 61.9693 19.5212L61.9485 19.5345C61.9118 19.5585 61.8703 19.5757 61.8262 19.5853C61.7821 19.5948 61.7363 19.5964 61.6915 19.5901C61.6467 19.5837 61.6038 19.5695 61.5651 19.5482C61.5265 19.5269 61.4928 19.499 61.4662 19.466C61.4395 19.4331 61.4203 19.3957 61.4097 19.3561C61.3991 19.3165 61.3973 19.2754 61.4044 19.2351C61.4115 19.1949 61.4273 19.1563 61.451 19.1215C61.4747 19.0868 61.5057 19.0566 61.5424 19.0326L61.5569 19.0245Z" fill="#0C0C0C"/>
<path d="M54.714 20.472C53.9576 20.3059 53.1658 20.3223 52.4187 20.5194C52.0409 20.6166 51.6816 20.7645 51.353 20.9581C51.0198 21.1527 50.7152 21.3843 50.4465 21.6473L50.4343 21.6583C50.3922 21.6962 50.3354 21.7179 50.2758 21.7189C50.2163 21.7199 50.1586 21.7 50.115 21.6635C50.0715 21.627 50.0454 21.5767 50.0423 21.5232C50.0393 21.4697 50.0594 21.4173 50.0986 21.3769C50.3815 21.0741 50.7058 20.8045 51.0637 20.5745C51.4241 20.3405 51.8218 20.1567 52.2432 20.0292C53.0974 19.7654 54.0148 19.7127 54.8994 19.8768C54.9891 19.8941 55.0676 19.9427 55.1174 20.012C55.1672 20.0813 55.1844 20.1655 55.1652 20.2461C55.1459 20.3268 55.0918 20.3972 55.0147 20.442C54.9376 20.4868 54.8439 20.5022 54.7541 20.4849L54.7401 20.4821L54.714 20.472Z" fill="#0C0C0C"/>
<path d="M59.7556 35.1336C60.0085 35.1076 60.2585 35.0625 60.5028 34.9986C60.531 34.9917 60.5573 34.9799 60.5803 34.9639C60.6033 34.9478 60.6225 34.9277 60.6368 34.9049C60.6511 34.8821 60.6602 34.857 60.6636 34.831C60.667 34.805 60.6646 34.7786 60.6565 34.7535C60.6485 34.7283 60.635 34.7048 60.6167 34.6844C60.5985 34.664 60.5759 34.647 60.5503 34.6345C60.5247 34.622 60.4966 34.6142 60.4676 34.6116C60.4386 34.6089 60.4093 34.6115 60.3815 34.6191C58.9101 34.9994 58.0736 34.4954 58.0388 34.4735C57.991 34.4434 57.9317 34.4316 57.8742 34.4408C57.8167 34.4499 57.7655 34.4792 57.732 34.5222C57.6985 34.5652 57.6854 34.6184 57.6955 34.6701C57.7057 34.7218 57.7383 34.7678 57.7862 34.7979C58.3799 35.1106 59.0757 35.2292 59.7556 35.1336Z" fill="#0C0C0C"/>
<path d="M39.9903 24.7384L39.9141 24.5475C49.6352 21.4113 47.2578 12.839 47.233 12.7526L47.4509 12.7015C47.4766 12.7891 49.9082 21.5386 39.9903 24.7384Z" fill="#0C0C0C"/>
<path opacity="0.1" d="M53.8278 30.354C54.9502 30.2455 55.7882 29.5578 55.6996 28.8179C55.611 28.0781 54.6294 27.5663 53.507 27.6749C52.3847 27.7834 51.5466 28.4711 51.6352 29.2109C51.7238 29.9507 52.7054 30.4625 53.8278 30.354Z" fill="#0C0C0C"/>
<path opacity="0.1" d="M65.7079 27.5238C65.7981 28.2625 66.7799 28.7734 67.9025 28.6664C68.0965 28.6475 68.2877 28.6106 68.4733 28.5565C68.5365 27.6775 68.5504 26.8313 68.532 26.0476C68.2217 25.9746 67.899 25.9543 67.5804 25.9876C66.4578 26.0946 65.6203 26.7822 65.7079 27.5238Z" fill="#0C0C0C"/>
<path d="M87.4142 77.0492C86.9021 82.4546 84.4115 116.178 83.9192 122.837H18.7784C18.3949 116.832 13.9668 90.5728 12.5135 78.8299C11.1261 67.6241 8.40396 62.014 10.3992 58.7011C13.6595 53.2868 22.569 50.1583 28.6439 49.4192C32.3537 48.968 37.9328 48.6444 37.9328 48.6444C37.9328 48.6444 38.4052 57.2318 49.6699 57.7098C65.004 58.3585 63.9802 48.6444 64.056 48.6444C66.5403 48.6444 80.7315 50.0574 84.2035 51.9066C93.6643 56.9411 88.5012 65.5941 87.4142 77.0492Z" fill="white"/>
<path d="M129.697 80.8249L123.418 108.249C123.291 108.806 122.954 109.307 122.466 109.668C121.977 110.029 121.365 110.229 120.733 110.234L77.4959 110.564C77.0835 110.568 76.6754 110.488 76.3017 110.331C75.9281 110.174 75.5982 109.944 75.3362 109.658C75.0742 109.371 74.8868 109.036 74.7877 108.676C74.6886 108.316 74.6803 107.941 74.7634 107.578L81.0423 80.1539C81.1701 79.5971 81.5063 79.0965 81.9949 78.7354C82.4836 78.3743 83.0953 78.1747 83.7279 78.1697L126.965 77.8388C127.377 77.8357 127.785 77.9155 128.159 78.0724C128.533 78.2293 128.862 78.4593 129.124 78.7456C129.386 79.0319 129.574 79.3672 129.673 79.727C129.772 80.0868 129.78 80.4619 129.697 80.8249Z" fill="#292A2E"/>
<path d="M89.3801 100.305C89.4032 100.666 89.2804 101.022 89.0341 101.308C88.7879 101.595 88.4348 101.791 88.04 101.862L86.709 102.126C86.7328 102.133 86.7543 102.145 86.7716 102.161C86.7889 102.177 86.8015 102.197 86.8083 102.219C86.8115 102.244 86.8051 102.27 86.7902 102.292C87.1102 102.373 87.3943 102.541 87.6029 102.773C87.8115 103.006 87.9344 103.291 87.9543 103.589C87.9562 103.937 87.8276 104.275 87.5894 104.548C87.3511 104.822 87.0171 105.015 86.6413 105.097L75.4019 107.34C74.8273 107.456 74.2402 107.514 73.6512 107.514C72.3394 107.514 71.0473 107.227 69.8864 106.678C68.7254 106.129 67.7303 105.335 66.987 104.364C66.1988 103.336 65.8879 102.073 66.1205 100.842C66.353 99.6116 67.1107 98.5113 68.2323 97.7751L77.7933 91.4947C78.0037 91.3564 78.2483 91.2659 78.5062 91.2312L77.6263 95.0708L77.8609 95.0221L77.9106 95.014L85.2426 93.672C86.0593 93.5098 87.1782 93.7774 87.3226 94.6126C87.4 94.9324 87.3547 95.2663 87.1942 95.56C87.0336 95.8537 86.7672 96.0899 86.4383 96.2304C86.4428 96.2344 86.4518 96.2385 86.4518 96.2466C86.4518 96.2547 86.4473 96.2587 86.4473 96.2668L87.7152 96.0155C87.9471 95.9692 88.1876 95.9698 88.4193 96.0172C88.651 96.0646 88.8681 96.1575 89.055 96.2894C89.2418 96.4212 89.3938 96.5887 89.5 96.7797C89.6062 96.9707 89.6638 97.1805 89.6689 97.394C89.6688 97.7348 89.5376 98.0651 89.2975 98.3289C89.0574 98.5927 88.7231 98.7738 88.3514 98.8414L87.8054 98.9509C87.8009 98.9671 87.8054 98.9833 87.7964 98.9955C88.1941 98.9981 88.5765 99.1336 88.8692 99.3756C89.162 99.6176 89.344 99.9487 89.3801 100.305Z" fill="#E98862"/>
<g opacity="0.25">
<path d="M79.1482 97.5975C79.157 97.6313 79.18 97.6608 79.2126 97.6796C79.2451 97.6983 79.2845 97.705 79.3224 97.698L86.3377 96.4055C86.3574 96.4026 86.3764 96.3962 86.3933 96.3866C86.4103 96.377 86.4249 96.3644 86.4363 96.3496C86.4477 96.3348 86.4556 96.3181 86.4596 96.3004C86.4636 96.2828 86.4636 96.2646 86.4596 96.247C86.4555 96.2294 86.4476 96.2126 86.4362 96.1978C86.4248 96.183 86.4102 96.1705 86.3932 96.1609C86.3763 96.1513 86.3573 96.1449 86.3375 96.142C86.3177 96.1392 86.2975 96.14 86.2781 96.1444L79.2628 97.4373C79.2243 97.4445 79.1905 97.465 79.1689 97.4945C79.1472 97.524 79.1395 97.56 79.1473 97.5947L79.1482 97.5975Z" fill="#0C0C0C"/>
</g>
<g opacity="0.25">
<path d="M79.6973 100.394C79.706 100.427 79.7291 100.457 79.7616 100.476C79.7942 100.494 79.8336 100.501 79.8715 100.494L87.7008 99.0515C87.7392 99.0443 87.7729 99.0237 87.7946 98.9942C87.8162 98.9647 87.824 98.9288 87.8163 98.8942C87.8071 98.8602 87.7839 98.8306 87.7515 98.8113C87.719 98.7921 87.6796 98.7846 87.6412 98.7904L79.812 100.233C79.7734 100.24 79.7396 100.261 79.718 100.291C79.6963 100.32 79.6886 100.356 79.6964 100.391L79.6973 100.394Z" fill="#0C0C0C"/>
</g>
<g opacity="0.25">
<path d="M80.2726 103.425C80.2814 103.459 80.3045 103.488 80.337 103.507C80.3695 103.526 80.4089 103.532 80.4468 103.525L86.6919 102.375C86.7116 102.372 86.7306 102.366 86.7475 102.356C86.7645 102.346 86.7791 102.334 86.7905 102.319C86.8019 102.304 86.8098 102.287 86.8138 102.27C86.8178 102.252 86.8178 102.234 86.8138 102.216C86.8098 102.199 86.8018 102.182 86.7904 102.167C86.779 102.152 86.7644 102.14 86.7474 102.13C86.7305 102.121 86.7115 102.114 86.6917 102.111C86.672 102.109 86.6517 102.109 86.6323 102.114L80.3872 103.265C80.3682 103.268 80.3501 103.275 80.334 103.285C80.3178 103.295 80.304 103.307 80.2933 103.322C80.2826 103.336 80.2751 103.353 80.2714 103.37C80.2677 103.387 80.2678 103.405 80.2717 103.422L80.2726 103.425Z" fill="#0C0C0C"/>
</g>
<path d="M74.7057 111.336L13.7281 121.237C11.8253 121.424 9.90036 121.211 8.10435 120.616C6.30834 120.022 4.69012 119.061 3.37668 117.81C2.06324 116.559 1.09031 115.051 0.534253 113.405C-0.0218077 111.76 -0.145876 110.021 0.171785 108.324L8.70806 62.7292C9.25314 59.8178 11.063 57.2202 13.7394 55.5079C16.4158 53.7955 19.7396 53.1087 22.9796 53.5985C26.2195 54.0883 29.1102 55.7146 31.0158 58.1196C32.9214 60.5247 33.6857 63.5114 33.1406 66.4228L27.3201 97.8104L72.0247 92.7666L74.7057 111.336Z" fill="white"/>
<path d="M13.7277 121.44C13.6714 121.44 13.6172 121.421 13.5757 121.387C13.5342 121.353 13.5084 121.306 13.5034 121.255C13.4985 121.205 13.5146 121.155 13.5488 121.115C13.5829 121.074 13.6326 121.047 13.688 121.038L74.4544 111.17L71.8311 92.9917L27.3476 98.0115C27.3128 98.0157 27.2773 98.0125 27.2441 98.002C27.2109 97.9915 27.181 97.974 27.1568 97.9511C27.1324 97.9283 27.1142 97.9007 27.1038 97.8705C27.0934 97.8403 27.091 97.8083 27.0968 97.7771L30.7966 77.7169C30.8014 77.6906 30.812 77.6654 30.8276 77.6428C30.8433 77.6202 30.8637 77.6006 30.8878 77.5851C30.9119 77.5695 30.9392 77.5584 30.968 77.5524C30.9969 77.5464 31.0268 77.5455 31.0561 77.5498C31.0853 77.5542 31.1134 77.5636 31.1386 77.5777C31.1638 77.5918 31.1857 77.6102 31.2029 77.6319C31.2202 77.6536 31.2325 77.6782 31.2392 77.7042C31.2459 77.7302 31.2469 77.7571 31.2419 77.7834L27.5913 97.5752L71.9967 92.5639C72.0558 92.5572 72.1155 92.5719 72.1627 92.6046C72.2099 92.6374 72.2407 92.6856 72.2485 92.7387L74.9295 111.308C74.937 111.36 74.9222 111.412 74.888 111.454C74.8538 111.496 74.8029 111.525 74.7459 111.534L13.7683 121.437C13.7548 121.439 13.7413 121.44 13.7277 121.44Z" fill="#0C0C0C"/>
<path d="M27.2843 97.6108L23.3619 98.175L23.4333 98.5758L27.3557 98.0115L27.2843 97.6108Z" fill="#0C0C0C"/>
<path d="M331.03 268.545C330.982 268.545 330.933 268.537 330.888 268.52C330.843 268.503 330.803 268.479 330.768 268.448C330.246 267.978 329.394 259.363 327.099 233.711C326.161 223.215 325.273 213.302 324.626 207.276C324.581 206.846 324.395 206.796 324.334 206.779C323.448 206.539 320.754 208.448 319.25 210.12C319.188 210.188 319.098 210.232 319 210.242C318.903 210.251 318.805 210.225 318.728 210.169C318.652 210.114 318.603 210.033 318.592 209.945C318.582 209.857 318.611 209.769 318.673 209.7C319.665 208.595 322.909 205.698 324.547 206.141C324.793 206.217 325.006 206.362 325.153 206.555C325.301 206.748 325.375 206.978 325.365 207.212C326.013 213.242 326.899 223.159 327.839 233.657C329.233 249.246 330.812 266.904 331.332 268.017C331.371 268.067 331.395 268.125 331.399 268.186C331.404 268.247 331.391 268.309 331.359 268.363C331.328 268.417 331.281 268.463 331.223 268.495C331.165 268.527 331.098 268.544 331.03 268.544V268.545Z" fill="#494949"/>
<path d="M323.673 218.332C329.828 213.899 331.868 206.998 328.23 202.92C324.591 198.841 316.653 199.128 310.498 203.562C304.343 207.995 302.303 214.895 305.942 218.974C309.58 223.052 317.519 222.765 323.673 218.332Z" fill="#0CBC8B"/>
<path opacity="0.2" d="M323.673 218.332C329.828 213.899 331.868 206.998 328.23 202.92C324.591 198.841 316.653 199.128 310.498 203.562C304.343 207.995 302.303 214.895 305.942 218.974C309.58 223.052 317.519 222.765 323.673 218.332Z" fill="white"/>
<path d="M307.667 220.011C307.632 220.011 307.597 220.003 307.568 219.986C307.538 219.969 307.514 219.944 307.499 219.916C307.484 219.887 307.478 219.855 307.483 219.824C307.488 219.792 307.502 219.763 307.525 219.738L325.065 200.732C325.096 200.698 325.142 200.676 325.191 200.672C325.24 200.668 325.288 200.681 325.326 200.71C325.364 200.738 325.388 200.778 325.393 200.822C325.397 200.867 325.382 200.91 325.351 200.944L307.809 219.951C307.792 219.97 307.77 219.985 307.746 219.996C307.721 220.006 307.694 220.011 307.667 220.011Z" fill="white"/>
<path d="M334.856 264.471C334.815 264.471 334.773 264.464 334.734 264.452C334.688 264.438 334.646 264.415 334.609 264.386C334.573 264.357 334.543 264.322 334.522 264.282C334.501 264.243 334.488 264.2 334.486 264.157C334.483 264.113 334.49 264.069 334.506 264.028L341.093 247.001C341.287 246.501 341.618 246.052 342.055 245.696C342.491 245.34 343.021 245.089 343.594 244.964C344.167 244.84 344.766 244.847 345.335 244.984C345.905 245.122 346.427 245.386 346.853 245.752L350.336 248.742C350.407 248.803 350.449 248.887 350.451 248.976C350.453 249.064 350.416 249.149 350.348 249.213C350.28 249.277 350.187 249.314 350.088 249.316C349.99 249.318 349.895 249.285 349.824 249.224L346.34 246.234C346.004 245.945 345.592 245.737 345.142 245.628C344.693 245.519 344.22 245.514 343.768 245.612C343.315 245.71 342.897 245.909 342.552 246.19C342.208 246.471 341.947 246.825 341.794 247.22L335.206 264.249C335.18 264.314 335.133 264.37 335.07 264.41C335.008 264.449 334.933 264.471 334.856 264.471Z" fill="#494949"/>
<path d="M360.069 258.17C364.631 254.925 364.36 247.79 359.464 242.232C354.568 236.675 346.902 234.799 342.341 238.044C337.78 241.288 338.051 248.423 342.947 253.981C347.842 259.538 355.508 261.414 360.069 258.17Z" fill="#0CBC8B"/>
<path d="M328.037 267.46C327.954 267.459 327.873 267.434 327.807 267.388C327.742 267.341 327.696 267.277 327.676 267.204L316.622 225.661C316.546 225.378 316.386 225.119 316.157 224.912C315.928 224.706 315.641 224.56 315.326 224.491C315.011 224.422 314.681 224.432 314.372 224.521C314.063 224.609 313.788 224.773 313.576 224.993L310.167 228.533C310.103 228.599 310.012 228.641 309.913 228.647C309.815 228.653 309.718 228.624 309.644 228.566C309.57 228.509 309.524 228.427 309.517 228.338C309.51 228.25 309.542 228.163 309.606 228.096L313.015 224.557C313.316 224.244 313.708 224.012 314.146 223.886C314.585 223.76 315.054 223.746 315.502 223.844C315.949 223.942 316.358 224.149 316.683 224.442C317.007 224.736 317.236 225.104 317.343 225.506L328.398 267.049C328.409 267.091 328.411 267.136 328.403 267.179C328.396 267.222 328.379 267.264 328.353 267.301C328.328 267.338 328.294 267.371 328.255 267.396C328.215 267.422 328.171 267.44 328.123 267.451C328.095 267.457 328.066 267.46 328.037 267.46Z" fill="#494949"/>
<path d="M323.959 237.763C325.303 230.779 321.746 224.395 316.014 223.504C310.282 222.613 304.546 227.553 303.202 234.537C301.858 241.522 305.415 247.906 311.147 248.796C316.879 249.687 322.615 244.747 323.959 237.763Z" fill="#0CBC8B"/>
<path d="M331.031 268.545C331.016 268.545 331.001 268.544 330.986 268.543C330.888 268.532 330.799 268.487 330.739 268.417C330.678 268.348 330.651 268.259 330.663 268.171L337.724 216.659C337.801 216.098 338.056 215.569 338.46 215.135C338.864 214.701 339.398 214.381 339.999 214.214C340.6 214.047 341.242 214.039 341.848 214.192C342.454 214.345 342.998 214.651 343.414 215.075L351.484 223.289C351.518 223.321 351.543 223.359 351.56 223.401C351.577 223.443 351.584 223.487 351.582 223.531C351.579 223.576 351.567 223.619 351.545 223.659C351.524 223.699 351.494 223.735 351.457 223.764C351.42 223.793 351.377 223.816 351.33 223.83C351.283 223.844 351.234 223.85 351.185 223.847C351.135 223.843 351.087 223.831 351.043 223.811C350.999 223.791 350.96 223.763 350.928 223.73L342.858 215.517C342.536 215.19 342.116 214.954 341.648 214.836C341.18 214.719 340.684 214.725 340.22 214.854C339.756 214.983 339.343 215.23 339.031 215.564C338.719 215.899 338.521 216.307 338.46 216.741L331.4 268.253C331.389 268.333 331.345 268.408 331.277 268.462C331.209 268.516 331.122 268.545 331.031 268.545Z" fill="#494949"/>
<path d="M359.76 227.853C362.576 223.279 359.263 216.79 352.36 213.359C345.458 209.928 337.58 210.855 334.764 215.429C331.949 220.003 335.262 226.492 342.164 229.923C349.066 233.354 356.944 232.427 359.76 227.853Z" fill="#0CBC8B"/>
<path opacity="0.2" d="M360.069 258.17C364.631 254.925 364.36 247.79 359.464 242.232C354.568 236.675 346.902 234.799 342.341 238.044C337.78 241.288 338.051 248.423 342.947 253.981C347.842 259.538 355.508 261.414 360.069 258.17Z" fill="white"/>
<path opacity="0.5" d="M323.959 237.763C325.303 230.779 321.746 224.395 316.014 223.504C310.282 222.613 304.546 227.553 303.202 234.537C301.858 241.522 305.415 247.906 311.147 248.796C316.879 249.687 322.615 244.747 323.959 237.763Z" fill="white"/>
<path opacity="0.5" d="M359.76 227.853C362.576 223.279 359.263 216.79 352.36 213.359C345.458 209.928 337.58 210.855 334.764 215.429C331.949 220.003 335.262 226.492 342.164 229.923C349.066 233.354 356.944 232.427 359.76 227.853Z" fill="white"/>
<path d="M340.061 312.253H322L319.007 260.326H343.054L340.061 312.253Z" fill="#292A2E"/>
<path opacity="0.3" d="M340.061 312.253H322L319.007 260.326H343.054L340.061 312.253Z" fill="white"/>
<path d="M360.07 258.334C360.041 258.334 360.013 258.328 359.988 258.317C359.963 258.306 359.94 258.29 359.923 258.27L342.194 238.143C342.164 238.109 342.15 238.064 342.156 238.02C342.161 237.977 342.186 237.937 342.225 237.909C342.263 237.882 342.313 237.869 342.361 237.874C342.41 237.879 342.455 237.902 342.485 237.936L360.214 258.062C360.236 258.087 360.249 258.116 360.253 258.148C360.257 258.179 360.251 258.21 360.236 258.239C360.221 258.267 360.197 258.291 360.167 258.307C360.138 258.324 360.104 258.333 360.069 258.332L360.07 258.334Z" fill="white"/>
<path d="M358.581 229.465C358.541 229.465 358.503 229.454 358.471 229.433L335.784 214.548C335.763 214.535 335.746 214.519 335.732 214.5C335.718 214.481 335.709 214.46 335.705 214.438C335.701 214.416 335.702 214.393 335.707 214.372C335.713 214.35 335.723 214.329 335.738 214.311C335.753 214.293 335.771 214.278 335.793 214.266C335.814 214.255 335.838 214.247 335.863 214.244C335.887 214.241 335.912 214.243 335.936 214.249C335.961 214.255 335.983 214.265 336.003 214.279L358.689 229.164C358.721 229.185 358.744 229.214 358.756 229.247C358.768 229.281 358.768 229.317 358.756 229.35C358.744 229.384 358.72 229.413 358.688 229.433C358.657 229.454 358.618 229.465 358.579 229.465H358.581Z" fill="white"/>
<path d="M310.225 248.579C310.209 248.58 310.192 248.578 310.177 248.574C310.13 248.562 310.089 248.535 310.065 248.497C310.04 248.459 310.033 248.414 310.045 248.371L317.268 224.057C317.281 224.015 317.312 223.98 317.355 223.958C317.397 223.937 317.447 223.931 317.494 223.942C317.541 223.954 317.581 223.981 317.605 224.018C317.63 224.056 317.638 224.1 317.626 224.143L310.404 248.455C310.393 248.491 310.37 248.522 310.338 248.545C310.306 248.567 310.266 248.579 310.225 248.579Z" fill="white"/>
</svg>
