<svg width="54" height="54" viewBox="0 0 54 54" fill="none" xmlns="http://www.w3.org/2000/svg">
<path d="M43.4732 12.5149C43.1315 12.3383 42.7988 12.1447 42.4765 11.9348C41.5391 11.3152 40.6797 10.585 39.9168 9.76008C38.0078 7.57582 37.2948 5.35992 37.0322 3.80848H37.0427C36.8234 2.5207 36.9141 1.6875 36.9278 1.6875H28.2329V35.3088C28.2329 35.7602 28.2329 36.2064 28.2139 36.6472C28.2139 36.7021 28.2087 36.7527 28.2055 36.8118C28.2055 36.836 28.2055 36.8613 28.2002 36.8866C28.2002 36.893 28.2002 36.8993 28.2002 36.9056C28.1086 38.112 27.7219 39.2773 27.0742 40.2991C26.4264 41.3209 25.5375 42.1678 24.4856 42.7655C23.3893 43.3892 22.1494 43.7163 20.8881 43.7147C16.837 43.7147 13.5538 40.4114 13.5538 36.3319C13.5538 32.2523 16.837 28.9491 20.8881 28.9491C21.6549 28.9484 22.4171 29.069 23.1462 29.3066L23.1567 20.4536C20.9433 20.1676 18.6947 20.3435 16.5527 20.9702C14.4106 21.5968 12.4217 22.6606 10.7114 24.0943C9.21277 25.3965 7.95285 26.9501 6.98836 28.6854C6.62133 29.3182 5.23653 31.8611 5.06883 35.988C4.96336 38.3305 5.66684 40.7573 6.00223 41.7603V41.7814C6.21317 42.3721 7.03055 44.3876 8.36262 46.0867C9.43675 47.4496 10.7058 48.6469 12.1289 49.6399V49.6188L12.15 49.6399C16.3593 52.5002 21.0263 52.3125 21.0263 52.3125C21.8341 52.2798 24.5405 52.3125 27.6138 50.856C31.0226 49.2412 32.9632 46.8355 32.9632 46.8355C34.203 45.3981 35.1888 43.7599 35.8784 41.9913C36.6652 39.9231 36.9278 37.4425 36.9278 36.451V18.6142C37.0332 18.6775 38.4381 19.6066 38.4381 19.6066C38.4381 19.6066 40.462 20.9039 43.6198 21.7487C45.8852 22.3499 48.9375 22.4764 48.9375 22.4764V13.8449C47.868 13.9609 45.6964 13.6234 43.4732 12.5149Z" fill="white" stroke="white" stroke-width="1.5625"/>
</svg>
