<svg width="306" height="191" viewBox="0 0 306 191" fill="none" xmlns="http://www.w3.org/2000/svg">
<path opacity="0.2" d="M91.4446 24.7282L91.2272 24.6789L22.2248 154.492L265.472 171.365L265.747 171.384L274.659 66.0053L274.677 65.7981L91.4446 24.7282ZM161.322 108.209L23.1822 153.834L91.4314 25.4382L161.322 108.209ZM161.727 108.6L264.479 170.801L23.9202 154.115L161.727 108.6ZM161.854 108.025L92.0672 25.3746L273.517 66.0447L161.854 108.025ZM265.256 170.677L162.339 108.377L274.078 66.3682L265.256 170.677Z" fill="#0C0C0C"/>
<path d="M305.749 68.1998C305.529 73.1973 303.966 78.0726 301.193 82.4091C298.42 86.7457 294.52 90.4145 289.826 93.1021C285.133 95.7898 279.784 97.4162 274.239 97.8426C268.693 98.269 263.116 97.4825 257.982 95.5505C255.574 94.6437 253.291 93.4909 251.176 92.1148C247.135 89.4932 243.772 86.1182 241.316 82.2207V82.2172C238.697 78.0486 237.19 73.3911 236.913 68.6108C236.636 63.8304 237.596 59.0574 239.718 54.6668C241.84 50.2761 245.066 46.3874 249.143 43.3061C253.219 40.2249 258.036 38.035 263.213 36.9086C268.39 35.7823 273.788 35.75 278.982 36.8144C284.175 37.8789 289.024 40.011 293.145 43.0433C297.267 46.0755 300.551 49.9254 302.737 54.2903C304.924 58.6552 305.955 63.4164 305.748 68.1996L305.749 68.1998Z" fill="white"/>
<path opacity="0.09" d="M305.749 68.1998C305.529 73.1973 303.966 78.0726 301.193 82.4091C298.42 86.7457 294.52 90.4145 289.826 93.1021C285.133 95.7898 279.784 97.4162 274.239 97.8426C268.693 98.269 263.116 97.4825 257.982 95.5505C255.574 94.6437 253.291 93.4909 251.176 92.1148C247.135 89.4932 243.772 86.1182 241.316 82.2207V82.2172C238.697 78.0486 237.19 73.3911 236.913 68.6108C236.636 63.8304 237.596 59.0574 239.718 54.6668C241.84 50.2761 245.066 46.3874 249.143 43.3061C253.219 40.2249 258.036 38.035 263.213 36.9086C268.39 35.7823 273.788 35.75 278.982 36.8144C284.175 37.8789 289.024 40.011 293.145 43.0433C297.267 46.0755 300.551 49.9254 302.737 54.2903C304.924 58.6552 305.955 63.4164 305.748 68.1996L305.749 68.1998Z" fill="#367CFF"/>
<path d="M279.467 43.4216C279.467 43.4216 287.704 43.5123 284.864 53.7126L284.09 53.7466L282.52 53.8153" fill="#0C0C0C"/>
<path d="M270.269 64.4146C270.308 64.4114 270.46 70.7738 278.689 70.5065C284.387 70.3222 286.647 64.9765 286.777 64.981C286.17 64.8428 285.145 64.6361 284.879 64.4966C284.003 64.0337 282.916 63.5457 282.695 61.9744C282.567 61.0688 283.048 56.4758 283.001 55.5625L274.205 57.0074C274.243 58.9344 274.904 63.421 271.881 64.1057C271.377 64.219 270.837 64.3202 270.269 64.4146Z" fill="#E98862"/>
<path opacity="0.52" d="M273.851 62.3501C274.005 61.9593 274.111 61.5545 274.166 61.143C274.303 60.2043 274.324 59.255 274.231 58.3121C276.013 58.159 277.711 57.5598 279.133 56.5827C279.272 57.1247 280.061 59.505 279.791 60.007C279.284 60.9565 277.026 62.461 273.851 62.3501Z" fill="#0C0C0C"/>
<path d="M275.848 61.226C279.296 61.0043 283.455 59.1179 283.6 54.9193L283.73 51.1316C283.875 46.9337 281.537 43.4623 277.14 43.3401C272.741 43.2169 269.336 46.5294 269.192 50.7273L269.134 52.4043C269.125 52.9806 269.16 53.5567 269.239 54.1287C269.434 55.6414 269.737 57.9413 270.846 59.5119C271.892 60.9944 273.645 61.3672 275.848 61.226Z" fill="#E98862"/>
<path d="M283.283 56.1915C284.619 56.2284 285.747 54.9735 285.789 53.7725C285.83 52.5715 284.769 51.8788 283.433 51.8416L282.716 52.6272L282.133 56.1595L283.283 56.1915Z" fill="#E98862"/>
<path d="M269.418 55.3965C269.659 55.6538 269.969 55.8527 270.318 55.9751C270.666 56.0976 271.044 56.1397 271.416 56.0976C272.211 56.0077 272.738 56.3008 273.402 56.242C273.959 56.1927 274.055 55.9614 275.006 55.9109C278.676 55.7155 281.43 55.5076 281.609 51.3691L283.944 49.5049C283.944 49.5049 284.988 60.9732 278.085 62.4977C273.843 63.4338 269.865 63.0916 269.354 59.5118C268.938 56.6031 269.418 55.3965 269.418 55.3965Z" fill="#0C0C0C"/>
<path d="M271.157 53.0014C271.456 53.0014 271.699 52.7834 271.699 52.5144C271.699 52.2454 271.456 52.0273 271.157 52.0273C270.858 52.0273 270.615 52.2454 270.615 52.5144C270.615 52.7834 270.858 53.0014 271.157 53.0014Z" fill="#0C0C0C"/>
<path d="M275.999 52.9108C276.299 52.9108 276.541 52.6927 276.541 52.4237C276.541 52.1547 276.299 51.9367 275.999 51.9367C275.7 51.9367 275.457 52.1547 275.457 52.4237C275.457 52.6927 275.7 52.9108 275.999 52.9108Z" fill="#0C0C0C"/>
<path d="M281.992 54.2388C281.992 54.2388 281.661 48.2903 279.663 47.8905C278.333 47.6242 275.06 49.2733 272.071 48.7101C270.764 48.4638 269.512 48.7348 269.374 49.29C269.319 49.5098 268.285 47.5609 270.389 45.1894C272.063 43.3014 277.51 42.7702 279.933 43.4379C286.642 45.287 283.703 52.1079 283.703 52.1079L283.361 54.1511L281.992 54.2388Z" fill="#0C0C0C"/>
<path d="M285.041 49.4423C287.015 49.4423 288.616 48.0038 288.616 46.2293C288.616 44.4549 287.015 43.0164 285.041 43.0164C283.066 43.0164 281.465 44.4549 281.465 46.2293C281.465 48.0038 283.066 49.4423 285.041 49.4423Z" fill="#0C0C0C"/>
<g opacity="0.52">
<path d="M273.467 56.0508H273.459C273.028 56.0397 272.307 55.9781 272.315 55.6887C272.323 55.4487 273.136 52.8772 273.228 52.5846C273.236 52.5594 273.255 52.5381 273.28 52.5254C273.306 52.5127 273.336 52.5095 273.364 52.5167C273.392 52.5239 273.416 52.5407 273.43 52.5636C273.444 52.5864 273.447 52.6134 273.439 52.6385C273.079 53.7774 272.54 55.531 272.535 55.6933C272.575 55.7628 273.019 55.8411 273.465 55.8527C273.494 55.8524 273.522 55.8625 273.542 55.8808C273.563 55.8991 273.575 55.924 273.575 55.9502C273.576 55.9763 273.565 56.0015 273.544 56.0202C273.524 56.0389 273.496 56.0495 273.467 56.0498V56.0508Z" fill="#0C0C0C"/>
</g>
<path d="M272.156 50.8596C271.711 50.7412 271.238 50.7327 270.789 50.835C270.567 50.8839 270.355 50.9624 270.16 51.068C269.966 51.1715 269.788 51.2966 269.629 51.4402C269.602 51.4624 269.585 51.4935 269.583 51.5266C269.581 51.5598 269.594 51.5923 269.618 51.617C269.643 51.6417 269.678 51.6567 269.714 51.6585C269.751 51.6603 269.787 51.6489 269.815 51.6267L269.823 51.6203C269.971 51.5004 270.136 51.3977 270.312 51.3146C270.486 51.2319 270.672 51.1733 270.866 51.1407C271.247 51.0737 271.641 51.0984 272.009 51.2124L272.023 51.2171C272.048 51.2261 272.076 51.2304 272.104 51.2297C272.132 51.229 272.159 51.2233 272.184 51.213C272.21 51.2028 272.233 51.188 272.252 51.1697C272.27 51.1514 272.285 51.1299 272.295 51.1065C272.304 51.083 272.309 51.0581 272.307 51.0331C272.306 51.0081 272.299 50.9836 272.287 50.9611C272.276 50.9385 272.259 50.9182 272.238 50.9015C272.217 50.8848 272.193 50.872 272.167 50.8638L272.156 50.8596Z" fill="#0C0C0C"/>
<path d="M275.349 51.2128C275.702 51.0671 276.092 51.008 276.479 51.0416C276.675 51.057 276.867 51.0992 277.049 51.1665C277.233 51.2338 277.408 51.3216 277.568 51.4279L277.577 51.4333C277.606 51.4508 277.643 51.4574 277.678 51.4516C277.713 51.4459 277.744 51.4283 277.765 51.4025C277.786 51.3767 277.795 51.3446 277.791 51.3129C277.786 51.2811 277.769 51.2521 277.741 51.2318C277.568 51.1027 277.377 50.9938 277.173 50.9076C276.967 50.8196 276.747 50.7599 276.522 50.7305C276.063 50.6683 275.594 50.7183 275.164 50.8751C275.113 50.8947 275.073 50.9314 275.052 50.9772C275.032 51.0231 275.032 51.0744 275.053 51.1201C275.074 51.1657 275.115 51.2021 275.165 51.2213C275.216 51.2405 275.273 51.241 275.324 51.2227L275.334 51.2188L275.349 51.2128Z" fill="#0C0C0C"/>
<path d="M297.307 80.3013C297.001 82.3813 296.702 85.2383 296.434 88.1923C295.39 89.1908 294.274 90.1262 293.092 90.9924C292.341 91.5406 291.566 92.0617 290.767 92.5558C286.445 95.2067 281.509 96.9401 276.333 97.6249C271.156 98.3097 265.874 97.9281 260.885 96.5088C260.817 93.7649 260.725 90.0636 260.632 86.6728C260.527 82.7614 260.42 79.2592 260.363 78.1085C260.127 73.5415 258.779 70.4944 259.798 68.0027C260.102 67.2652 260.592 66.6006 261.229 66.0607C263.602 63.9738 269.496 64.0214 271.86 64.1039C271.901 64.1054 271.17 69.0081 278.949 68.949C284.666 68.9069 285.094 64.5653 285.094 64.5653C285.094 64.5653 287.912 64.8287 289.782 65.1206C292.843 65.6022 294.832 66.6108 296.38 68.117C297.825 69.5215 298.677 71.0125 297.307 80.3013Z" fill="#367CFF"/>
<path d="M251.58 64.5872L251.815 59.3559C251.82 59.2408 251.799 59.1261 251.752 59.0188C251.705 58.9116 251.634 58.8144 251.543 58.7332C251.452 58.6521 251.344 58.5889 251.224 58.5476C251.104 58.5064 250.977 58.488 250.849 58.4936C250.613 58.5108 250.393 58.6059 250.23 58.7607C250.068 58.9154 249.976 59.1188 249.971 59.3313L249.921 60.4532L248.277 56.8606C248.102 56.4583 247.601 56.0651 247.111 56.2713C246.917 56.3395 246.755 56.4649 246.65 56.6268C246.545 56.7888 246.505 56.9778 246.535 57.1631C246.531 57.1636 246.526 57.1645 246.522 57.1658C246.519 57.1674 246.516 57.1692 246.513 57.1712L246.243 56.5509C246.193 56.436 246.115 56.3325 246.015 56.2481C245.915 56.1637 245.795 56.1005 245.664 56.063C245.534 56.0254 245.395 56.0146 245.259 56.0313C245.123 56.048 244.993 56.0918 244.878 56.1594C244.699 56.2692 244.568 56.4307 244.506 56.6169C244.445 56.8032 244.456 57.0028 244.538 57.1825L244.653 57.4464C244.646 57.4529 244.641 57.4605 244.636 57.4688C244.513 57.3068 244.329 57.1895 244.118 57.138C243.907 57.0864 243.683 57.1038 243.485 57.1872C243.271 57.2844 243.106 57.4504 243.023 57.6521C242.939 57.8538 242.944 58.0764 243.035 58.2754L243.32 58.9312C243.309 58.9244 243.296 58.9202 243.282 58.9188C243.269 58.9175 243.255 58.919 243.243 58.9233C243.228 58.9292 243.215 58.9388 243.206 58.9509C243.052 58.8339 242.858 58.7658 242.656 58.7572C242.454 58.7485 242.255 58.7997 242.088 58.9028C241.916 59.0145 241.791 59.1751 241.733 59.3587C241.674 59.5423 241.687 59.7382 241.768 59.9146L244.174 65.4475C244.511 66.2216 245.097 66.8876 245.858 67.3603C246.618 67.8331 247.519 68.0909 248.444 68.1008C249.241 68.1093 250.011 67.838 250.589 67.3447C251.168 66.8514 251.509 66.1749 251.542 65.4589L251.58 64.5872Z" fill="#E98862"/>
<g opacity="0.2">
<path d="M248.143 60.7266C248.122 60.7339 248.099 60.7335 248.078 60.7256C248.058 60.7176 248.041 60.7028 248.033 60.6843L246.475 57.2656C246.47 57.2562 246.467 57.246 246.467 57.2356C246.466 57.2252 246.468 57.2148 246.473 57.2051C246.477 57.1955 246.483 57.1866 246.491 57.1792C246.499 57.1718 246.509 57.166 246.52 57.162C246.531 57.1581 246.542 57.1562 246.554 57.1564C246.565 57.1565 246.577 57.1588 246.587 57.1631C246.598 57.1674 246.607 57.1735 246.615 57.1812C246.623 57.1889 246.629 57.1979 246.633 57.2077L248.191 60.6264C248.195 60.6357 248.197 60.6456 248.197 60.6557C248.197 60.6657 248.195 60.6757 248.19 60.6849C248.186 60.6942 248.18 60.7026 248.172 60.7097C248.164 60.7168 248.154 60.7223 248.144 60.7261L248.143 60.7266Z" fill="#0C0C0C"/>
</g>
<g opacity="0.2">
<path d="M246.484 61.3859C246.463 61.3932 246.44 61.3928 246.419 61.3848C246.399 61.3768 246.382 61.3619 246.374 61.3433L244.635 57.528C244.627 57.5093 244.627 57.4885 244.636 57.4701C244.645 57.4517 244.661 57.4371 244.682 57.4294C244.703 57.4227 244.725 57.4233 244.746 57.431C244.766 57.4388 244.782 57.453 244.792 57.471L246.53 61.2864C246.539 61.3051 246.539 61.3262 246.53 61.3449C246.521 61.3636 246.505 61.3784 246.484 61.3861V61.3859Z" fill="#0C0C0C"/>
</g>
<g opacity="0.2">
<path d="M244.691 62.109C244.671 62.1162 244.647 62.1159 244.627 62.1079C244.606 62.0999 244.59 62.085 244.582 62.0663L243.195 59.0231C243.186 59.0044 243.186 58.9833 243.195 58.9646C243.204 58.9459 243.22 58.9311 243.241 58.9235C243.262 58.9158 243.286 58.9159 243.306 58.9237C243.327 58.9315 243.344 58.9465 243.352 58.9652L244.74 62.0077C244.749 62.0265 244.748 62.0475 244.74 62.0662C244.731 62.0849 244.714 62.0998 244.693 62.1075L244.691 62.109Z" fill="#0C0C0C"/>
</g>
<path d="M270.851 72.7889L256.683 92.3634C256.167 93.0749 255.477 93.6707 254.665 94.1051C253.458 93.5067 252.292 92.842 251.176 92.1148C248.796 90.5719 246.646 88.762 244.777 86.729L241.801 65.9947L253.711 64.2798L255.069 74.2602L260.511 66.7431L270.851 72.7889Z" fill="#367CFF"/>
<path d="M272.512 57.1187C273.812 57.1963 275.103 56.8824 276.182 56.2267C276.219 56.2041 276.263 56.1916 276.308 56.1906C276.353 56.1896 276.398 56.2001 276.437 56.221C276.475 56.2418 276.506 56.2721 276.527 56.3083C276.547 56.3446 276.555 56.3852 276.55 56.4255C276.464 57.1153 276.084 58.384 274.474 58.5456C273.434 58.6499 272.68 57.9322 272.301 57.455C272.274 57.422 272.259 57.3829 272.257 57.3424C272.254 57.3019 272.265 57.2616 272.287 57.2263C272.309 57.191 272.342 57.1621 272.382 57.143C272.422 57.124 272.467 57.1156 272.512 57.1187Z" fill="white"/>
<path d="M301.149 82.5013C299.055 85.7451 296.326 88.6218 293.092 90.9924C292.341 91.5406 291.566 92.0617 290.767 92.5558L285.233 73.6379L297.696 70.6922L301.149 82.5013Z" fill="#367CFF"/>
<path d="M290.888 92.4819C290.849 92.505 290.806 92.5311 290.767 92.5558C290.728 92.5804 290.688 92.605 290.648 92.6279L286.431 78.2161L286.697 78.1538L290.888 92.4819Z" fill="#0C0C0C"/>
<path d="M260.666 87.5639C260.632 87.5626 260.599 87.5498 260.575 87.5281C260.55 87.5063 260.536 87.4772 260.534 87.4464L260.263 82.0758C260.261 82.0431 260.274 82.0112 260.298 81.9871C260.323 81.9629 260.357 81.9486 260.393 81.9471C260.43 81.9456 260.465 81.9572 260.492 81.9792C260.519 82.0013 260.535 82.032 260.537 82.0647L260.808 87.4353C260.81 87.4679 260.797 87.4997 260.773 87.5238C260.748 87.5479 260.714 87.5623 260.678 87.5639H260.666Z" fill="#0C0C0C"/>
<path d="M158.167 137.261C177.565 137.261 193.29 123.13 193.29 105.699C193.29 88.2679 177.565 74.1371 158.167 74.1371C138.769 74.1371 123.043 88.2679 123.043 105.699C123.043 123.13 138.769 137.261 158.167 137.261Z" fill="white"/>
<path opacity="0.09" d="M193.291 105.698C193.291 111.94 191.231 118.042 187.371 123.233C183.512 128.423 178.027 132.468 171.609 134.857C165.191 137.246 158.129 137.871 151.316 136.653C144.502 135.435 138.244 132.429 133.332 128.015C128.42 123.601 125.075 117.978 123.719 111.855C122.364 105.733 123.06 99.3872 125.718 93.6201C128.377 87.853 132.878 82.9238 138.654 79.4558C144.43 75.9878 151.221 74.1368 158.168 74.1368C162.785 74.1214 167.36 74.9273 171.629 76.508C175.898 78.0887 179.777 80.4129 183.042 83.3467C186.306 86.2805 188.893 89.7659 190.652 93.602C192.411 97.4381 193.308 101.549 193.291 105.698Z" fill="#367CFF"/>
<path d="M142.619 87.083C142.619 87.083 142.266 91.8475 141.073 93.5762C137.639 98.5526 136.644 104.151 140.083 107.076C143.522 110.002 165.458 110.042 167.119 103.315C168.518 97.6509 165.516 97.0419 164.786 92.3698C164.455 90.2558 163.546 85.8229 163.546 85.8229" fill="#0A0A0A"/>
<path d="M161.442 102.328C161.404 102.323 160.984 108.588 152.884 108.043C147.277 107.666 145.278 102.32 145.149 102.32C145.754 102.204 146.772 102.036 147.041 101.908C147.924 101.481 149.016 101.038 149.301 99.4969C149.465 98.61 149.186 94.0657 149.273 93.1673L157.88 94.8935C157.76 96.7904 156.918 101.19 159.868 101.969C160.358 102.097 160.887 102.215 161.442 102.328Z" fill="#E98862"/>
<path opacity="0.5" d="M157.999 100.17C157.865 99.7797 157.778 99.3771 157.74 98.9697C157.646 98.04 157.665 97.1037 157.797 96.1777C156.047 95.9657 154.399 95.317 153.04 94.3054C152.88 94.8358 152.001 97.1533 152.245 97.6576C152.706 98.6097 154.866 100.17 157.999 100.17Z" fill="#0C0C0C"/>
<path d="M156.886 98.2183C153.493 98.5139 149.102 97.2935 148.193 93.2328L147.372 89.5687C146.463 85.5081 148.099 81.7869 152.354 81.0175C156.608 80.2479 160.526 82.9637 161.436 87.0254L161.799 88.6474C162.148 90.2056 162.941 97.6918 156.886 98.2183Z" fill="#E98862"/>
<path opacity="0.1" d="M154.729 92.898C155.288 92.8381 155.701 92.4912 155.652 92.123C155.603 91.7549 155.111 91.505 154.552 91.5648C153.994 91.6247 153.581 91.9717 153.63 92.3398C153.678 92.708 154.171 92.9579 154.729 92.898Z" fill="#0C0C0C"/>
<path opacity="0.1" d="M160.63 91.4255C160.68 91.7928 161.172 92.0414 161.731 91.9833C161.827 91.9729 161.922 91.9536 162.015 91.9256C162.04 91.4874 162.042 91.0656 162.028 90.6754C161.873 90.6406 161.712 90.6323 161.553 90.6507C160.995 90.7096 160.582 91.0565 160.63 91.4255Z" fill="#0C0C0C"/>
<path opacity="0.5" d="M158.163 92.5614H158.171C158.343 92.5288 158.513 92.4877 158.681 92.4383C158.931 92.3644 159.256 92.24 159.212 92.037C159.16 91.8054 157.896 89.4367 157.752 89.1672C157.738 89.1451 157.716 89.1285 157.689 89.1208C157.662 89.1131 157.633 89.1149 157.608 89.1258C157.583 89.1367 157.563 89.1559 157.553 89.1795C157.543 89.203 157.543 89.2291 157.554 89.2524C158.094 90.2625 158.962 91.9199 158.997 92.0756C158.97 92.1483 158.555 92.2902 158.128 92.3678C158.1 92.3734 158.077 92.3881 158.061 92.4089C158.046 92.4296 158.039 92.4549 158.044 92.4797C158.048 92.5044 158.063 92.5266 158.085 92.5419C158.107 92.5572 158.135 92.5644 158.163 92.5619V92.5614Z" fill="#0C0C0C"/>
<path d="M143.977 90.884L147.792 90.2144C150.673 89.1305 151.491 84.6192 151.491 84.6192C151.491 84.6192 155.047 87.6624 163.546 85.8222C163.546 85.8222 161.7 75.1609 149.15 78.397C145.104 79.4403 142.237 83.1468 142.664 88.0556C142.962 91.4965 143.977 90.884 143.977 90.884Z" fill="#0A0A0A"/>
<path d="M148.734 94.4222C147.441 94.656 146.114 93.6025 145.855 92.4405C145.596 91.2784 146.5 90.4482 147.793 90.2144L148.633 90.8724L149.847 94.2211L148.734 94.4222Z" fill="#E98862"/>
<path d="M158.669 87.2781C158.992 87.0723 159.371 86.9473 159.765 86.916C159.964 86.899 160.163 86.9089 160.358 86.9453C160.555 86.9813 160.746 87.0392 160.926 87.1178L160.932 87.12C160.952 87.1272 160.974 87.1273 160.994 87.1203C161.014 87.1132 161.03 87.0996 161.04 87.0822C161.049 87.0647 161.05 87.0448 161.043 87.0265C161.037 87.0082 161.022 86.9929 161.003 86.9837C160.812 86.893 160.609 86.8243 160.398 86.7793C160.187 86.7329 159.968 86.7154 159.751 86.7275C159.31 86.7495 158.884 86.8771 158.517 87.0971C158.503 87.1052 158.49 87.1158 158.481 87.1283C158.471 87.1408 158.465 87.1548 158.461 87.1697C158.458 87.1845 158.458 87.1998 158.461 87.2147C158.464 87.2296 158.471 87.2437 158.48 87.2562C158.49 87.2687 158.502 87.2794 158.516 87.2876C158.53 87.2958 158.546 87.3013 158.563 87.3039C158.58 87.3065 158.597 87.306 158.613 87.3026C158.629 87.2991 158.645 87.2927 158.659 87.2838L158.661 87.2821L158.669 87.2781Z" fill="#0C0C0C"/>
<path d="M155.184 87.7107C154.751 87.6334 154.303 87.6619 153.886 87.7933C153.68 87.8571 153.486 87.9484 153.31 88.0643C153.135 88.1784 152.977 88.3118 152.839 88.4614C152.824 88.4763 152.817 88.4955 152.819 88.515C152.82 88.5344 152.83 88.5527 152.846 88.5658C152.862 88.579 152.883 88.586 152.905 88.5855C152.927 88.5849 152.947 88.5768 152.962 88.5629L152.967 88.5587C153.1 88.4238 153.251 88.3045 153.418 88.2037C153.582 88.1028 153.763 88.0248 153.953 87.9724C154.331 87.8658 154.734 87.8511 155.121 87.9297L155.13 87.9317C155.146 87.9356 155.163 87.9365 155.18 87.9344C155.196 87.9323 155.212 87.9273 155.227 87.9196C155.241 87.9119 155.254 87.9017 155.264 87.8896C155.274 87.8775 155.281 87.8637 155.285 87.849C155.289 87.8344 155.289 87.8192 155.287 87.8043C155.284 87.7895 155.278 87.7753 155.269 87.7625C155.26 87.7497 155.249 87.7387 155.235 87.73C155.221 87.7213 155.206 87.7152 155.189 87.712L155.184 87.7107Z" fill="#0C0C0C"/>
<path d="M147.794 90.1582C150.358 89.3007 151.209 87.7095 151.472 86.5252C151.641 85.7355 151.625 84.9227 151.425 84.1388L151.345 84.1585C151.543 84.9322 151.558 85.7344 151.39 86.5137C151.132 87.6782 150.294 89.244 147.766 90.089L147.794 90.1582Z" fill="#0C0C0C"/>
<path d="M180.214 101.08L181.749 96.3989C181.783 96.2961 181.84 96.2007 181.917 96.1188C181.994 96.037 182.089 95.9704 182.196 95.9233C182.304 95.8763 182.421 95.8498 182.54 95.8456C182.659 95.8414 182.778 95.8595 182.889 95.8988C183.091 95.9772 183.254 96.1203 183.346 96.3003C183.437 96.4804 183.451 96.6846 183.385 96.8734L183.056 97.8771L185.702 95.1479C185.991 94.8398 186.564 94.6274 186.927 94.941C187.075 95.0534 187.177 95.2077 187.216 95.3787C187.254 95.5498 187.227 95.7275 187.138 95.8828C187.142 95.8845 187.146 95.8866 187.149 95.889C187.152 95.8912 187.154 95.8935 187.155 95.8961L187.6 95.4209C187.682 95.333 187.786 95.2627 187.902 95.2151C188.019 95.1676 188.145 95.144 188.273 95.1461C188.401 95.1482 188.527 95.1759 188.641 95.2272C188.756 95.2784 188.856 95.352 188.935 95.4426C189.056 95.5874 189.118 95.7652 189.111 95.9461C189.103 96.1271 189.027 96.3002 188.894 96.4366L188.705 96.6389C188.709 96.6466 188.712 96.655 188.712 96.6635C188.875 96.5537 189.077 96.4995 189.28 96.5107C189.484 96.522 189.676 96.5979 189.823 96.7249C189.979 96.868 190.07 97.0588 190.076 97.2593C190.083 97.4597 190.005 97.655 189.858 97.8061L189.388 98.3082C189.4 98.3052 189.413 98.305 189.425 98.3074C189.438 98.3098 189.449 98.3148 189.459 98.322C189.47 98.3312 189.478 98.3431 189.482 98.3562C189.658 98.2947 189.851 98.2869 190.032 98.3338C190.213 98.3808 190.372 98.48 190.484 98.6161C190.599 98.761 190.656 98.9365 190.646 99.1141C190.636 99.2917 190.56 99.4611 190.43 99.5949L186.464 103.832C185.909 104.425 185.17 104.855 184.342 105.068C183.513 105.28 182.632 105.266 181.813 105.026C181.107 104.819 180.518 104.373 180.171 103.782C179.825 103.191 179.749 102.503 179.959 101.862L180.214 101.08Z" fill="#E98862"/>
<g opacity="0.2">
<path d="M184.532 98.5969C184.548 98.6085 184.569 98.6141 184.589 98.6126C184.609 98.6111 184.628 98.6026 184.642 98.5888L187.155 95.9905C187.169 95.9762 187.176 95.9576 187.174 95.9388C187.173 95.9199 187.163 95.9024 187.147 95.89C187.131 95.8776 187.11 95.8714 187.089 95.8727C187.069 95.8741 187.049 95.8829 187.035 95.8971L184.522 98.4952C184.515 98.5023 184.51 98.5105 184.507 98.5193C184.504 98.5282 184.502 98.5376 184.503 98.5469C184.504 98.5563 184.507 98.5654 184.511 98.5737C184.516 98.5821 184.522 98.5896 184.53 98.5957L184.532 98.5969Z" fill="#0C0C0C"/>
</g>
<g opacity="0.2">
<path d="M185.777 99.6243C185.793 99.6359 185.813 99.6416 185.834 99.6401C185.854 99.6386 185.873 99.63 185.887 99.6161L188.691 96.7165C188.698 96.7095 188.703 96.7013 188.706 96.6924C188.71 96.6835 188.711 96.6741 188.71 96.6648C188.71 96.6555 188.707 96.6463 188.702 96.638C188.697 96.6296 188.691 96.6221 188.683 96.616C188.667 96.6043 188.646 96.5985 188.626 96.5998C188.605 96.6011 188.585 96.6095 188.571 96.6232L185.769 99.5228C185.762 99.5298 185.757 99.538 185.754 99.5469C185.75 99.5558 185.749 99.5652 185.75 99.5745C185.75 99.5838 185.753 99.5929 185.758 99.6013C185.762 99.6097 185.769 99.6171 185.777 99.6233L185.777 99.6243Z" fill="#0C0C0C"/>
</g>
<g opacity="0.2">
<path d="M187.118 100.744C187.134 100.756 187.154 100.762 187.175 100.76C187.195 100.759 187.214 100.75 187.228 100.736L189.465 98.4233C189.477 98.4089 189.483 98.3907 189.481 98.3725C189.479 98.3543 189.469 98.3375 189.454 98.3255C189.439 98.3136 189.419 98.3073 189.399 98.3081C189.378 98.3088 189.359 98.3166 189.345 98.3297L187.108 100.643C187.101 100.65 187.096 100.658 187.092 100.667C187.089 100.676 187.088 100.685 187.089 100.694C187.089 100.704 187.092 100.713 187.097 100.721C187.101 100.73 187.108 100.737 187.116 100.743L187.118 100.744Z" fill="#0C0C0C"/>
</g>
<path d="M189.557 103.123L183.622 127.32C183.608 127.374 183.595 127.431 183.578 127.485C182.245 128.739 180.801 129.893 179.26 130.936C178.95 131.143 178.641 131.348 178.323 131.545C178.126 131.565 177.928 131.575 177.73 131.575C176.672 131.574 175.633 131.324 174.717 130.849C173.801 130.374 173.04 129.69 172.51 128.867L161.199 111.279L171.644 105.857L175.183 111.36L177.777 100.789L189.557 103.123Z" fill="#0CBC8B"/>
<path d="M171.29 114.155C171.255 114.539 171.183 115.224 171.085 116.126C170.591 120.735 169.437 131.008 168.902 135.755C162.149 137.695 154.901 137.761 148.105 135.945H148.102C143.083 134.595 138.465 132.251 134.586 129.086C134.608 124.842 134.54 120.067 134.222 116.998C133.27 107.826 134.17 106.39 135.647 105.062C135.768 104.953 135.894 104.847 136.02 104.744C137.547 103.497 139.463 102.684 142.257 102.344C144.105 102.12 146.885 101.958 146.885 101.958C146.885 101.958 147.121 106.239 152.733 106.476C160.373 106.799 159.864 101.958 159.902 101.958C161.824 101.958 166.101 102.066 168.798 103.3C168.801 103.3 168.801 103.3 168.804 103.303C169.347 103.54 169.841 103.859 170.265 104.246C173.355 107.188 171.83 108.446 171.29 114.155Z" fill="#0CBC8B"/>
<path d="M159.3 93.3618C158.198 93.8656 156.94 94.0249 155.725 93.8146C155.683 93.8075 155.64 93.8112 155.6 93.8255C155.56 93.8397 155.526 93.8638 155.501 93.895C155.475 93.9261 155.461 93.9631 155.458 94.0015C155.456 94.0398 155.465 94.0781 155.486 94.1117C155.849 94.685 156.707 95.6653 158.18 95.2659C159.132 95.008 159.491 94.1285 159.625 93.5843C159.634 93.5467 159.631 93.5074 159.616 93.4712C159.601 93.435 159.575 93.4034 159.541 93.38C159.507 93.3567 159.466 93.3425 159.424 93.3393C159.381 93.3361 159.338 93.3439 159.3 93.3618Z" fill="white"/>
<path d="M159.369 88.9555C159.663 88.9555 159.902 88.7412 159.902 88.4769C159.902 88.2125 159.663 87.9982 159.369 87.9982C159.075 87.9982 158.837 88.2125 158.837 88.4769C158.837 88.7412 159.075 88.9555 159.369 88.9555Z" fill="#0C0C0C"/>
<path d="M154.25 89.7609C154.544 89.7609 154.782 89.5466 154.782 89.2822C154.782 89.0178 154.544 88.8035 154.25 88.8035C153.955 88.8035 153.717 89.0178 153.717 89.2822C153.717 89.5466 153.955 89.7609 154.25 89.7609Z" fill="#0C0C0C"/>
<path d="M170.112 124.488C170.109 124.488 170.105 124.488 170.102 124.488C170.08 124.485 170.061 124.475 170.048 124.46C170.034 124.444 170.029 124.424 170.032 124.405L170.973 115.879C170.975 115.869 170.978 115.86 170.984 115.851C170.989 115.843 170.996 115.835 171.005 115.829C171.014 115.823 171.024 115.819 171.034 115.817C171.045 115.815 171.056 115.814 171.066 115.816C171.088 115.818 171.108 115.829 171.121 115.844C171.134 115.86 171.14 115.88 171.137 115.899L170.195 124.425C170.192 124.443 170.182 124.459 170.167 124.471C170.152 124.482 170.132 124.488 170.112 124.488Z" fill="#0C0C0C"/>
<path d="M164.412 124.077L169.559 122.012C169.672 121.967 169.795 121.943 169.918 121.943C170.042 121.942 170.165 121.965 170.278 122.009C170.391 122.054 170.493 122.119 170.577 122.2C170.661 122.282 170.725 122.378 170.766 122.484C170.833 122.68 170.818 122.892 170.721 123.078C170.625 123.264 170.455 123.412 170.245 123.492L169.141 123.936L173.324 123.975C173.79 123.972 174.362 124.235 174.331 124.704C174.332 124.885 174.265 125.062 174.141 125.204C174.016 125.347 173.842 125.447 173.645 125.489C173.647 125.493 173.647 125.497 173.647 125.501C173.647 125.504 173.646 125.507 173.645 125.51L174.363 125.506C174.495 125.505 174.626 125.531 174.747 125.581C174.867 125.632 174.973 125.706 175.057 125.798C175.142 125.89 175.202 125.997 175.234 126.113C175.267 126.229 175.27 126.35 175.243 126.466C175.198 126.65 175.083 126.813 174.919 126.93C174.755 127.047 174.551 127.109 174.342 127.107L174.037 127.109C174.033 127.117 174.027 127.124 174.02 127.13C174.227 127.172 174.41 127.278 174.538 127.43C174.665 127.582 174.728 127.77 174.715 127.96C174.695 128.167 174.588 128.36 174.416 128.5C174.244 128.639 174.02 128.716 173.789 128.714L173.031 128.718C173.042 128.725 173.05 128.734 173.057 128.744C173.063 128.755 173.066 128.766 173.066 128.778C173.065 128.792 173.06 128.806 173.052 128.817C173.224 128.9 173.362 129.032 173.443 129.192C173.524 129.353 173.544 129.532 173.5 129.704C173.451 129.883 173.335 130.042 173.172 130.155C173.009 130.268 172.809 130.328 172.604 130.326L166.208 130.366C165.313 130.372 164.437 130.138 163.691 129.693C162.946 129.248 162.365 128.614 162.024 127.87C161.729 127.23 161.724 126.511 162.01 125.867C162.296 125.223 162.85 124.704 163.555 124.421L164.412 124.077Z" fill="#E98862"/>
<g opacity="0.2">
<path d="M169.505 125.469C169.505 125.488 169.514 125.507 169.529 125.521C169.545 125.535 169.566 125.542 169.588 125.542L173.565 125.575C173.587 125.575 173.608 125.567 173.623 125.553C173.639 125.54 173.648 125.521 173.648 125.501C173.648 125.482 173.64 125.463 173.624 125.449C173.609 125.435 173.588 125.427 173.566 125.427L169.588 125.395C169.567 125.395 169.546 125.403 169.53 125.417C169.515 125.43 169.506 125.449 169.506 125.469H169.505Z" fill="#0C0C0C"/>
</g>
<g opacity="0.2">
<path d="M169.441 127.045C169.441 127.065 169.45 127.084 169.465 127.097C169.481 127.111 169.502 127.119 169.523 127.119L173.962 127.155C173.984 127.155 174.005 127.147 174.02 127.133C174.036 127.12 174.044 127.101 174.044 127.081C174.044 127.062 174.035 127.043 174.02 127.03C174.004 127.016 173.984 127.008 173.962 127.008L169.523 126.972C169.501 126.972 169.48 126.979 169.465 126.993C169.45 127.007 169.441 127.026 169.441 127.045Z" fill="#0C0C0C"/>
</g>
<g opacity="0.2">
<path d="M169.361 128.751C169.361 128.77 169.369 128.789 169.385 128.803C169.4 128.817 169.421 128.825 169.443 128.825L172.984 128.853C173.005 128.853 173.026 128.846 173.042 128.832C173.057 128.818 173.066 128.799 173.066 128.78C173.066 128.76 173.057 128.741 173.042 128.728C173.026 128.714 173.005 128.706 172.984 128.706L169.443 128.677C169.421 128.677 169.4 128.685 169.385 128.699C169.369 128.713 169.361 128.732 169.361 128.751V128.751Z" fill="#0C0C0C"/>
</g>
<path d="M165.887 132.314L148.105 135.945H148.102C143.083 134.595 138.465 132.251 134.586 129.086C134.17 128.746 133.762 128.398 133.363 128.042C132.669 127.419 132.005 126.771 131.37 126.098L133.86 108.104C134.131 106.654 135.033 105.36 136.366 104.507C137.7 103.653 139.356 103.311 140.97 103.555C142.584 103.799 144.024 104.61 144.974 105.808C145.923 107.006 146.304 108.494 146.032 109.945L144.459 126.84L164.286 122.807L165.887 132.314Z" fill="#0CBC8B"/>
<path d="M140.448 127.503C140.437 127.504 140.426 127.503 140.416 127.5C140.406 127.497 140.396 127.492 140.388 127.486C140.38 127.479 140.373 127.472 140.368 127.463C140.363 127.454 140.36 127.445 140.36 127.435C140.359 127.425 140.36 127.415 140.363 127.406C140.367 127.397 140.372 127.388 140.379 127.381C140.386 127.374 140.395 127.368 140.405 127.363C140.414 127.359 140.425 127.356 140.436 127.355L144.411 126.592C144.422 126.59 144.433 126.591 144.443 126.593C144.454 126.595 144.463 126.6 144.472 126.605C144.481 126.611 144.488 126.618 144.494 126.627C144.499 126.635 144.503 126.644 144.505 126.654C144.506 126.663 144.506 126.673 144.503 126.683C144.501 126.692 144.496 126.701 144.489 126.709C144.483 126.717 144.475 126.723 144.466 126.728C144.456 126.733 144.446 126.736 144.435 126.738L140.459 127.502C140.455 127.502 140.452 127.503 140.448 127.503Z" fill="#0C0C0C"/>
<path d="M165.887 132.314C165.891 132.333 165.887 132.352 165.876 132.369C165.865 132.385 165.847 132.397 165.826 132.402L148.552 136.061C148.442 136.033 148.335 136.007 148.228 135.977L165.706 132.279L164.149 122.918L144.439 126.738C144.427 126.74 144.414 126.739 144.401 126.736C144.389 126.733 144.378 126.727 144.368 126.719C144.36 126.71 144.354 126.7 144.35 126.689C144.346 126.678 144.345 126.666 144.346 126.655L145.451 117C145.453 116.991 145.457 116.981 145.463 116.973C145.469 116.965 145.476 116.958 145.485 116.953C145.494 116.947 145.504 116.943 145.515 116.941C145.525 116.939 145.536 116.939 145.547 116.941C145.568 116.944 145.588 116.954 145.601 116.97C145.613 116.986 145.619 117.006 145.616 117.025L144.527 126.581L164.184 122.753C164.195 122.75 164.206 122.749 164.217 122.751C164.228 122.753 164.238 122.757 164.247 122.762C164.257 122.767 164.265 122.773 164.272 122.781C164.278 122.788 164.283 122.797 164.286 122.807L165.887 132.314Z" fill="#0C0C0C"/>
<path d="M32.2063 173.626C49.9934 173.626 64.4127 160.669 64.4127 144.685C64.4127 128.702 49.9934 115.745 32.2063 115.745C14.4193 115.745 0 128.702 0 144.685C0 160.669 14.4193 173.626 32.2063 173.626Z" fill="white"/>
<path opacity="0.09" d="M32.2063 173.626C49.9934 173.626 64.4127 160.669 64.4127 144.685C64.4127 128.702 49.9934 115.745 32.2063 115.745C14.4193 115.745 0 128.702 0 144.685C0 160.669 14.4193 173.626 32.2063 173.626Z" fill="#367CFF"/>
<path d="M23.3371 128.27C23.3371 128.27 23.6861 136.987 30.1603 137.387L31.2569 125.893L23.3371 128.27Z" fill="#0A0A0A"/>
<path d="M24.5839 139.168C26.7022 139.168 28.4194 137.625 28.4194 135.721C28.4194 133.818 26.7022 132.275 24.5839 132.275C22.4657 132.275 20.7485 133.818 20.7485 135.721C20.7485 137.625 22.4657 139.168 24.5839 139.168Z" fill="#0A0A0A"/>
<path d="M39.591 141.433C39.5568 141.429 39.1779 147.08 31.871 146.588C26.8126 146.248 25.0092 141.425 24.8935 141.425C25.4715 141.339 26.0417 141.215 26.5995 141.054C27.396 140.669 28.3816 140.269 28.6382 138.879C28.7862 138.078 28.5354 133.979 28.6124 133.169L36.3771 134.726C36.2674 136.438 35.5091 140.406 38.1706 141.109C38.6131 141.225 39.0901 141.332 39.591 141.433Z" fill="#E98862"/>
<path opacity="0.5" d="M36.4856 139.487C36.3639 139.134 36.2856 138.77 36.2521 138.403C36.1668 137.564 36.1838 136.719 36.3028 135.884C34.7246 135.693 33.2379 135.107 32.0114 134.195C31.8672 134.673 31.0743 136.764 31.2939 137.218C31.709 138.08 33.6591 139.487 36.4856 139.487Z" fill="#0C0C0C"/>
<path d="M35.2692 137.964C32.194 137.999 28.3495 136.605 27.873 132.893L27.4431 129.542C26.9663 125.83 28.7497 122.595 32.6395 122.193C36.5289 121.79 39.8224 124.497 40.2992 128.21L40.4894 129.692C40.6723 131.118 40.7562 137.901 35.2692 137.964Z" fill="#E98862"/>
<path d="M39.3747 129.593C39.641 129.593 39.8569 129.399 39.8569 129.16C39.8569 128.92 39.641 128.726 39.3747 128.726C39.1084 128.726 38.8925 128.92 38.8925 129.16C38.8925 129.399 39.1084 129.593 39.3747 129.593Z" fill="#0C0C0C"/>
<path d="M34.4456 130.099C34.712 130.099 34.9279 129.905 34.9279 129.666C34.9279 129.427 34.712 129.233 34.4456 129.233C34.1793 129.233 33.9634 129.427 33.9634 129.666C33.9634 129.905 34.1793 130.099 34.4456 130.099Z" fill="#0C0C0C"/>
<path opacity="0.5" d="M36.8917 132.965H36.8993C37.0569 132.948 37.2133 132.923 37.3679 132.89C37.5987 132.839 37.903 132.751 37.8792 132.565C37.8518 132.354 36.9144 130.138 36.8075 129.886C36.8029 129.875 36.7959 129.865 36.787 129.857C36.7781 129.849 36.7674 129.842 36.7556 129.837C36.7437 129.832 36.731 129.83 36.718 129.829C36.705 129.829 36.6921 129.831 36.68 129.835C36.6679 129.839 36.6568 129.845 36.6474 129.853C36.638 129.861 36.6304 129.871 36.6251 129.882C36.6198 129.892 36.6169 129.904 36.6165 129.915C36.6162 129.927 36.6184 129.939 36.623 129.95C37.023 130.893 37.6648 132.443 37.6829 132.586C37.4361 132.71 37.1596 132.78 36.8766 132.789C36.8505 132.791 36.8262 132.802 36.8092 132.82C36.7921 132.838 36.7837 132.861 36.7857 132.884C36.7877 132.908 36.8 132.93 36.8199 132.945C36.8397 132.96 36.8656 132.968 36.8917 132.966V132.965Z" fill="#0C0C0C"/>
<path opacity="0.5" d="M36.1964 134.51C36.8281 134.478 37.4426 134.312 37.9902 134.028C38.0118 134.016 38.0274 133.996 38.0338 133.974C38.0402 133.952 38.0369 133.929 38.0246 133.909C38.0123 133.889 37.992 133.874 37.9678 133.867C37.9436 133.86 37.9173 133.862 37.8945 133.872C36.7118 134.46 35.5807 134.494 34.6238 133.971C34.6045 133.96 34.5846 133.949 34.5641 133.94C34.5404 133.932 34.514 133.932 34.4905 133.941C34.467 133.949 34.4481 133.966 34.4377 133.987C34.4274 134.008 34.4264 134.031 34.435 134.053C34.4436 134.074 34.461 134.092 34.4838 134.102C34.4912 134.106 34.5038 134.113 34.521 134.122C35.0241 134.399 35.6074 134.534 36.1964 134.51Z" fill="#0C0C0C"/>
<path d="M24.2807 130.495L27.7661 130.151C30.447 129.373 31.5609 125.372 31.5609 125.372C31.5609 125.372 33.9634 127.827 41.0827 126.706C41.0827 126.706 40.8069 118.459 29.9793 119.62C26.2094 120.024 23.3667 123.422 23.3373 127.864C23.317 130.976 24.2807 130.495 24.2807 130.495Z" fill="#0A0A0A"/>
<path d="M28.2598 133.998C27.0777 134.122 25.9736 133.084 25.8374 132.022C25.7011 130.959 26.5839 130.275 27.7661 130.152L28.4665 130.801L29.2761 133.893L28.2598 133.998Z" fill="#E98862"/>
<path d="M37.6692 128.078C38.0178 127.905 38.4119 127.819 38.8102 127.829C39.0069 127.833 39.2018 127.863 39.3884 127.919C39.5738 127.974 39.7507 128.05 39.9151 128.144C39.9315 128.154 39.9433 128.168 39.948 128.185C39.9526 128.202 39.9498 128.22 39.9401 128.236C39.9303 128.251 39.9145 128.262 39.8958 128.267C39.8771 128.272 39.857 128.27 39.8397 128.262L39.8347 128.26C39.679 128.176 39.5123 128.111 39.3385 128.066C39.1664 128.019 38.9874 127.997 38.8077 127.999C38.4503 128.001 38.0996 128.087 37.7914 128.25L37.784 128.254C37.7713 128.262 37.757 128.267 37.742 128.269C37.727 128.272 37.7116 128.271 37.6968 128.268C37.6819 128.265 37.6679 128.26 37.6555 128.252C37.6431 128.244 37.6327 128.234 37.6247 128.222C37.6168 128.21 37.6116 128.197 37.6094 128.184C37.6072 128.17 37.6081 128.156 37.6119 128.143C37.6158 128.13 37.6226 128.117 37.6319 128.107C37.6412 128.096 37.6529 128.087 37.6662 128.08L37.6692 128.078Z" fill="#0C0C0C"/>
<path d="M34.5454 128.595C34.2046 128.498 33.8412 128.484 33.4924 128.554C33.3167 128.588 33.1478 128.647 32.9915 128.726C32.8335 128.806 32.6873 128.903 32.5561 129.015L32.552 129.018C32.5371 129.028 32.5187 129.033 32.5002 129.031C32.4817 129.03 32.4645 129.022 32.4518 129.01C32.4391 128.998 32.4318 128.982 32.4314 128.966C32.4309 128.949 32.4372 128.933 32.4492 128.92C32.5859 128.795 32.7395 128.686 32.9065 128.595C33.0745 128.503 33.257 128.434 33.4477 128.391C33.8334 128.301 34.2389 128.306 34.6219 128.405C34.6367 128.408 34.6506 128.414 34.6627 128.423C34.6749 128.431 34.685 128.441 34.6925 128.453C34.7001 128.465 34.7048 128.478 34.7066 128.492C34.7083 128.506 34.7069 128.519 34.7026 128.533C34.6982 128.546 34.6909 128.558 34.6812 128.569C34.6715 128.579 34.6594 128.588 34.6459 128.594C34.6323 128.6 34.6174 128.604 34.6022 128.605C34.587 128.606 34.5717 128.605 34.5572 128.6H34.5542L34.5454 128.595Z" fill="#0C0C0C"/>
<path opacity="0.52" d="M36.2625 135.349C36.3768 135.345 36.4905 135.332 36.6024 135.311C36.6273 135.305 36.6488 135.291 36.6624 135.272C36.6761 135.252 36.6807 135.229 36.6754 135.206C36.6701 135.184 36.6553 135.164 36.6341 135.151C36.6128 135.138 36.5868 135.133 36.5616 135.137C36.3869 135.183 36.2032 135.195 36.023 135.172C35.8428 135.149 35.6701 135.091 35.5165 135.004C35.4962 134.989 35.4702 134.982 35.4441 134.984C35.418 134.986 35.3941 134.998 35.3775 135.016C35.3609 135.034 35.3531 135.058 35.3557 135.081C35.3583 135.105 35.3712 135.126 35.3915 135.141C35.6463 135.299 35.954 135.373 36.2625 135.349Z" fill="#0C0C0C"/>
<path opacity="0.1" d="M33.7777 133.034C34.2848 133.018 34.6853 132.734 34.6723 132.4C34.6593 132.066 34.2377 131.808 33.7306 131.824C33.2235 131.84 32.823 132.123 32.836 132.458C32.849 132.792 33.2707 133.05 33.7777 133.034Z" fill="#0C0C0C"/>
<path opacity="0.1" d="M39.2044 132.111C39.2187 132.445 39.6401 132.703 40.1473 132.688C40.2349 132.685 40.322 132.674 40.4072 132.655C40.4672 132.263 40.5039 131.884 40.524 131.532C40.3874 131.49 40.2434 131.472 40.0993 131.477C39.5932 131.493 39.1929 131.776 39.2044 132.111Z" fill="#0C0C0C"/>
<path d="M50.5038 147.386C50.4819 149.359 49.728 151.712 49.4593 154.555C49.388 155.313 47.5756 157.508 47.3124 159.95C46.9806 163.059 47.7184 167.907 47.8171 170.004C42.7227 172.537 36.96 173.783 31.1409 173.609C25.3219 173.436 19.6637 171.849 14.7675 169.018C14.6359 163.633 14.4796 156.984 14.2795 155.39C13.6297 150.128 13.8052 146.799 14.7428 145.242C16.2753 142.7 19.0032 141.924 21.8572 141.574C23.6008 141.362 26.219 141.212 26.219 141.212C26.219 141.212 26.4411 145.245 31.7323 145.469C38.9344 145.775 38.4546 141.212 38.4903 141.212C41.103 141.212 46.0543 141.774 47.9514 142.936C49.9637 144.166 50.5285 145.624 50.5038 147.386Z" fill="#FFC239"/>
<path d="M25.6213 150.455L15.8504 169.616C12.0988 167.626 8.83467 164.973 6.25488 161.819L14.4056 145.835L25.6213 150.455Z" fill="#FFC239"/>
<path d="M58.3969 161.529C56.4827 163.929 54.1724 166.052 51.5457 167.826C50.6811 168.412 49.7834 168.958 48.8562 169.462L38.8275 149.65L50.057 145.058L58.3969 161.529Z" fill="#FFC239"/>
<path d="M99.2328 60.263C117.752 60.263 132.765 46.7727 132.765 30.1315C132.765 13.4903 117.752 0 99.2328 0C80.7137 0 65.7009 13.4903 65.7009 30.1315C65.7009 46.7727 80.7137 60.263 99.2328 60.263Z" fill="white"/>
<path opacity="0.09" d="M99.2328 60.263C117.752 60.263 132.765 46.7727 132.765 30.1315C132.765 13.4903 117.752 0 99.2328 0C80.7137 0 65.7009 13.4903 65.7009 30.1315C65.7009 46.7727 80.7137 60.263 99.2328 60.263Z" fill="#367CFF"/>
<path d="M105.717 12.0881C105.717 12.0881 107.84 10.0202 107.676 6.08149C107.549 3.03185 104.885 5.45427 104.885 5.45427C104.885 5.45427 104.77 3.25924 103.076 3.75441C101.382 4.24959 100.861 6.65993 100.861 6.65993" fill="#0C0C0C"/>
<path d="M94.1423 5.46661C94.1423 5.46661 85.6859 7.69983 90.9184 17.6935L91.6907 17.6151L93.2584 17.4565" fill="#0C0C0C"/>
<path d="M106.126 28.0599C106.088 28.0554 105.66 34.4306 97.4181 33.8739C91.7124 33.4898 89.6779 28.05 89.5471 28.05C90.1623 27.9325 90.9225 27.7544 91.2247 27.693C91.8832 27.5557 92.4796 27.2415 92.9345 26.7921C93.3894 26.3428 93.6813 25.7796 93.7713 25.1775C93.9383 24.2739 93.6551 19.6508 93.7422 18.7365L102.5 20.4931C102.378 22.4242 101.522 26.9008 104.524 27.693C105.024 27.8244 105.562 27.9451 106.126 28.0599Z" fill="#E98862"/>
<path opacity="0.52" d="M102.624 25.8639C102.487 25.4666 102.398 25.057 102.36 24.6424C102.264 23.6964 102.283 22.7438 102.417 21.8015C100.637 21.5855 98.9603 20.9253 97.5769 19.8957C97.414 20.4354 96.5197 22.7938 96.7673 23.3067C97.2356 24.2764 99.4351 25.8639 102.624 25.8639Z" fill="#0C0C0C"/>
<path d="M101.194 23.8342C97.7395 24.1133 93.2803 22.8448 92.3863 18.707L91.5794 14.9735C90.6854 10.8347 92.3791 7.05931 96.7147 6.30299C101.05 5.54644 105.016 8.33543 105.91 12.4732L106.266 14.126C106.378 14.6954 106.446 15.271 106.471 15.8488C106.548 17.3762 106.659 19.6976 105.842 21.4137C105.071 23.0342 103.401 23.656 101.194 23.8342Z" fill="#E98862"/>
<path opacity="0.5" d="M101.716 19.7434C102.349 19.7327 102.97 19.5886 103.529 19.3226C103.541 19.3177 103.552 19.3106 103.561 19.3017C103.57 19.2929 103.577 19.2825 103.582 19.2712C103.586 19.2599 103.588 19.2479 103.587 19.2359C103.586 19.2239 103.583 19.2122 103.577 19.2015C103.571 19.1908 103.562 19.1813 103.552 19.1736C103.542 19.1659 103.53 19.1601 103.517 19.1566C103.504 19.1531 103.491 19.1519 103.478 19.1532C103.465 19.1544 103.452 19.1581 103.44 19.164C102.234 19.7111 101.102 19.7059 100.168 19.1507C100.149 19.1389 100.129 19.1281 100.109 19.1181C100.098 19.113 100.085 19.11 100.072 19.1092C100.059 19.1085 100.046 19.11 100.034 19.1138C100.022 19.1176 100.01 19.1235 100 19.1312C99.9907 19.1389 99.9827 19.1482 99.977 19.1587C99.9713 19.1691 99.9679 19.1805 99.9671 19.1922C99.9662 19.2038 99.968 19.2155 99.9721 19.2265C99.9763 19.2375 99.9829 19.2477 99.9915 19.2565C100 19.2652 100.01 19.2724 100.022 19.2775C100.029 19.2812 100.042 19.2886 100.059 19.2987C100.549 19.5919 101.127 19.7467 101.716 19.7434Z" fill="#0C0C0C"/>
<path opacity="0.52" d="M101.747 20.5852C101.861 20.5849 101.975 20.5758 102.088 20.5581C102.101 20.5561 102.113 20.5519 102.124 20.5457C102.135 20.5395 102.144 20.5315 102.152 20.5219C102.159 20.5124 102.165 20.5017 102.168 20.4903C102.17 20.479 102.171 20.4672 102.169 20.4557C102.166 20.4443 102.162 20.4333 102.155 20.4234C102.148 20.4135 102.139 20.405 102.128 20.3983C102.118 20.3915 102.106 20.3867 102.093 20.3841C102.081 20.3816 102.067 20.3812 102.055 20.3832C101.878 20.4229 101.694 20.4284 101.515 20.3993C101.336 20.3701 101.166 20.307 101.016 20.2142C100.996 20.1992 100.971 20.1918 100.945 20.1935C100.919 20.1952 100.895 20.2059 100.878 20.2233C100.861 20.2407 100.852 20.2634 100.854 20.2866C100.855 20.3098 100.866 20.3315 100.885 20.3472C101.133 20.5137 101.437 20.5978 101.747 20.5852Z" fill="#0C0C0C"/>
<path d="M104.872 15.1686C105.173 15.1686 105.416 14.9497 105.416 14.6798C105.416 14.4099 105.173 14.191 104.872 14.191C104.572 14.191 104.328 14.4099 104.328 14.6798C104.328 14.9497 104.572 15.1686 104.872 15.1686Z" fill="#0C0C0C"/>
<path d="M99.5831 15.7241C99.8835 15.7241 100.127 15.5053 100.127 15.2354C100.127 14.9654 99.8835 14.7466 99.5831 14.7466C99.2827 14.7466 99.0392 14.9654 99.0392 15.2354C99.0392 15.5053 99.2827 15.7241 99.5831 15.7241Z" fill="#0C0C0C"/>
<path d="M92.928 19.9205C91.6104 20.1504 90.2687 19.0701 90.0126 17.8861C89.7566 16.7021 90.684 15.8631 92.0014 15.6332L92.8512 16.308L94.0603 19.723L92.928 19.9205Z" fill="#E98862"/>
<path d="M93.8577 17.7999C93.8577 17.7999 93.1215 11.859 95.0289 11.1747C96.299 10.7187 99.8359 11.8795 102.696 10.8901C103.947 10.457 105.236 10.5452 105.472 11.0751C105.565 11.2848 105.742 8.02327 103.234 5.97778C101.237 4.34937 95.8417 4.6753 93.5607 5.68684C87.245 8.48765 91.7812 15.9352 91.7812 15.9352L92.4858 17.91L93.8577 17.7999Z" fill="#0C0C0C"/>
<g opacity="0.52">
<path d="M102.527 18.2722H102.536C102.96 18.1983 103.664 18.0339 103.605 17.7484C103.554 17.5117 102.289 15.0816 102.145 14.8054C102.139 14.7937 102.13 14.7831 102.12 14.7744C102.109 14.7656 102.097 14.7588 102.083 14.7544C102.069 14.75 102.055 14.748 102.04 14.7486C102.026 14.7492 102.012 14.7524 101.999 14.7579C101.986 14.7634 101.974 14.7712 101.964 14.7808C101.954 14.7904 101.947 14.8016 101.942 14.8138C101.937 14.826 101.935 14.839 101.936 14.852C101.936 14.865 101.94 14.8777 101.946 14.8895C102.507 15.9655 103.354 17.624 103.388 17.7854C103.361 17.8593 102.936 18.0019 102.496 18.0775C102.467 18.0814 102.441 18.0955 102.423 18.1168C102.406 18.138 102.398 18.1646 102.402 18.1907C102.407 18.2169 102.422 18.2404 102.446 18.2561C102.47 18.2719 102.499 18.2785 102.528 18.2746L102.527 18.2722Z" fill="#0C0C0C"/>
</g>
<path d="M102.828 12.3177C103.253 12.1346 103.725 12.058 104.194 12.096C104.425 12.1134 104.651 12.1618 104.865 12.2394C105.077 12.315 105.277 12.4144 105.461 12.535C105.495 12.5563 105.519 12.5886 105.527 12.6252C105.536 12.6618 105.528 12.6998 105.505 12.7312C105.483 12.7627 105.448 12.7851 105.407 12.7937C105.367 12.8024 105.324 12.7967 105.289 12.7777L105.276 12.7737C105.109 12.678 104.93 12.6014 104.742 12.5459C104.557 12.4904 104.363 12.4604 104.168 12.4569C103.784 12.4473 103.404 12.5292 103.066 12.6942L103.052 12.7013C103.024 12.7154 102.994 12.7245 102.963 12.7281C102.931 12.7317 102.899 12.7297 102.869 12.7222C102.838 12.7147 102.81 12.7019 102.785 12.6844C102.76 12.667 102.739 12.6453 102.723 12.6206C102.707 12.5959 102.697 12.5687 102.693 12.5405C102.689 12.5123 102.691 12.4836 102.7 12.4562C102.708 12.4287 102.722 12.403 102.742 12.3806C102.761 12.3581 102.785 12.3392 102.813 12.3251L102.828 12.3177Z" fill="#0C0C0C"/>
<path d="M99.709 13.075C99.3387 12.9819 98.9477 12.9783 98.5753 13.0644C98.3861 13.1068 98.2051 13.1746 98.0385 13.2657C97.8685 13.3574 97.7119 13.4679 97.5725 13.5946L97.5637 13.6025C97.5337 13.6286 97.4934 13.6432 97.4516 13.6431C97.4098 13.6429 97.3697 13.6281 97.3398 13.6018C97.31 13.5755 97.2927 13.5398 97.2918 13.5022C97.2908 13.4646 97.3063 13.4282 97.3348 13.4007C97.4841 13.246 97.6546 13.1088 97.8422 12.9925C98.0321 12.8739 98.2407 12.7815 98.461 12.7183C98.6812 12.6531 98.9104 12.6153 99.142 12.606C99.3792 12.5942 99.6171 12.6128 99.8485 12.6612C99.9108 12.6742 99.9647 12.709 99.9984 12.7578C100.032 12.8066 100.043 12.8654 100.028 12.9213C100.014 12.9772 99.9751 13.0257 99.9209 13.056C99.8666 13.0863 99.8011 13.096 99.7389 13.0829L99.7246 13.0795L99.709 13.075Z" fill="#0C0C0C"/>
<path d="M101.377 8.38182C102.318 8.03933 102.625 6.75327 102.064 5.50932C101.503 4.26537 100.286 3.5346 99.3455 3.87709C98.405 4.21958 98.0974 5.50564 98.6584 6.74959C99.2194 7.99353 100.437 8.72431 101.377 8.38182Z" fill="#0C0C0C"/>
<path d="M117.517 34.6477C117.55 36.69 116.662 38.986 116.366 42.095C116.306 42.7257 116.163 44.1151 115.974 45.9258C115.664 48.924 115.225 53.0702 114.842 56.8074C109.353 59.3962 103.173 60.569 96.9882 60.196C90.803 59.8229 84.8536 57.9184 79.7989 54.6936C79.6783 54.6123 79.5576 54.5335 79.437 54.4571C79.1162 50.2321 78.7379 45.7977 78.3925 42.9967C77.7427 37.7665 76.8572 35.1626 77.3534 33.4036C77.3932 33.2538 77.4463 33.1071 77.5124 32.9651C78.9408 29.8511 83.489 28.4617 86.5706 28.0872C88.4513 27.8581 91.2806 27.6931 91.2806 27.6931C91.2806 27.6931 91.5191 32.0486 97.2298 32.29C105.005 32.6202 104.487 27.6931 104.525 27.6931C105.784 27.6931 112.64 28.5159 114.354 29.521C114.641 29.6886 114.916 29.8729 115.176 30.0728C115.921 30.6308 116.517 31.331 116.922 32.1225C117.327 32.9139 117.531 33.7766 117.517 34.6477Z" fill="#383838"/>
<path d="M88.8899 37.806L79.7989 54.6936C79.6782 54.6124 79.5576 54.5335 79.437 54.4571C75.9128 52.1351 72.924 49.2201 70.6365 45.8741L77.3534 33.4036L77.6193 32.9084L88.8899 37.806Z" fill="#383838"/>
<path d="M88.0126 39.7497L79.7441 54.6567C79.6892 54.6197 79.6371 54.5852 79.5823 54.5532L87.8399 39.6733C87.8518 39.6526 87.8722 39.6369 87.8968 39.6295C87.9214 39.6221 87.9482 39.6237 87.9715 39.6339C87.994 39.6444 88.011 39.6624 88.0187 39.6841C88.0265 39.7059 88.0243 39.7294 88.0126 39.7497Z" fill="white"/>
<path d="M129.937 42.2625C128.289 45.6188 125.975 48.6775 123.107 51.289L115.974 45.9258L106.913 39.1116L115.176 30.0728L115.201 30.0457L129.937 42.2625Z" fill="#383838"/>
<path d="M116.084 45.9916C116.107 45.9906 116.129 45.982 116.146 45.9675C116.163 45.9529 116.173 45.9334 116.175 45.9125L116.646 40.9534C116.648 40.9305 116.64 40.9078 116.624 40.8902C116.607 40.8726 116.584 40.8615 116.558 40.8595C116.533 40.8579 116.508 40.8652 116.488 40.8799C116.469 40.8947 116.456 40.9156 116.454 40.9384L115.983 45.8978C115.981 45.9206 115.989 45.9433 116.006 45.9608C116.022 45.9784 116.046 45.9894 116.071 45.9914L116.084 45.9916Z" fill="white"/>
<path d="M257.126 190.741C274.789 190.741 289.108 177.874 289.108 162.002C289.108 146.13 274.789 133.263 257.126 133.263C239.462 133.263 225.143 146.13 225.143 162.002C225.143 177.874 239.462 190.741 257.126 190.741Z" fill="white"/>
<path opacity="0.09" d="M225.143 162.001C225.143 167.685 227.019 173.241 230.533 177.967C234.047 182.693 239.042 186.377 244.886 188.552C250.73 190.727 257.16 191.297 263.364 190.188C269.568 189.079 275.267 186.342 279.739 182.323C284.212 178.303 287.258 173.183 288.492 167.608C289.726 162.033 289.093 156.255 286.672 151.003C284.252 145.752 280.152 141.264 274.893 138.106C269.634 134.948 263.45 133.263 257.125 133.263C252.921 133.249 248.755 133.983 244.868 135.422C240.981 136.861 237.449 138.977 234.476 141.649C231.503 144.32 229.148 147.494 227.546 150.987C225.944 154.48 225.128 158.223 225.143 162.001Z" fill="#367CFF"/>
<path d="M271.638 146.143C271.127 151.464 271.601 153.268 274.06 156.317C276.134 158.888 264.333 156.703 259.112 155.867L263.719 143.766C263.719 143.766 271.817 144.274 271.638 146.143Z" fill="#0A0A0A"/>
<path d="M253.624 143.929C252.084 149.087 252.257 150.683 249.242 153.392C246.744 155.637 256.481 156.094 261.706 156.909L261.971 144.123C261.971 144.123 254.166 142.117 253.624 143.929Z" fill="#0A0A0A"/>
<path d="M254.144 158.932C254.178 158.928 254.561 164.633 261.936 164.135C267.041 163.792 268.862 158.924 268.979 158.924C268.395 158.837 267.82 158.711 267.257 158.549C266.453 158.161 265.458 157.757 265.199 156.354C265.05 155.545 265.303 151.408 265.225 150.589L257.388 152.161C257.497 153.889 258.265 157.895 255.578 158.603C255.131 158.722 254.649 158.83 254.144 158.932Z" fill="#E98862"/>
<path opacity="0.5" d="M257.278 156.967C257.401 156.612 257.48 156.245 257.514 155.874C257.6 155.028 257.583 154.175 257.463 153.332C259.056 153.139 260.556 152.548 261.794 151.627C261.94 152.11 262.74 154.22 262.519 154.679C262.099 155.547 260.131 156.967 257.278 156.967Z" fill="#0C0C0C"/>
<path d="M258.291 155.19C261.381 155.459 265.379 154.348 266.207 150.651L266.955 147.314C267.783 143.617 266.293 140.228 262.419 139.528C258.545 138.827 254.977 141.301 254.149 144.998L253.818 146.476C253.501 147.894 252.778 154.711 258.291 155.19Z" fill="#E98862"/>
<path d="M270.694 148.367L267.209 148.024C260.389 146.897 258.719 141.952 258.719 141.952C258.719 141.952 255.858 145.384 253.429 144.596C253.429 144.596 254.212 136.321 264.995 137.775C269.232 138.346 271.638 141.502 271.638 145.736C271.638 148.848 270.694 148.367 270.694 148.367Z" fill="#0A0A0A"/>
<path opacity="0.1" d="M261.255 149.835C261.3 149.5 260.923 149.184 260.415 149.13C259.907 149.075 259.458 149.303 259.414 149.638C259.369 149.973 259.745 150.289 260.254 150.344C260.762 150.398 261.211 150.171 261.255 149.835Z" fill="#0C0C0C"/>
<path opacity="0.1" d="M254.884 149.005C254.838 149.34 254.39 149.567 253.882 149.513C253.794 149.503 253.707 149.486 253.623 149.46C253.6 149.061 253.598 148.677 253.611 148.322C253.752 148.29 253.899 148.283 254.043 148.299C254.551 148.353 254.927 148.669 254.884 149.005Z" fill="#0C0C0C"/>
<path opacity="0.5" d="M257.13 150.039H257.122C256.965 150.01 256.81 149.973 256.658 149.928C256.43 149.86 256.132 149.747 256.174 149.562C256.221 149.352 257.372 147.195 257.503 146.95C257.509 146.939 257.517 146.929 257.526 146.921C257.536 146.912 257.548 146.906 257.56 146.902C257.573 146.898 257.586 146.896 257.599 146.897C257.613 146.897 257.626 146.9 257.638 146.905C257.65 146.91 257.661 146.918 257.669 146.927C257.678 146.936 257.685 146.946 257.689 146.958C257.693 146.969 257.695 146.981 257.694 146.993C257.693 147.005 257.689 147.017 257.683 147.027C257.192 147.946 256.401 149.456 256.369 149.598C256.606 149.742 256.877 149.833 257.161 149.864C257.186 149.868 257.208 149.882 257.223 149.901C257.237 149.92 257.243 149.943 257.239 149.966C257.235 149.988 257.221 150.009 257.201 150.023C257.181 150.037 257.155 150.043 257.13 150.041V150.039Z" fill="#0C0C0C"/>
<path d="M265.714 151.734C266.892 151.946 268.1 150.987 268.337 149.929C268.574 148.871 267.75 148.115 266.573 147.902L265.807 148.501L264.702 151.551L265.714 151.734Z" fill="#E98862"/>
<path d="M256.669 145.228C256.523 145.136 256.365 145.061 256.197 145.007C256.028 144.949 255.85 144.914 255.67 144.9C255.489 144.884 255.307 144.894 255.13 144.927C254.951 144.96 254.777 145.012 254.613 145.084L254.608 145.086C254.59 145.092 254.57 145.091 254.553 145.085C254.535 145.079 254.521 145.066 254.513 145.051C254.505 145.036 254.503 145.018 254.509 145.002C254.514 144.986 254.526 144.972 254.543 144.963C254.717 144.88 254.902 144.818 255.093 144.776C255.286 144.734 255.485 144.719 255.684 144.73C256.085 144.75 256.473 144.866 256.808 145.067C256.832 145.083 256.848 145.106 256.854 145.133C256.859 145.159 256.852 145.186 256.835 145.208C256.819 145.231 256.793 145.246 256.764 145.251C256.734 145.257 256.704 145.252 256.679 145.237L256.676 145.235L256.669 145.228Z" fill="#0C0C0C"/>
<path d="M259.841 145.623C260.236 145.552 260.644 145.578 261.023 145.698C261.211 145.756 261.388 145.839 261.549 145.944C261.708 146.048 261.852 146.169 261.978 146.305C261.992 146.319 261.999 146.337 261.998 146.355C261.997 146.373 261.988 146.39 261.973 146.402C261.958 146.414 261.939 146.421 261.918 146.42C261.898 146.419 261.879 146.411 261.866 146.398L261.861 146.394C261.74 146.271 261.602 146.163 261.45 146.071C261.3 145.979 261.136 145.908 260.962 145.86C260.618 145.763 260.251 145.75 259.9 145.821L259.891 145.823C259.862 145.83 259.83 145.826 259.804 145.811C259.778 145.797 259.76 145.774 259.752 145.748C259.745 145.721 259.75 145.693 259.766 145.67C259.781 145.647 259.807 145.63 259.836 145.623L259.841 145.623Z" fill="#0C0C0C"/>
<path d="M242.266 187.454C241.008 186.962 240.068 186.435 237.921 184.981C236.371 183.936 234.932 182.766 233.619 181.486L244.643 162.636L245.123 161.817L255.066 166.515L246.441 181.264L246.401 181.329L246.476 181.591" fill="#EA394A"/>
<path d="M278.927 172.291C278.638 175.086 278.575 179.433 278.595 183.298C274.439 186.686 269.363 189.031 263.877 190.097C258.392 191.163 252.692 190.913 247.348 189.371C246.695 183.542 245.722 174.977 245.174 169.702C244.619 164.239 242.985 162.435 247.443 159.818C249.9 158.695 253.794 158.596 255.544 158.596C254.95 163.774 267.095 164.412 267.397 158.596C276.48 159.359 280.686 159.549 278.927 172.291Z" fill="#EA394A"/>
<path d="M256.093 150.768C257.097 151.227 258.243 151.372 259.349 151.18C259.387 151.174 259.427 151.177 259.463 151.19C259.499 151.203 259.531 151.225 259.554 151.254C259.576 151.282 259.59 151.316 259.592 151.351C259.594 151.386 259.586 151.421 259.567 151.451C259.238 151.973 258.455 152.866 257.113 152.502C256.247 152.267 255.919 151.468 255.797 150.971C255.789 150.937 255.791 150.901 255.805 150.868C255.818 150.835 255.842 150.806 255.873 150.784C255.904 150.763 255.941 150.75 255.981 150.747C256.02 150.744 256.059 150.752 256.093 150.768Z" fill="white"/>
<path d="M256.031 146.756C256.299 146.756 256.516 146.561 256.516 146.32C256.516 146.079 256.299 145.884 256.031 145.884C255.763 145.884 255.546 146.079 255.546 146.32C255.546 146.561 255.763 146.756 256.031 146.756Z" fill="#0C0C0C"/>
<path d="M260.692 147.489C260.96 147.489 261.177 147.294 261.177 147.053C261.177 146.813 260.96 146.618 260.692 146.618C260.425 146.618 260.207 146.813 260.207 147.053C260.207 147.294 260.425 147.489 260.692 147.489Z" fill="#0C0C0C"/>
<path d="M246.248 179.111H246.257C246.277 179.108 246.295 179.099 246.307 179.084C246.319 179.07 246.324 179.052 246.321 179.034L245.464 171.271C245.462 171.262 245.459 171.254 245.454 171.246C245.45 171.238 245.443 171.232 245.435 171.226C245.427 171.221 245.418 171.217 245.409 171.215C245.399 171.213 245.389 171.212 245.379 171.214C245.369 171.215 245.36 171.218 245.351 171.222C245.343 171.227 245.336 171.233 245.33 171.24C245.324 171.247 245.319 171.255 245.317 171.263C245.314 171.272 245.314 171.281 245.315 171.29L246.173 179.053C246.175 179.069 246.184 179.084 246.198 179.095C246.212 179.105 246.23 179.111 246.248 179.111Z" fill="#0C0C0C"/>
<path d="M245.127 173.198H236.373V182.845H245.127V173.198Z" fill="white"/>
<path d="M241.542 178.022C241.542 177.385 241.753 176.762 242.147 176.232C242.541 175.703 243.101 175.29 243.756 175.046C244.411 174.802 245.132 174.739 245.827 174.863C246.523 174.988 247.161 175.294 247.662 175.745C248.164 176.196 248.505 176.77 248.643 177.394C248.781 178.019 248.71 178.667 248.439 179.256C248.168 179.844 247.708 180.347 247.119 180.701C246.529 181.055 245.836 181.244 245.127 181.244C244.176 181.243 243.265 180.903 242.593 180.299C241.921 179.695 241.543 178.876 241.542 178.022ZM243.01 178.022C243.01 178.398 243.135 178.766 243.367 179.078C243.6 179.391 243.93 179.635 244.317 179.779C244.704 179.923 245.129 179.96 245.54 179.887C245.95 179.814 246.327 179.633 246.623 179.367C246.919 179.101 247.121 178.762 247.203 178.393C247.284 178.024 247.242 177.641 247.082 177.294C246.922 176.946 246.651 176.649 246.303 176.44C245.955 176.231 245.546 176.12 245.127 176.12C244.566 176.12 244.028 176.321 243.631 176.678C243.234 177.034 243.011 177.517 243.01 178.022Z" fill="white"/>
<path d="M245.057 179.216C245.087 179.052 245.179 178.904 245.318 178.796C245.458 178.687 245.635 178.627 245.819 178.624C245.814 178.618 245.81 178.61 245.808 178.602L245.547 178.552C245.366 178.519 245.202 178.432 245.084 178.303C244.966 178.175 244.901 178.014 244.9 177.848C244.901 177.743 244.929 177.64 244.98 177.547C245.031 177.453 245.105 177.371 245.196 177.306C245.287 177.241 245.393 177.195 245.506 177.171C245.619 177.147 245.737 177.146 245.85 177.168L246.465 177.288C246.465 177.286 246.465 177.284 246.465 177.281C246.466 177.277 246.468 177.273 246.471 177.269C246.31 177.201 246.18 177.086 246.102 176.944C246.023 176.801 246.001 176.639 246.038 176.483C246.105 176.075 246.651 175.94 247.051 176.018L248.644 176.274L248.106 175.954C247.936 175.848 247.818 175.689 247.774 175.508C247.73 175.326 247.764 175.137 247.87 174.978C247.928 174.897 248.003 174.828 248.091 174.775C248.18 174.721 248.279 174.684 248.384 174.667C248.489 174.649 248.596 174.65 248.7 174.671C248.804 174.692 248.902 174.732 248.989 174.788L255.409 181.39L253.984 180.809C253.541 181.394 252.914 181.846 252.184 182.109C251.453 182.372 250.652 182.432 249.883 182.283L246.401 181.601C246.219 181.569 246.055 181.481 245.937 181.353C245.819 181.224 245.754 181.063 245.753 180.897C245.756 180.747 245.812 180.601 245.913 180.481C246.014 180.362 246.155 180.274 246.315 180.232C246.31 180.221 246.308 180.209 246.31 180.198C246.312 180.187 246.316 180.177 246.324 180.169C246.331 180.16 246.341 180.153 246.352 180.149L245.709 180.024C245.507 179.989 245.327 179.885 245.206 179.735C245.085 179.585 245.032 179.399 245.057 179.216Z" fill="#E98862"/>
<path opacity="0.2" d="M247.628 177.519C247.645 177.516 247.66 177.508 247.67 177.496C247.681 177.484 247.687 177.469 247.686 177.453C247.686 177.438 247.68 177.423 247.669 177.412C247.658 177.4 247.642 177.392 247.625 177.39L246.55 177.226C246.54 177.225 246.53 177.225 246.52 177.226C246.511 177.228 246.501 177.232 246.493 177.237C246.485 177.242 246.478 177.248 246.473 177.255C246.467 177.263 246.464 177.271 246.462 177.28C246.46 177.289 246.461 177.298 246.463 177.306C246.465 177.315 246.469 177.323 246.475 177.33C246.481 177.338 246.489 177.344 246.497 177.348C246.506 177.353 246.515 177.356 246.525 177.357L247.601 177.52C247.61 177.521 247.619 177.521 247.628 177.519Z" fill="#0C0C0C"/>
<path opacity="0.2" d="M247.368 178.887C247.385 178.884 247.4 178.876 247.411 178.864C247.422 178.852 247.427 178.837 247.427 178.821C247.427 178.806 247.421 178.791 247.409 178.779C247.398 178.768 247.383 178.76 247.366 178.757L245.893 178.522C245.883 178.52 245.873 178.52 245.863 178.522C245.853 178.523 245.844 178.527 245.836 178.532C245.827 178.537 245.82 178.543 245.815 178.551C245.809 178.558 245.805 178.566 245.804 178.575C245.802 178.584 245.802 178.593 245.804 178.602C245.807 178.611 245.811 178.619 245.817 178.626C245.823 178.633 245.83 178.64 245.839 178.644C245.848 178.649 245.857 178.652 245.867 178.653L247.34 178.888C247.35 178.889 247.359 178.889 247.368 178.887Z" fill="#0C0C0C"/>
<path opacity="0.2" d="M247.098 180.369C247.115 180.365 247.13 180.357 247.14 180.345C247.151 180.333 247.157 180.318 247.156 180.302C247.156 180.287 247.149 180.272 247.138 180.26C247.126 180.249 247.111 180.241 247.094 180.239L246.395 180.143C246.376 180.141 246.357 180.146 246.343 180.157C246.328 180.167 246.318 180.182 246.315 180.199C246.312 180.215 246.317 180.232 246.327 180.246C246.338 180.26 246.354 180.27 246.373 180.273L247.072 180.369C247.08 180.371 247.089 180.37 247.098 180.369Z" fill="#0C0C0C"/>
<path d="M283.387 178.399C279.448 183.489 273.788 187.302 267.246 189.272L267.243 189.27C265.79 189.015 251.929 184.097 250.095 183.774L252.102 175.363C257.253 176.284 266.649 179.835 271.829 180.76L268.174 165.869C268.042 165.211 268.056 164.536 268.216 163.883C268.376 163.23 268.679 162.612 269.106 162.066C269.534 161.519 270.078 161.054 270.708 160.697C271.337 160.341 272.039 160.1 272.772 159.989C273.506 159.878 274.257 159.899 274.981 160.051C275.706 160.203 276.389 160.483 276.993 160.874C277.596 161.265 278.107 161.76 278.496 162.329C278.885 162.899 279.144 163.533 279.258 164.193L283.387 178.399Z" fill="#EA394A"/>
<path d="M275.756 181.856C275.775 181.856 275.793 181.849 275.806 181.838C275.82 181.826 275.828 181.811 275.829 181.794C275.831 181.777 275.825 181.76 275.814 181.747C275.802 181.734 275.786 181.725 275.767 181.722L271.872 180.535C271.862 180.533 271.852 180.534 271.843 180.536C271.833 180.538 271.824 180.542 271.816 180.547C271.808 180.552 271.802 180.559 271.796 180.567C271.791 180.574 271.788 180.583 271.787 180.591C271.784 180.609 271.789 180.627 271.801 180.641C271.813 180.656 271.83 180.665 271.85 180.668L275.745 181.855C275.749 181.856 275.752 181.856 275.756 181.856Z" fill="#0C0C0C"/>
<path d="M271.932 180.592C271.934 180.613 271.927 180.634 271.912 180.65C271.903 180.657 271.893 180.663 271.882 180.666C271.87 180.669 271.858 180.67 271.847 180.668L252.226 175.464L250.26 183.742L267.156 189.297C267.103 189.312 267.048 189.328 266.996 189.344C266.958 189.355 266.921 189.366 266.881 189.375L250.15 183.855C250.131 183.851 250.115 183.84 250.105 183.825C250.095 183.81 250.091 183.792 250.095 183.774L252.102 175.364C252.104 175.356 252.108 175.348 252.114 175.341C252.12 175.334 252.128 175.328 252.137 175.324C252.145 175.318 252.154 175.315 252.164 175.313C252.174 175.312 252.184 175.312 252.194 175.315L271.767 180.525L269.551 172.316C269.549 172.298 269.554 172.28 269.565 172.266C269.577 172.252 269.594 172.242 269.614 172.24C269.623 172.238 269.633 172.238 269.643 172.24C269.653 172.241 269.662 172.245 269.67 172.25C269.678 172.255 269.685 172.261 269.691 172.269C269.696 172.276 269.7 172.284 269.701 172.293L271.932 180.592Z" fill="#0C0C0C"/>
<path d="M16.084 169.864C16.0657 169.864 16.0476 169.861 16.0308 169.854C16.0142 169.848 15.9991 169.839 15.9865 169.827C15.9738 169.816 15.9638 169.802 15.957 169.787C15.9502 169.772 15.9467 169.756 15.9468 169.74C15.9469 169.724 15.9506 169.708 15.9576 169.693L21.3294 158.219C21.3436 158.189 21.3704 158.165 21.4041 158.153C21.4378 158.141 21.4756 158.141 21.5091 158.154C21.5427 158.166 21.5692 158.191 21.5829 158.221C21.5966 158.251 21.5963 158.285 21.5822 158.315L16.2104 169.788C16.1999 169.811 16.1824 169.83 16.1599 169.843C16.1374 169.857 16.111 169.864 16.084 169.864Z" fill="#0C0C0C"/>
<path d="M47.6937 169.994H47.6877C47.6697 169.995 47.6518 169.992 47.6348 169.987C47.6179 169.981 47.6024 169.973 47.5891 169.962C47.5758 169.951 47.565 169.938 47.5574 169.923C47.5498 169.909 47.5454 169.893 47.5446 169.877L46.9458 158.142C46.9454 158.109 46.9586 158.078 46.9828 158.054C47.007 158.03 47.0405 158.016 47.0763 158.013C47.0943 158.012 47.1123 158.015 47.1293 158.02C47.1463 158.026 47.1618 158.034 47.1752 158.045C47.1885 158.056 47.1993 158.069 47.2069 158.084C47.2146 158.098 47.2189 158.114 47.2197 158.13L47.8185 169.865C47.8203 169.897 47.8083 169.928 47.785 169.952C47.7617 169.976 47.729 169.991 47.6937 169.994Z" fill="#0C0C0C"/>
</svg>
