<svg width="180" height="139" viewBox="0 0 180 139" fill="none" xmlns="http://www.w3.org/2000/svg">
<path d="M169.588 8.13376H9.88955C4.59388 8.13376 0.300888 11.9914 0.300888 16.7501V129.679C0.300888 134.438 4.59388 138.296 9.88955 138.296H169.588C174.884 138.296 179.177 134.438 179.177 129.679V16.7501C179.177 11.9914 174.884 8.13376 169.588 8.13376Z" fill="white"/>
<path d="M169.588 138.566H9.88986C7.26781 138.563 4.754 137.626 2.89993 135.96C1.04586 134.294 0.00294671 132.035 0 129.679V16.7501C0.00262885 14.3938 1.04545 12.1348 2.89959 10.4687C4.75374 8.80266 7.26774 7.86566 9.88986 7.86337H169.588C172.211 7.86573 174.724 8.80277 176.579 10.4688C178.433 12.1349 179.475 14.3939 179.478 16.7501V129.679C179.475 132.035 178.433 134.294 176.579 135.961C174.725 137.627 172.211 138.564 169.588 138.566ZM9.88986 8.40414C7.42734 8.40643 5.06641 9.28646 3.32513 10.8511C1.58384 12.4158 0.604421 14.5373 0.601793 16.7501V129.679C0.604342 131.892 1.58372 134.014 3.32502 135.578C5.06632 137.143 7.42729 138.023 9.88986 138.025H169.588C172.051 138.023 174.412 137.143 176.153 135.578C177.894 134.013 178.874 131.892 178.876 129.679V16.7501C178.874 14.5373 177.894 12.4159 176.153 10.8512C174.412 9.28656 172.051 8.4065 169.588 8.40414H9.88986Z" fill="#292A2E"/>
<path opacity="0.7" d="M165.158 31.5333H155.352C153.285 31.5333 151.61 33.0388 151.61 34.896V43.7075C151.61 45.5647 153.285 47.0703 155.352 47.0703H165.158C167.225 47.0703 168.9 45.5647 168.9 43.7075V34.896C168.9 33.0388 167.225 31.5333 165.158 31.5333Z" fill="#367CFF"/>
<path opacity="0.7" d="M165.12 50.8505H155.39C153.302 50.8505 151.61 52.3712 151.61 54.2471V62.991C151.61 64.8669 153.302 66.3876 155.39 66.3876H165.12C167.208 66.3876 168.9 64.8669 168.9 62.991V54.2471C168.9 52.3712 167.208 50.8505 165.12 50.8505Z" fill="#367CFF"/>
<path opacity="0.7" d="M165.12 72.708H155.39C153.302 72.708 151.61 74.2287 151.61 76.1046V84.8485C151.61 86.7244 153.302 88.2451 155.39 88.2451H165.12C167.208 88.2451 168.9 86.7244 168.9 84.8485V76.1046C168.9 74.2287 167.208 72.708 165.12 72.708Z" fill="#367CFF"/>
<path opacity="0.7" d="M165.12 93.7542H155.39C153.302 93.7542 151.61 95.2748 151.61 97.1507V105.895C151.61 107.77 153.302 109.291 155.39 109.291H165.12C167.208 109.291 168.9 107.77 168.9 105.895V97.1507C168.9 95.2748 167.208 93.7542 165.12 93.7542Z" fill="#367CFF"/>
<g opacity="0.2">
<path d="M94.6529 31.5333H84.847C82.7803 31.5333 81.1048 33.0388 81.1048 34.896V43.7075C81.1048 45.5647 82.7803 47.0703 84.847 47.0703H94.6529C96.7197 47.0703 98.3952 45.5647 98.3952 43.7075V34.896C98.3952 33.0388 96.7197 31.5333 94.6529 31.5333Z" fill="#367CFF"/>
<path d="M71.1511 31.5333H61.3452C59.2784 31.5333 57.603 33.0388 57.603 34.896V43.7075C57.603 45.5647 59.2784 47.0703 61.3452 47.0703H71.1511C73.2179 47.0703 74.8934 45.5647 74.8934 43.7075V34.896C74.8934 33.0388 73.2179 31.5333 71.1511 31.5333Z" fill="#367CFF"/>
<path d="M118.154 31.5333H108.349C106.282 31.5333 104.606 33.0388 104.606 34.896V43.7075C104.606 45.5647 106.282 47.0703 108.349 47.0703H118.154C120.221 47.0703 121.897 45.5647 121.897 43.7075V34.896C121.897 33.0388 120.221 31.5333 118.154 31.5333Z" fill="#367CFF"/>
<path d="M141.656 31.5333H131.85C129.784 31.5333 128.108 33.0388 128.108 34.896V43.7075C128.108 45.5647 129.784 47.0703 131.85 47.0703H141.656C143.723 47.0703 145.399 45.5647 145.399 43.7075V34.896C145.399 33.0388 143.723 31.5333 141.656 31.5333Z" fill="#367CFF"/>
<path d="M94.6153 50.8505H84.8847C82.7971 50.8505 81.1048 52.3712 81.1048 54.2471V62.991C81.1048 64.8669 82.7971 66.3876 84.8847 66.3876H94.6153C96.7029 66.3876 98.3952 64.8669 98.3952 62.991V54.2471C98.3952 52.3712 96.7029 50.8505 94.6153 50.8505Z" fill="#367CFF"/>
<path d="M118.117 50.8505H108.386C106.299 50.8505 104.606 52.3712 104.606 54.2471V62.991C104.606 64.8669 106.299 66.3876 108.386 66.3876H118.117C120.204 66.3876 121.897 64.8669 121.897 62.991V54.2471C121.897 52.3712 120.204 50.8505 118.117 50.8505Z" fill="#367CFF"/>
<path d="M141.619 50.8505H131.888C129.8 50.8505 128.108 52.3712 128.108 54.2471V62.991C128.108 64.8669 129.8 66.3876 131.888 66.3876H141.619C143.706 66.3876 145.399 64.8669 145.399 62.991V54.2471C145.399 52.3712 143.706 50.8505 141.619 50.8505Z" fill="#367CFF"/>
<path d="M24.1102 50.8505H14.3795C12.292 50.8505 10.5997 52.3712 10.5997 54.2471V62.991C10.5997 64.8669 12.292 66.3876 14.3795 66.3876H24.1102C26.1978 66.3876 27.8901 64.8669 27.8901 62.991V54.2471C27.8901 52.3712 26.1978 50.8505 24.1102 50.8505Z" fill="#367CFF"/>
<path d="M47.612 50.8505H37.8813C35.7938 50.8505 34.1015 52.3712 34.1015 54.2471V62.991C34.1015 64.8669 35.7938 66.3876 37.8813 66.3876H47.612C49.6996 66.3876 51.3919 64.8669 51.3919 62.991V54.2471C51.3919 52.3712 49.6996 50.8505 47.612 50.8505Z" fill="#367CFF"/>
<path d="M71.1135 50.8505H61.3828C59.2953 50.8505 57.603 52.3712 57.603 54.2471V62.991C57.603 64.8669 59.2953 66.3876 61.3828 66.3876H71.1135C73.2011 66.3876 74.8934 64.8669 74.8934 62.991V54.2471C74.8934 52.3712 73.2011 50.8505 71.1135 50.8505Z" fill="#367CFF"/>
<path d="M94.6153 72.708H84.8847C82.7971 72.708 81.1048 74.2287 81.1048 76.1046V84.8485C81.1048 86.7244 82.7971 88.245 84.8847 88.245H94.6153C96.7029 88.245 98.3952 86.7244 98.3952 84.8485V76.1046C98.3952 74.2287 96.7029 72.708 94.6153 72.708Z" fill="#367CFF"/>
<path d="M118.117 72.708H108.386C106.299 72.708 104.606 74.2287 104.606 76.1046V84.8485C104.606 86.7244 106.299 88.245 108.386 88.245H118.117C120.204 88.245 121.897 86.7244 121.897 84.8485V76.1046C121.897 74.2287 120.204 72.708 118.117 72.708Z" fill="#367CFF"/>
<path d="M141.619 72.708H131.888C129.8 72.708 128.108 74.2287 128.108 76.1046V84.8485C128.108 86.7244 129.8 88.245 131.888 88.245H141.619C143.706 88.245 145.399 86.7244 145.399 84.8485V76.1046C145.399 74.2287 143.706 72.708 141.619 72.708Z" fill="#367CFF"/>
<path d="M24.1102 72.708H14.3795C12.292 72.708 10.5997 74.2287 10.5997 76.1046V84.8485C10.5997 86.7244 12.292 88.245 14.3795 88.245H24.1102C26.1978 88.245 27.8901 86.7244 27.8901 84.8485V76.1046C27.8901 74.2287 26.1978 72.708 24.1102 72.708Z" fill="#367CFF"/>
<path d="M47.612 72.708H37.8813C35.7938 72.708 34.1015 74.2287 34.1015 76.1046V84.8485C34.1015 86.7244 35.7938 88.245 37.8813 88.245H47.612C49.6996 88.245 51.3919 86.7244 51.3919 84.8485V76.1046C51.3919 74.2287 49.6996 72.708 47.612 72.708Z" fill="#367CFF"/>
<path d="M71.1135 72.708H61.3828C59.2953 72.708 57.603 74.2287 57.603 76.1046V84.8485C57.603 86.7244 59.2953 88.245 61.3828 88.245H71.1135C73.2011 88.245 74.8934 86.7244 74.8934 84.8485V76.1046C74.8934 74.2287 73.2011 72.708 71.1135 72.708Z" fill="#367CFF"/>
<path d="M94.6153 93.7542H84.8847C82.7971 93.7542 81.1048 95.2748 81.1048 97.1507V105.895C81.1048 107.77 82.7971 109.291 84.8847 109.291H94.6153C96.7029 109.291 98.3952 107.77 98.3952 105.895V97.1507C98.3952 95.2748 96.7029 93.7542 94.6153 93.7542Z" fill="#367CFF"/>
<path d="M118.117 93.7542H108.386C106.299 93.7542 104.606 95.2748 104.606 97.1507V105.895C104.606 107.77 106.299 109.291 108.386 109.291H118.117C120.204 109.291 121.897 107.77 121.897 105.895V97.1507C121.897 95.2748 120.204 93.7542 118.117 93.7542Z" fill="#367CFF"/>
<path d="M141.619 93.7542H131.888C129.8 93.7542 128.108 95.2748 128.108 97.1507V105.895C128.108 107.77 129.8 109.291 131.888 109.291H141.619C143.706 109.291 145.399 107.77 145.399 105.895V97.1507C145.399 95.2748 143.706 93.7542 141.619 93.7542Z" fill="#367CFF"/>
<path d="M24.1102 93.7542H14.3795C12.292 93.7542 10.5997 95.2748 10.5997 97.1507V105.895C10.5997 107.77 12.292 109.291 14.3795 109.291H24.1102C26.1978 109.291 27.8901 107.77 27.8901 105.895V97.1507C27.8901 95.2748 26.1978 93.7542 24.1102 93.7542Z" fill="#367CFF"/>
<path d="M47.612 93.7542H37.8813C35.7938 93.7542 34.1015 95.2748 34.1015 97.1507V105.895C34.1015 107.77 35.7938 109.291 37.8813 109.291H47.612C49.6996 109.291 51.3919 107.77 51.3919 105.895V97.1507C51.3919 95.2748 49.6996 93.7542 47.612 93.7542Z" fill="#367CFF"/>
<path d="M71.1135 93.7542H61.3828C59.2953 93.7542 57.603 95.2748 57.603 97.1507V105.895C57.603 107.77 59.2953 109.291 61.3828 109.291H71.1135C73.2011 109.291 74.8934 107.77 74.8934 105.895V97.1507C74.8934 95.2748 73.2011 93.7542 71.1135 93.7542Z" fill="#367CFF"/>
<path d="M94.6153 113.124H84.8847C82.7971 113.124 81.1048 114.645 81.1048 116.521V125.265C81.1048 127.141 82.7971 128.661 84.8847 128.661H94.6153C96.7029 128.661 98.3952 127.141 98.3952 125.265V116.521C98.3952 114.645 96.7029 113.124 94.6153 113.124Z" fill="#367CFF"/>
<path d="M24.1102 113.124H14.3795C12.292 113.124 10.5997 114.645 10.5997 116.521V125.265C10.5997 127.141 12.292 128.661 14.3795 128.661H24.1102C26.1978 128.661 27.8901 127.141 27.8901 125.265V116.521C27.8901 114.645 26.1978 113.124 24.1102 113.124Z" fill="#367CFF"/>
<path d="M47.612 113.124H37.8813C35.7938 113.124 34.1015 114.645 34.1015 116.521V125.265C34.1015 127.141 35.7938 128.661 37.8813 128.661H47.612C49.6996 128.661 51.3919 127.141 51.3919 125.265V116.521C51.3919 114.645 49.6996 113.124 47.612 113.124Z" fill="#367CFF"/>
<path d="M71.1135 113.124H61.3828C59.2953 113.124 57.603 114.645 57.603 116.521V125.265C57.603 127.141 59.2953 128.661 61.3828 128.661H71.1135C73.2011 128.661 74.8934 127.141 74.8934 125.265V116.521C74.8934 114.645 73.2011 113.124 71.1135 113.124Z" fill="#367CFF"/>
</g>
<path d="M179.177 16.7509V22.2745H0.302704V16.7509C0.302349 15.6192 0.550091 14.4986 1.03178 13.453C1.51346 12.4074 2.21966 11.4574 3.11003 10.657C4.00039 9.85674 5.05749 9.22189 6.22095 8.78876C7.3844 8.35562 8.63142 8.13269 9.89077 8.13269H169.589C172.132 8.13312 174.571 9.04133 176.369 10.6575C178.167 12.2738 179.177 14.4656 179.177 16.7509Z" fill="#292A2E"/>
<path d="M32.786 7.8634C32.7859 6.4921 33.2384 5.15159 34.0861 4.01137C34.9339 2.87115 36.1389 1.98243 37.5488 1.4576C38.9586 0.932764 40.51 0.795388 42.0067 1.06284C43.5035 1.3303 44.8783 1.99057 45.9575 2.96016C47.0366 3.92975 47.7716 5.16512 48.0694 6.51005C48.3672 7.85498 48.2145 9.24906 47.6306 10.516C47.0467 11.7829 46.0578 12.8659 44.789 13.6278C43.5202 14.3897 42.0285 14.7965 40.5024 14.7966C40.3296 14.7966 40.1638 14.7349 40.0416 14.625C39.9194 14.5152 39.8507 14.3662 39.8507 14.2109C39.8507 14.0556 39.9194 13.9066 40.0416 13.7968C40.1638 13.687 40.3296 13.6253 40.5024 13.6253C41.7707 13.6253 43.0105 13.2873 44.065 12.6541C45.1195 12.021 45.9414 11.121 46.4268 10.0681C46.9121 9.01523 47.0391 7.85664 46.7916 6.73889C46.5442 5.62114 45.9334 4.59442 45.0366 3.78859C44.1398 2.98275 42.9972 2.43398 41.7533 2.21168C40.5094 1.98937 39.22 2.10352 38.0483 2.53968C36.8766 2.97585 35.8752 3.71444 35.1706 4.66205C34.466 5.60967 34.09 6.72374 34.09 7.8634" fill="#E5E5E5"/>
<path d="M72.1757 7.8634C72.1756 6.49208 72.6281 5.15155 73.4759 4.01131C74.3237 2.87108 75.5287 1.98236 76.9386 1.45754C78.3485 0.932728 79.8999 0.795384 81.3967 1.06288C82.8934 1.33038 84.2683 1.9907 85.3474 2.96035C86.4265 3.93 87.1614 5.16542 87.4592 6.51038C87.7569 7.85534 87.6041 9.24944 87.0202 10.5164C86.4362 11.7833 85.4472 12.8662 84.1783 13.628C82.9094 14.3899 81.4176 14.7966 79.8916 14.7966C79.7187 14.7966 79.553 14.7349 79.4307 14.625C79.3085 14.5152 79.2398 14.3662 79.2398 14.2109C79.2398 14.0556 79.3085 13.9066 79.4307 13.7968C79.553 13.687 79.7187 13.6253 79.8916 13.6253C81.1599 13.6255 82.3998 13.2878 83.4546 12.6548C84.5093 12.0218 85.3314 11.122 85.817 10.0691C86.3025 9.01619 86.4297 7.85756 86.1824 6.73972C85.9352 5.62188 85.3245 4.59504 84.4278 3.78906C83.531 2.98309 82.3884 2.43419 81.1444 2.21177C79.9005 1.98936 78.6111 2.10343 77.4393 2.53956C76.2675 2.97568 75.266 3.71427 74.5613 4.66191C73.8567 5.60956 73.4806 6.72369 73.4807 7.8634" fill="#E5E5E5"/>
<path d="M111.566 7.8634C111.566 6.49208 112.018 5.15155 112.866 4.01131C113.714 2.87108 114.919 1.98236 116.329 1.45754C117.739 0.932728 119.29 0.795384 120.787 1.06288C122.283 1.33038 123.658 1.9907 124.737 2.96035C125.817 3.93 126.551 5.16542 126.849 6.51038C127.147 7.85534 126.994 9.24944 126.41 10.5164C125.826 11.7833 124.837 12.8662 123.568 13.628C122.299 14.3899 120.808 14.7966 119.282 14.7966C119.109 14.7966 118.943 14.7349 118.821 14.625C118.699 14.5152 118.63 14.3662 118.63 14.2109C118.63 14.0556 118.699 13.9066 118.821 13.7968C118.943 13.687 119.109 13.6253 119.282 13.6253C120.55 13.625 121.789 13.2869 122.844 12.6536C123.898 12.0203 124.72 11.1203 125.205 10.0674C125.69 9.01446 125.817 7.85591 125.569 6.73823C125.322 5.62055 124.711 4.59393 123.814 3.7882C122.917 2.98247 121.775 2.43381 120.531 2.2116C119.287 1.98938 117.998 2.10359 116.826 2.53979C115.654 2.97598 114.653 3.71457 113.948 4.66216C113.244 5.60976 112.868 6.72379 112.868 7.8634" fill="#E5E5E5"/>
<path d="M131.261 7.8634C131.261 6.49208 131.713 5.15155 132.561 4.01131C133.409 2.87108 134.614 1.98236 136.024 1.45754C137.433 0.932728 138.985 0.795384 140.482 1.06288C141.978 1.33038 143.353 1.9907 144.432 2.96035C145.511 3.93 146.246 5.16542 146.544 6.51038C146.842 7.85534 146.689 9.24944 146.105 10.5164C145.521 11.7833 144.532 12.8662 143.263 13.628C141.994 14.3899 140.503 14.7966 138.976 14.7966C138.804 14.7966 138.638 14.7349 138.516 14.625C138.393 14.5152 138.325 14.3662 138.325 14.2109C138.325 14.0556 138.393 13.9066 138.516 13.7968C138.638 13.687 138.804 13.6253 138.976 13.6253C140.245 13.6253 141.485 13.2873 142.539 12.6541C143.594 12.021 144.415 11.121 144.901 10.0681C145.386 9.01523 145.513 7.85664 145.266 6.73889C145.018 5.62114 144.407 4.59442 143.511 3.78859C142.614 2.98275 141.471 2.43398 140.227 2.21168C138.983 1.98937 137.694 2.10352 136.522 2.53968C135.351 2.97585 134.349 3.71444 133.645 4.66205C132.94 5.60967 132.564 6.72374 132.564 7.8634" fill="#E5E5E5"/>
<path d="M13.0908 7.8634C13.0907 6.49208 13.5432 5.15155 14.391 4.01131C15.2388 2.87108 16.4438 1.98236 17.8537 1.45754C19.2636 0.932728 20.815 0.795384 22.3118 1.06288C23.8085 1.33038 25.1834 1.9907 26.2625 2.96035C27.3416 3.93 28.0765 5.16542 28.3743 6.51038C28.672 7.85534 28.5192 9.24944 27.9353 10.5164C27.3513 11.7833 26.3623 12.8662 25.0934 13.628C23.8245 14.3899 22.3327 14.7966 20.8067 14.7966C20.6338 14.7966 20.4681 14.7349 20.3458 14.625C20.2236 14.5152 20.1549 14.3662 20.1549 14.2109C20.1549 14.0556 20.2236 13.9066 20.3458 13.7968C20.4681 13.687 20.6338 13.6253 20.8067 13.6253C22.0749 13.6253 23.3147 13.2873 24.3692 12.6541C25.4238 12.021 26.2457 11.121 26.731 10.0681C27.2163 9.01523 27.3433 7.85664 27.0958 6.73889C26.8484 5.62114 26.2376 4.59442 25.3408 3.78859C24.444 2.98275 23.3014 2.43398 22.0575 2.21168C20.8136 1.98937 19.5243 2.10352 18.3525 2.53968C17.1808 2.97585 16.1794 3.71444 15.4748 4.66205C14.7702 5.60967 14.3942 6.72374 14.3943 7.8634" fill="#E5E5E5"/>
<path d="M52.4808 7.8634C52.4808 6.49208 52.9332 5.15155 53.781 4.01131C54.6288 2.87108 55.8339 1.98236 57.2438 1.45754C58.6536 0.932728 60.2051 0.795384 61.7018 1.06288C63.1986 1.33038 64.5734 1.9907 65.6526 2.96035C66.7317 3.93 67.4666 5.16542 67.7643 6.51038C68.0621 7.85534 67.9093 9.24944 67.3253 10.5164C66.7413 11.7833 65.7523 12.8662 64.4834 13.628C63.2146 14.3899 61.7228 14.7966 60.1967 14.7966C60.0239 14.7966 59.8581 14.7349 59.7359 14.625C59.6136 14.5152 59.545 14.3662 59.545 14.2109C59.545 14.0556 59.6136 13.9066 59.7359 13.7968C59.8581 13.687 60.0239 13.6253 60.1967 13.6253C61.465 13.6253 62.7048 13.2873 63.7593 12.6541C64.8138 12.021 65.6357 11.121 66.121 10.0681C66.6064 9.01523 66.7333 7.85664 66.4859 6.73889C66.2384 5.62114 65.6277 4.59442 64.7309 3.78859C63.834 2.98275 62.6914 2.43398 61.4475 2.21168C60.2036 1.98937 58.9143 2.10352 57.7426 2.53968C56.5709 2.97585 55.5694 3.71444 54.8648 4.66205C54.1603 5.60967 53.7842 6.72374 53.7843 7.8634" fill="#E5E5E5"/>
<path d="M91.8709 7.8634C91.8708 6.49207 92.3233 5.15152 93.1711 4.01129C94.0189 2.87105 95.224 1.98233 96.6339 1.45752C98.0438 0.93271 99.5952 0.795382 101.092 1.0629C102.589 1.33042 103.964 1.99077 105.043 2.96045C106.122 3.93012 106.857 5.16557 107.154 6.51055C107.452 7.85553 107.299 9.24963 106.715 10.5166C106.131 11.7835 105.142 12.8663 103.873 13.6282C102.604 14.39 101.113 14.7966 99.5864 14.7966C99.4136 14.7966 99.2478 14.7349 99.1256 14.625C99.0034 14.5152 98.9347 14.3662 98.9347 14.2109C98.9347 14.0556 99.0034 13.9066 99.1256 13.7968C99.2478 13.687 99.4136 13.6253 99.5864 13.6253C100.855 13.6253 102.094 13.2873 103.149 12.6541C104.204 12.021 105.025 11.121 105.511 10.0681C105.996 9.01523 106.123 7.85664 105.876 6.73889C105.628 5.62114 105.017 4.59442 104.121 3.78859C103.224 2.98275 102.081 2.43398 100.837 2.21168C99.5934 1.98937 98.304 2.10352 97.1323 2.53968C95.9606 2.97585 94.9592 3.71444 94.2546 4.66205C93.55 5.60967 93.174 6.72374 93.174 7.8634" fill="#E5E5E5"/>
<path d="M150.956 7.8634C150.956 6.49207 151.408 5.15152 152.256 4.01129C153.104 2.87105 154.309 1.98233 155.719 1.45752C157.129 0.93271 158.68 0.795382 160.177 1.0629C161.674 1.33042 163.048 1.99077 164.128 2.96045C165.207 3.93012 165.942 5.16557 166.239 6.51055C166.537 7.85553 166.384 9.24963 165.8 10.5166C165.216 11.7835 164.227 12.8663 162.958 13.6282C161.689 14.39 160.197 14.7966 158.671 14.7966C158.499 14.7966 158.333 14.7349 158.21 14.625C158.088 14.5152 158.02 14.3662 158.02 14.2109C158.02 14.0556 158.088 13.9066 158.21 13.7968C158.333 13.687 158.499 13.6253 158.671 13.6253C159.94 13.6253 161.179 13.2874 162.234 12.6543C163.289 12.0212 164.11 11.1212 164.596 10.0683C165.081 9.01542 165.208 7.85683 164.961 6.73906C164.713 5.62129 164.103 4.59455 163.206 3.78868C162.309 2.98282 161.166 2.43402 159.923 2.2117C158.679 1.98937 157.389 2.1035 156.218 2.53966C155.046 2.97581 154.044 3.7144 153.34 4.66202C152.635 5.60964 152.259 6.72373 152.259 7.8634" fill="#E5E5E5"/>
<path d="M39.3687 105.795C39.3413 105.795 39.3139 105.795 39.2862 105.791C39.16 105.781 39.0376 105.747 38.9268 105.692C38.8159 105.637 38.719 105.562 38.6423 105.471L35.8882 102.216C35.8157 102.13 35.7627 102.032 35.7322 101.928C35.7017 101.824 35.6943 101.715 35.7105 101.609C35.7267 101.502 35.7661 101.399 35.8265 101.306C35.8869 101.213 35.967 101.132 36.0624 101.067C36.1578 101.002 36.2665 100.954 36.3824 100.926C36.4983 100.899 36.619 100.892 36.7377 100.907C36.8565 100.922 36.9708 100.957 37.0743 101.011C37.1778 101.065 37.2684 101.137 37.3409 101.223L39.4908 103.765L47.7423 96.9971C47.921 96.8505 48.1572 96.7738 48.3989 96.7837C48.6406 96.7936 48.8681 96.8894 49.0312 97.05C49.1943 97.2106 49.2798 97.4228 49.2687 97.64C49.2577 97.8572 49.1511 98.0616 48.9724 98.2082L39.9837 105.58C39.8156 105.718 39.5962 105.795 39.3687 105.795Z" fill="#367CFF"/>
<path d="M70.8954 114.843H61.6013C60.4495 114.843 59.5158 115.682 59.5158 116.717V125.069C59.5158 126.104 60.4495 126.943 61.6013 126.943H70.8954C72.0472 126.943 72.9809 126.104 72.9809 125.069V116.717C72.9809 115.682 72.0472 114.843 70.8954 114.843Z" fill="#367CFF"/>
<path d="M131.418 44.9462C131.239 44.9461 131.064 44.8987 130.915 44.8101C130.766 44.7214 130.649 44.5953 130.579 44.4474C130.509 44.2996 130.489 44.1365 130.521 43.9784C130.553 43.8203 130.636 43.6743 130.76 43.5583L141.363 33.6425C141.445 33.563 141.545 33.4989 141.655 33.4541C141.765 33.4093 141.884 33.3847 142.005 33.3816C142.126 33.3786 142.247 33.3972 142.359 33.4364C142.472 33.4756 142.575 33.5345 142.663 33.6099C142.75 33.6852 142.82 33.7753 142.868 33.8751C142.916 33.9749 142.941 34.0823 142.943 34.191C142.944 34.2997 142.922 34.4076 142.876 34.5084C142.831 34.6092 142.764 34.7009 142.679 34.7782L132.076 44.6942C131.991 44.774 131.889 44.8375 131.776 44.8808C131.663 44.9241 131.541 44.9464 131.418 44.9462Z" fill="#0A0A0A"/>
<path d="M142.237 44.7523C142.001 44.7525 141.775 44.6705 141.605 44.5236L130.57 34.9955C130.482 34.9215 130.411 34.8323 130.361 34.7332C130.311 34.6341 130.283 34.5271 130.28 34.4184C130.277 34.3097 130.297 34.2015 130.341 34.1001C130.385 33.9987 130.45 33.906 130.534 33.8276C130.618 33.7492 130.718 33.6865 130.829 33.6433C130.94 33.6001 131.06 33.5771 131.181 33.5757C131.302 33.5744 131.422 33.5947 131.534 33.6355C131.646 33.6762 131.748 33.7366 131.834 33.8132L142.869 43.3412C143 43.4545 143.09 43.6005 143.129 43.7604C143.167 43.9202 143.151 44.0867 143.083 44.2384C143.015 44.3901 142.898 44.52 142.747 44.6116C142.597 44.7032 142.419 44.7522 142.237 44.7523Z" fill="#0A0A0A"/>
</svg>
